<?xml version="1.0" encoding="utf-8"?>
<!-- Generator: Adobe Illustrator 16.0.0, SVG Export Plug-In . SVG Version: 6.00 Build 0)  -->
<!DOCTYPE svg PUBLIC "-//W3C//DTD SVG 1.1//EN" "http://www.w3.org/Graphics/SVG/1.1/DTD/svg11.dtd">
<svg version="1.1" id="Layer_1" xmlns="http://www.w3.org/2000/svg" xmlns:xlink="http://www.w3.org/1999/xlink" x="0px" y="0px"
	 width="183.18px" height="34.438px" viewBox="0 0 183.18 34.438" enable-background="new 0 0 183.18 34.438" xml:space="preserve">
<path fill="#82B541" d="M23.489,3.498c-0.922-0.512-3.564-0.195-6.738,0.787c-5.555,3.797-10.243,9.391-10.57,18.373
	c-0.06,0.215-0.607-0.029-0.716-0.096c-1.5-2.875-2.094-5.902-0.842-10.27c0.233-0.389-0.53-0.867-0.667-0.73
	c-0.275,0.275-1.421,1.496-2.182,2.816C-1.999,20.923,0.469,29.31,7.07,32.98c6.6,3.676,14.933,1.305,18.608-5.297
	C29.929,20.064,25.981,4.89,23.489,3.498z"/>
<g>
	<path fill="#FFFFFF" d="M47.112,7.154c-7.825,0-13.505,5.817-13.505,13.832c0,8.081,5.665,13.725,13.777,13.725
		c4.098,0,7.342-1.281,9.922-3.919c0.771-0.832,0.854-1.634,0.854-1.94c0-1.307-0.972-2.256-2.311-2.256
		c-0.675,0-1.239,0.255-1.887,0.854c-1.461,1.361-3.385,2.752-6.578,2.752c-4.44,0-8.052-3.334-8.279-7.615h17.673
		c1.922,0,2.855-0.898,2.855-2.746c0-0.544,0-0.937-0.109-1.711C58.572,11.257,53.933,7.154,47.112,7.154z M47.112,11.445
		c4.243,0,6.966,2.704,7.134,7.068H39.111C39.509,14.475,42.924,11.445,47.112,11.445z"/>
	<path fill="#FFFFFF" d="M76.511,7.154c-3.555,0-7.074,2.044-8.449,4.883v-1.754c0-2.718-2.106-2.855-2.528-2.855
		c-1.248,0-2.582,0.75-2.582,2.855v21.189c0,2.822,2.242,2.965,2.691,2.965s2.692-0.143,2.692-2.965V20.113
		c0-4.942,2.801-8.395,6.811-8.395c3.884,0,5.772,2.549,5.772,7.793v11.961c0,2.822,2.243,2.965,2.692,2.965
		s2.691-0.143,2.691-2.965V17.819C86.302,12.663,83.729,7.154,76.511,7.154z"/>
	<path fill="#FFFFFF" d="M110.661,7.428c-1.244,0-2.146,0.726-2.684,2.153l-7.366,18.522l-7.31-18.522
		c-0.572-1.449-1.468-2.153-2.738-2.153c-1.484,0-2.692,1.158-2.692,2.582c0,0.353,0.04,0.81,0.338,1.523l8.465,19.987
		c1.009,2.411,2.668,2.917,3.883,2.917c1.214,0,2.874-0.506,3.885-2.916l8.52-20.099c0.291-0.705,0.336-1.223,0.336-1.468
		C113.297,8.515,112.163,7.428,110.661,7.428z"/>
	<path fill="#FFFFFF" d="M126.315,7.154c-3.443,0-6.65,0.959-9.029,2.698c-0.807,0.557-1.199,1.251-1.199,2.124
		c0,1.202,0.918,2.145,2.092,2.145c0.508,0,1.076-0.202,1.598-0.567c2.045-1.363,3.967-1.999,6.047-1.999
		c3.98,0,6.266,2.024,6.266,5.555v0.585c-8.936,0.01-18.023,1.089-18.023,8.862c0,5.595,4.781,8.1,9.52,8.1
		c3.773,0,6.787-1.495,8.721-4.326v1.361c0,2.027,1.361,2.746,2.529,2.746c0.246,0,2.418-0.077,2.418-2.746V17.438
		C137.252,10.998,133.163,7.154,126.315,7.154z M130.956,21.658h1.133v1.24c0,4.536-2.889,7.467-7.357,7.467
		c-1.213,0-5.172-0.282-5.172-3.918C119.559,22.154,126.063,21.658,130.956,21.658z"/>
	<path fill="#FFFFFF" d="M151.272,12.319c2.355,0,2.475-1.833,2.475-2.2c0-1.09-0.65-2.255-2.475-2.255h-4.844V2.965
		c0-2.188-1.42-2.965-2.637-2.965c-0.449,0-2.691,0.143-2.691,2.965V26.23c0,5.369,2.648,8.207,7.66,8.207
		c1.297,0,2.561-0.229,3.387-0.614c0.947-0.473,1.49-1.25,1.49-2.132c0-1.244-0.902-2.146-2.146-2.146
		c-0.24,0-0.582,0.06-0.959,0.168c-0.461,0.115-0.773,0.16-1.115,0.16c-2.039,0-2.988-1.331-2.988-4.189V12.319H151.272z"/>
	<path fill="#FFFFFF" d="M169.075,7.154c-8.143,0-14.051,5.771-14.051,13.723c0,3.871,1.432,7.399,4.029,9.935
		c2.578,2.515,6.137,3.899,10.021,3.899c8.041,0,14.105-5.947,14.105-13.834C183.18,12.926,177.247,7.154,169.075,7.154z
		 M169.075,30.146c-5.584,0-8.504-4.663-8.504-9.27c0-6.33,4.408-9.213,8.504-9.213s8.504,2.883,8.504,9.213
		C177.579,27.246,173.17,30.146,169.075,30.146z"/>
</g>
</svg>
