<?xml version="1.0" encoding="utf-8"?>
<!-- Generator: Adobe Illustrator 16.0.0, SVG Export Plug-In . SVG Version: 6.00 Build 0)  -->
<!DOCTYPE svg PUBLIC "-//W3C//DTD SVG 1.1//EN" "http://www.w3.org/Graphics/SVG/1.1/DTD/svg11.dtd">
<svg version="1.1" id="Слой_1" xmlns="http://www.w3.org/2000/svg" xmlns:xlink="http://www.w3.org/1999/xlink" x="0px" y="0px"
	 width="199.979px" height="199.962px" viewBox="0 0 199.979 199.962" enable-background="new 0 0 199.979 199.962"
	 xml:space="preserve">
<g>
	<defs>
		<rect id="SVGID_1_" width="199.979" height="199.962"/>
	</defs>
	<clipPath id="SVGID_2_">
		<use xlink:href="#SVGID_1_"  overflow="visible"/>
	</clipPath>
	<path clip-path="url(#SVGID_2_)" fill="#FF9D00" d="M133.1,147.202l-5.119,16.6l27.84,12.16l-11.88-48.18
		C141.13,134.652,137.92,142.082,133.1,147.202z M135.23,83.382c10.06-0.06,17.88,6.57,17.59,16.76c0.06,3.33-0.641,6.68-1.7,9.97
		l34.11-35.271l-57.351-5.65c-1.649-0.18-3.12-1.18-3.82-2.65l-24.77-51.52l-7.42,14.59c7.7,1.9,14.25,8.15,14.25,18.7
		c-0.12,9.15-0.57,18.3-0.86,27.44C115.6,67.442,130.81,70.272,135.23,83.382 M43.26,106.972c-2.19-11.49-4.37-22.99-6.55-34.48
		l-22.42,2.35l29.12,32.95L43.26,106.972z M38.35,175.021l6.55-2.67c1.7-0.689,3.36-2.09,5.05-3.13
		c1.03-0.819,2.31-1.319,3.69-1.319h1.19l-5.8-30.54L38.35,175.021"/>
	<path clip-path="url(#SVGID_2_)" fill="#FFCE13" d="M199.7,69.612l0.12,0.34L199.7,69.612z M199.7,69.612
		C199.41,68.782,199.55,69.202,199.7,69.612 M199.7,69.612c-0.59-1.65-2.181-2.82-3.94-3l-64.24-6.35l-27.64-57.65
		c-1.62-3.37-6.73-3.53-8.47-0.18l-14.17,27.28c0.82-0.22,1.65-0.39,2.49-0.5c2.36-0.39,4.76-0.33,7.1,0.19
		c0.29,0.06,0.58,0.12,0.87,0.19l0.16,0.04l7.42-14.59l24.76,51.53c0.71,1.47,2.18,2.47,3.82,2.65l57.35,5.65l-34.11,35.27
		c-1.359,4.25-3.3,8.391-4.949,12.261c-0.73,1.72-1.471,3.55-2.23,5.409l11.88,48.181l-27.84-12.16c-0.42,1.37-0.84,2.74-1.27,4.1
		h6.17c3.25,0,6,2.75,6,6H138.8v4.75l21.88,9.55c3.46,1.57,7.49-1.539,6.59-5.289l-14.939-60.65l46.35-47.88
		C199.94,73.082,200.29,71.252,199.7,69.612z M43.41,107.792l-29.12-32.95l22.42-2.35c-0.58-3.07-1.19-6.03-1.38-9.15l-30.92,3.27
		c-3.62,0.36-5.53,4.73-3.06,7.59l42.24,47.88l-16.94,59.649c-1.14,3.681,2.92,7,6.35,5.53l14.65-5.979v-7.38
		c0-0.24,0.02-0.471,0.05-0.71l0.04-0.271l0.08-0.39l0.09-0.351l0.06-0.18c0.13-0.38,0.29-0.76,0.49-1.1l-10.11,4.109l10.68-37.66
		C47.16,127.502,45.29,117.652,43.41,107.792"/>
	<path clip-path="url(#SVGID_2_)" fill="#373737" d="M135.23,83.382c-4.421-13.1-19.631-15.94-29.98-7.62
		c0.3-9.14,0.74-18.29,0.86-27.44c0-10.55-6.54-16.8-14.25-18.7l-0.16-0.04c-0.29-0.07-0.58-0.13-0.87-0.19
		c-2.33-0.45-4.75-0.51-7.1-0.19c-0.84,0.12-1.68,0.29-2.49,0.5c-7.42,1.97-13.66,8.06-13.83,18.31l-0.06,0.48
		c-0.43-0.44-0.89-0.85-1.35-1.24c-0.18-0.15-0.36-0.3-0.55-0.44l-0.38-0.29l-0.35-0.25c-0.2-0.14-0.41-0.28-0.62-0.41l-0.09-0.05
		c-4-2.5-8.74-3.26-13.21-2.41c-4.73,0.92-9.12,3.63-12.02,7.82c-0.21,0.31-0.41,0.61-0.6,0.92l-0.2,0.35
		c-3.67,6.34-2.6,13.04-1.28,20l6.55,34.48l0.1,0.55l0.05,0.271c1.22,6.43,2.44,12.86,3.66,19.28l1.95,10.279l5.8,30.54h-1.19
		c-1.38,0-2.67,0.5-3.69,1.32c-0.9,0.72-1.6,1.69-1.98,2.79l-0.06,0.18l-0.09,0.351l-0.08,0.39l-0.04,0.271
		c-0.03,0.229-0.05,0.47-0.05,0.71v20.06c0,3.29,2.71,6,6,6h79.18c3.29,0,6-2.71,6-6v-20.06h0.061c0-3.25-2.75-6-6-6h-6.17
		l1.27-4.101l5.12-16.6c0.19-0.2,0.38-0.431,0.59-0.681c4.49-5.079,7.561-12.159,10.261-18.739c0.76-1.86,1.5-3.69,2.229-5.41
		c1.64-3.87,3.59-8.01,4.95-12.26c1.05-3.29,1.76-6.641,1.7-9.97C153.11,89.942,145.29,83.312,135.23,83.382z"/>
	<path clip-path="url(#SVGID_2_)" fill="#ECEFF0" d="M122.82,177.902c-9.03,0-9.03,14,0,14
		C131.85,191.902,131.85,177.902,122.82,177.902"/>
	<path clip-path="url(#SVGID_2_)" fill="#FFE994" d="M37.74,52.902l0.24-0.42l0.2-0.35c0.19-0.31,0.39-0.62,0.6-0.92
		c2.9-4.19,7.29-6.9,12.02-7.82c4.43-0.86,9.15-0.14,13.21,2.41l0.09,0.05l0.62,0.41l0.35,0.25l0.38,0.29l0.55,0.44l0.1,0.08
		l10.37-41.48l-58.83,47.06H37.74z M123.52,5.842l11.771,47.06h47.06L123.52,5.842z M16.58,167.842l20.18-44.11L0,94.372
		L16.58,167.842z M157.35,123.432l20.23,44.12l16.53-73.47L157.35,123.432z"/>
	<path clip-path="url(#SVGID_2_)" fill="#E6E7E8" d="M119.05,152.372c-7.229-0.21-13.03-3.891-15.76-9.4
		c-7.06,0.721-26.72,6.44-31.51-0.649c12.59-1.65,25.21-3.08,37.8-4.71c0.34-0.021,0.67-0.061,1-0.091l0.27-0.029l0.761-0.101
		l0.229-0.04c0.29-0.05,0.57-0.1,0.851-0.159l0.069-0.021c8.3-1.71,15.561-7.729,14.561-16.85c-0.04-0.33-0.08-0.66-0.141-0.99
		l-0.16-0.82c-1.01-4.939-3.229-7.93-6.199-9.77c-4.73-2.92-11.351-2.91-18.011-3.16l-3.55-0.14c-0.81-0.03-1.61-0.061-2.42-0.101
		c-6.31-0.26-12.62-0.55-18.93-0.84c-4.87-0.23-9.75-0.46-14.63-0.66c1.41-1.95,3.79-3.06,6.18-3.06
		c9.09,0.18,18.18,0.541,27.27,0.82c7.31,0.23,16.18-0.76,22.96,2.471l9.859-16.43c-0.609-10.72-12.56-14.8-20.09-7.27
		c-4.93,4.82-8.93,10.88-11.64,17.21c0.57-16.93,1.39-33.87,1.7-50.8c0-16.15-25.06-16.22-25.06,0c-0.9,12.98-1.8,25.96-2.7,38.95
		c-0.06,0.91-1.2,0.77-1.35,0.12l-6-26.53l-0.18,0.06c-0.08-0.47-0.18-0.92-0.29-1.35l-0.12-0.38c-0.09-0.3-0.18-0.59-0.29-0.87
		l-0.15-0.34c-0.12-0.28-0.24-0.56-0.37-0.82l-0.13-0.22c-0.16-0.29-0.32-0.58-0.5-0.84l-0.06-0.08c-3.14-4.58-9.17-5.76-14.12-4.03
		l-0.2,0.07l-0.38,0.15c-4.32,1.74-7.67,5.76-7.21,11.73l0.02,0.31l0.09,0.63l-0.18,0.06l20.56,104.53h60.581
		c1.76-5.529,3.52-11.06,5.289-16.59c-2.119,0.771-4.359,1.061-6.609,1.061h-1.11V152.372z M148.46,99.412l-0.04-0.54l-0.01-0.09
		c-0.43-4.2-3.29-7.26-7.24-8.43c-0.939-0.28-1.939-0.46-2.99-0.51l1.33,0.07c1.04,0.05,1.98,0.1-0.01,0l-1.34-0.07h-0.021
		c-1.939-0.09-3.989,0.05-5.779,0.88l-9.271,15.45c7.84,6.09,10.78,17.81,5.01,26.28c-0.25,0.37-0.52,0.729-0.79,1.08
		c-0.149,0.18-0.3,0.359-0.46,0.529l-0.399,0.471l-0.54,0.55l-0.38,0.39l-0.58,0.51l-0.4,0.351l-0.569,0.439l-0.471,0.36l-0.49,0.33
		l-0.6,0.4l-0.37,0.22c-0.25,0.149-0.5,0.31-0.76,0.45l-0.21,0.109c-0.32,0.17-0.64,0.34-0.96,0.5l-0.021,0.011
		c-0.75,0.369-1.529,0.699-2.31,1.01l-0.13,0.05c-0.74,0.28-1.5,0.53-2.26,0.76l-0.301,0.09c-0.72,0.21-1.439,0.391-2.17,0.561
		l-0.399,0.09c-0.73,0.16-1.46,0.29-2.19,0.41l-0.33,0.06c0.16,0.271,0.34,0.53,0.53,0.78l0.05,0.06
		c0.98,1.271,2.22,2.221,3.62,2.891c2.18,1.05,4.73,1.43,7.15,1.34c6.76-0.26,9.62-6.69,12.47-11.85c0.25-0.45,0.51-0.91,0.76-1.37
		c5.33-9.521,12.021-20.65,13.63-31.561c0.11-0.729,0.2-1.45,0.261-2.17C148.48,100.012,148.47,99.712,148.46,99.412z"/>
</g>
</svg>
