<?xml version="1.0" encoding="utf-8"?>
<!-- Generator: Adobe Illustrator 16.0.0, SVG Export Plug-In . SVG Version: 6.00 Build 0)  -->
<!DOCTYPE svg PUBLIC "-//W3C//DTD SVG 1.1//EN" "http://www.w3.org/Graphics/SVG/1.1/DTD/svg11.dtd">
<svg version="1.1" id="Слой_1" xmlns="http://www.w3.org/2000/svg" xmlns:xlink="http://www.w3.org/1999/xlink" x="0px" y="0px"
	 width="199.347px" height="200.182px" viewBox="0 0 199.347 200.182" enable-background="new 0 0 199.347 200.182"
	 xml:space="preserve">
<g>
	<defs>
		<rect id="SVGID_1_" width="199.347" height="200.182"/>
	</defs>
	<clipPath id="SVGID_2_">
		<use xlink:href="#SVGID_1_"  overflow="visible"/>
	</clipPath>
	<path clip-path="url(#SVGID_2_)" fill="#FFCE13" d="M148.043,12.157l-2.259,33.064l0.509,3.752
		c0.123,0.316,0.269,0.615,0.375,0.936c2.406-0.48,4.741-1.03,7.147-1.58h0.069c3.231-2.195,6.526-3.436,9.962-3.57
		c8.382-0.41,12.433,3.506,14.358,6.801c4.741,8.177,1.165,20.884-2.886,27.27c-7.422,11.613-21.089,19.854-38.813,23.424
		c-3.512,3.845-7.703,7.135-12.373,9.792c16.74,4.442,32.972,12.965,33.737,13.369c0.339,0.181,0.603,0.438,0.854,0.701l2.628-0.286
		c1.82-0.229,3.576,1.152,3.794,3.044c0.151,1.369-0.538,2.622-1.646,3.295l10.998,19.15c1.083,1.886,0.673,4.057-0.661,5.484
		l0.006,0.012c0.48,0.872,0.907,1.773,1.358,2.657c15.019-16.875,24.144-38.865,24.144-62.927
		C199.334,60.24,178.626,28.645,148.043,12.157z M57.981,101.429c-11.197-2.745-26.45-8.932-35.101-22.599
		c-3.986-6.251-7.556-18.753-3.09-26.995c1.785-3.231,5.566-7.076,13.462-7.076h1.03c2.95,0.135,5.701,0.954,8.376,2.33
		c1.557,0.404,4.601,1.147,8.897,2.025l0.421-2.809c0.029-0.603,0.217-1.153,0.421-1.692l-0.123-0.638l-3.325-30.436
		C19.679,30.36,0,61.188,0,96.553c0,24.372,9.347,46.607,24.724,63.594l4.226-13.556c0.064-0.211,0.187-0.386,0.281-0.585
		c-0.591-0.544-1.001-1.288-1.095-2.148c-0.211-1.885,1.153-3.576,3.038-3.787l2.616-0.287
		c10.951-14.62,30.214-23.447,40.831-27.438c-4.811-2.646-9.248-5.964-13.006-10.021L57.981,101.429"/>
	<path clip-path="url(#SVGID_2_)" fill="#ABABAB" d="M111.438,131.292l13.198-11.971c-2.634-0.761-5.285-1.439-7.89-1.948
		c-0.831-0.164-1.504-0.645-1.996-1.265c-1.223,0.398-2.4,0.884-3.67,1.194c-9.313,2.265-18.636,1.803-27.153-0.866
		c-0.392,0.111-3.611,1.077-8.306,2.927l15.119,14.206L111.438,131.292z"/>
	<path clip-path="url(#SVGID_2_)" fill="#E6D0BA" d="M68.534,135.985c-3.178-2.827-5.771-6.087-7.673-9.692
		c-0.55,0.304-1.089,0.597-1.639,0.913l7.357,8.989L68.534,135.985z M76.594,135.102L65.52,123.835
		c-1.528,0.761-3.079,1.58-4.659,2.452c1.896,3.605,4.495,6.865,7.673,9.692L76.594,135.102z"/>
	<path clip-path="url(#SVGID_2_)" fill="#ABABAB" d="M82.799,99.017c2.698,2.025,5.9,3.336,9.734,3.096
		c1.51-0.069,2.54-0.685,2.815-3.02l0.047-0.591l-6.438-2.06L82.799,99.017z M102.295,98.625c0.047,0.31,0.07,0.691,0.135,0.948
		c0.551,1.99,1.785,2.47,3.161,2.54c3.869,0.24,7.123-1.1,9.857-3.172l-6.076-2.575L102.295,98.625 M101.874,80.199h-0.685
		c-9.066-0.135-26.311-1.651-40.188-10.577c-0.48-0.205-0.96-0.62-1.51-1.03h-0.205l-1.375-1.165
		c0.181,3.471,0.597,6.848,1.51,8.446c2.201,3.916,9.617,3.711,11.542,6.321c0.825,1.03,2.265,4.601,4.601,8.452
		c0.62,0.96,1.305,2.06,2.06,3.02l0.521,0.661c2.809-3.524,7.123-7.147,13.562-8.745c2.131-0.48,4.466,2.06,7.006,1.926h0.48
		c2.886,0.205,5.565-2.265,7.901-1.715c6.1,1.633,10.243,5.057,12.988,8.417l0.474-0.609c0.825-1.03,1.511-2.131,2.132-3.161
		c2.335-3.781,3.711-7.211,4.466-8.241c1.926-2.61,9.342-2.406,11.542-6.321c0.72-1.27,1.136-3.664,1.363-6.333
		c-0.854,0.486-1.674,0.972-2.604,1.457C125.023,77.314,114.721,79.924,101.874,80.199"/>
	<path clip-path="url(#SVGID_2_)" fill="#635647" d="M141.511,68.727l-0.082,0.047c-0.421,0.258-0.919,0.509-1.37,0.767
		c-0.228,2.669-0.644,5.063-1.363,6.333c-2.201,3.916-9.617,3.711-11.542,6.321c-0.755,1.03-2.131,4.466-4.467,8.241
		c-0.619,1.03-1.305,2.131-2.131,3.161l-0.474,0.609c1.059,1.294,1.932,2.575,2.604,3.746c0.907,1.557,1.487,2.868,1.826,3.787
		l0.023,0.06c1.744-1.312,3.453-2.868,5.11-4.636c1.609-1.692,3.078-3.506,4.39-5.426l0.41-0.597
		c1.568-2.353,3.055-4.881,4.319-7.843c0,0,2.452-6.596,2.821-14.609L141.511,68.727z M78.151,94.329l-0.521-0.661
		c-0.755-0.96-1.44-2.06-2.06-3.02c-2.335-3.845-3.781-7.422-4.601-8.452c-1.926-2.61-9.342-2.406-11.542-6.321
		c-0.907-1.598-1.329-4.975-1.51-8.446c0,0-0.135-0.07-0.275-0.205c-0.339-0.275-0.615-0.48-0.954-0.819l-0.006-0.006l-0.263-0.217
		c-0.234,8.458,2.253,15.329,2.253,15.329c2.833,10.021,8.692,16.553,14.984,20.831l0.158-0.445c0.31-0.872,0.86-2.16,1.756-3.734
		C76.225,96.969,77.086,95.657,78.151,94.329 M120.563,101.107l-5.121-2.166c-2.733,2.072-5.982,3.412-9.857,3.172
		c-1.375-0.069-2.61-0.55-3.161-2.54c-0.063-0.258-0.088-0.638-0.135-0.948l-0.246,0.076c-1.235-1.1-2.646-2.745-3.055-4.05
		c-0.345,1.375-2.294,2.769-3.529,3.869l-0.064-0.018l-0.047,0.591c-0.275,2.335-1.305,2.956-2.815,3.02
		c-3.834,0.24-7.035-1.077-9.734-3.096l-5.174,2.166l-3.014,1.258l-0.521,0.217c8.376,5.537,17.407,7.112,21.054,7.498v0.07
		c0,0,0.345,0,0.96,0.07c0.48,0.069,0.755,0.069,0.755,0.069v-0.069c1.165,0.069,2.745,0.069,4.396,0v0.069c0,0,0.62,0,1.785-0.135
		c0.275-0.07,0.55-0.07,0.825-0.07c0.685-0.069,1.439-0.204,2.335-0.345c2.704-0.503,6.339-1.563,10.243-3.33l0.585-0.269
		c1.023-0.48,2.019-1.001,2.99-1.558c0.398-0.228,0.797-0.491,1.194-0.736c0.825-0.503,1.646-0.932,2.464-1.517l-0.059-0.034
		L120.563,101.107z"/>
	<path clip-path="url(#SVGID_2_)" fill="#373634" d="M90.735,133.556l-15.119-14.205c-2.927,1.147-6.392,2.646-10.097,4.483
		l11.074,11.267L90.735,133.556z M123.033,130.021c4.203-1.838,8.657-4.167,12.561-7.006c-3.477-1.323-7.192-2.605-10.957-3.693
		l-13.198,11.971L123.033,130.021z"/>
	<path clip-path="url(#SVGID_2_)" fill="#38322B" d="M124.543,101.792l-0.023-0.06c-0.345-0.919-0.919-2.23-1.825-3.787
		c-0.667-1.165-1.539-2.452-2.605-3.746c-2.751-3.354-6.895-6.778-12.988-8.417c-2.335-0.55-5.016,1.926-7.901,1.715h-0.48
		c-2.54,0.135-4.876-2.406-7.006-1.926c-6.433,1.598-10.746,5.221-13.562,8.745c-1.059,1.329-1.926,2.64-2.581,3.828
		c-0.901,1.574-1.446,2.862-1.756,3.734l-0.158,0.444c-0.076,0.246-0.129,0.451-0.146,0.563l0.585-0.246l0.521-0.217l3.014-1.258
		L82.804,99l6.163-2.575l6.438,2.06l0.064,0.018c1.235-1.1,3.184-2.493,3.529-3.869c0.41,1.305,1.82,2.95,3.055,4.05l0.246-0.076
		l7.071-2.253l6.076,2.575l5.121,2.166l3.055,1.258l0.07,0.029l1.206,0.498C124.865,102.722,124.73,102.307,124.543,101.792"/>
	<path clip-path="url(#SVGID_2_)" fill="#A37C49" d="M140.498,57.905l-0.188,0.029l-0.034,0.006l-0.023,0.006
		c-12.221,2.06-24.987,3.02-38.034,3.02c-17.77,0-33.134-1.779-44.261-3.699l-0.047-0.006h-0.018l-0.076-0.018l-1.621-0.263
		l1.235,1.1l0.158,0.117l0.117,0.088l0.029,0.029l0.117,0.1c1.323,1.188,2.651,2.318,3.974,3.313h0.07l0.96,0.755
		c0.55,0.48,1.1,0.96,1.651,1.235c13.123,8.452,30.091,9.546,36.752,9.617l0.369,0.176l0.111-0.176
		c11.747-0.205,21.159-2.681,32.561-8.516c2.248-1.124,4.145-2.166,6.023-3.477l0.567-0.363l0.007-0.006l0.252-0.187
		c1.428-1.001,2.867-2.23,4.488-3.728C143.923,57.378,142.213,57.641,140.498,57.905z M58.848,40.825l7.551-0.047l33.322-0.199
		l31.665-0.187l7.837-0.047l0.234-3.459l1.902-27.949C128.669,3.254,114.575,0,99.667,0C83.782,0,68.821,3.693,55.494,10.091
		l2.95,27.047L58.848,40.825z"/>
	<path clip-path="url(#SVGID_2_)" fill="#373737" d="M178.198,51.554c-1.926-3.295-5.977-7.211-14.358-6.801
		c-3.436,0.135-6.73,1.375-9.962,3.57h-0.07c-2.405,0.55-4.74,1.1-7.146,1.58c-0.105-0.322-0.252-0.62-0.375-0.937l-0.509-3.752
		l2.259-33.064c-1.095-0.591-2.218-1.112-3.336-1.662c-1.101-0.544-2.218-1.054-3.336-1.557l-1.902,27.949l-0.234,3.459
		l-7.837,0.047l-31.665,0.187l-33.322,0.199l-7.551,0.047l-0.404-3.687l-2.956-27.041c-1.089,0.521-2.224,0.977-3.289,1.534
		c-1.118,0.585-2.16,1.282-3.248,1.908l3.325,30.436c0.023,0.222,0.082,0.421,0.117,0.638c-0.211,0.544-0.398,1.095-0.427,1.697
		l-0.416,2.809c-4.296-0.878-7.34-1.621-8.897-2.025c-2.675-1.375-5.426-2.195-8.376-2.335h-1.036
		c-7.902,0-11.677,3.845-13.462,7.076c-4.466,8.241-0.896,20.743,3.09,26.995c8.657,13.673,23.904,19.854,35.101,22.599l3.641,0.896
		c3.758,4.057,8.194,7.375,13.006,10.021c-10.623,3.998-29.88,12.824-40.831,27.438l4.975-0.544l5.133-0.562
		c1.738-1.728,3.588-3.354,5.531-4.876c3.143-2.458,6.468-4.671,9.786-6.597c0.55-0.321,1.095-0.608,1.639-0.912
		c1.574-0.879,3.131-1.697,4.659-2.452c3.705-1.838,7.17-3.336,10.097-4.483c4.7-1.844,7.919-2.809,8.306-2.927
		c8.522,2.669,17.846,3.137,27.153,0.866c1.27-0.311,2.446-0.796,3.67-1.194c0.492,0.62,1.165,1.1,1.996,1.264
		c2.604,0.51,5.256,1.188,7.89,1.949c3.764,1.089,7.48,2.371,10.957,3.693l0.339,0.129l1.312,0.509
		c3.37,1.323,6.449,2.646,9.065,3.828l1.159-0.129l7.047-0.773l4.208-0.462c-0.252-0.263-0.515-0.521-0.854-0.702
		c-0.768-0.403-16.997-8.932-33.737-13.369c4.671-2.656,8.862-5.946,12.373-9.792c17.723-3.569,31.396-11.816,38.812-23.423
		C179.363,72.438,182.934,59.731,178.198,51.554z M28.645,75.119c-3.506-5.496-5.496-15.042-2.815-19.988
		c1.305-2.341,3.711-3.506,7.416-3.506h0.691c1.756,0.117,3.377,0.568,5.086,1.352l-0.053,0.164l1.159,0.328
		c2.944,1.446,5.83,3.641,8.645,6.117v0.07c-0.55,3.161-0.755,6.456-0.62,9.822c-0.275,3.161-0.205,6.456,0.205,9.687
		c0.205,1.785,0.62,3.57,1.1,5.701c0.62,2.54,1.446,5.08,2.54,7.556C43.553,89.336,34.346,84.045,28.645,75.119 M57.817,57.243
		l0.076,0.012h0.018l0.047,0.006c11.127,1.92,26.491,3.699,44.261,3.699c13.041,0,25.813-0.96,38.034-3.02l0.023-0.006l0.034-0.006
		l0.188-0.029c1.709-0.263,3.424-0.527,5.133-0.855c-1.627,1.493-3.061,2.722-4.489,3.728l-0.252,0.187l-0.006,0.006l-0.567,0.363
		c-1.88,1.311-3.775,2.353-6.023,3.477c-11.402,5.841-20.814,8.311-32.561,8.516l-0.111,0.176l-0.369-0.176
		c-6.661-0.07-23.629-1.165-36.752-9.617c-0.55-0.275-1.1-0.755-1.651-1.235l-0.96-0.755h-0.07
		c-1.323-0.995-2.651-2.125-3.974-3.313l-0.117-0.1l-0.023-0.018l-0.117-0.088l-0.158-0.117l-1.235-1.1L57.817,57.243
		 M138.766,83.29c-1.264,2.962-2.751,5.496-4.319,7.843l-0.41,0.597c-2.892,4.191-6.14,7.545-9.494,10.063
		c0.187,0.509,0.322,0.931,0.351,1.1l-1.206-0.498c-0.824,0.585-1.645,1.013-2.464,1.516c-0.397,0.246-0.79,0.504-1.193,0.737
		c-1.019,0.579-2.002,1.089-2.991,1.558l-0.585,0.269c-3.904,1.773-7.539,2.827-10.243,3.33c-0.896,0.135-1.651,0.275-2.335,0.345
		c-0.275,0-0.55,0-0.825,0.07c-1.171,0.135-1.785,0.135-1.785,0.135v-0.07c-1.65,0.07-3.23,0.07-4.396,0v0.07
		c0,0-0.275,0-0.755-0.07c-0.62-0.069-0.96-0.069-0.96-0.069v-0.07c-3.646-0.386-12.678-1.961-21.054-7.498l-0.585,0.246
		c0.018-0.111,0.07-0.31,0.146-0.562C67.369,98.05,61.51,91.518,58.677,81.498c0,0-2.493-6.872-2.253-15.329l0.263,0.217
		l0.006,0.006c0.339,0.339,0.615,0.544,0.954,0.819c0.135,0.135,0.275,0.205,0.275,0.205l1.37,1.165h0.205
		c0.55,0.41,1.03,0.825,1.51,1.03c13.878,8.932,31.121,10.442,40.188,10.577h0.685c12.848-0.275,23.149-2.886,35.587-9.207
		c0.925-0.486,1.75-0.972,2.605-1.457c0.444-0.258,0.947-0.509,1.37-0.767l0.082-0.047l0.075-0.041
		C141.218,76.693,138.766,83.29,138.766,83.29 M169.542,75.119c-6.456,10.032-17.173,15.458-26.655,18.408
		c5.427-9.066,7.966-19.854,6.802-30.846c2.405-2.265,5.221-5.081,8.656-8.996l0.205-0.205c1.926-1.235,3.711-1.785,5.566-1.855
		c4.121-0.205,6.661,0.896,8.106,3.366C175.102,59.866,173.112,69.553,169.542,75.119z"/>
	<path clip-path="url(#SVGID_2_)" fill="#E6D8CA" d="M48.4,179.234l-21.662,8.546v11.238h27.158v-16.81
		C52.029,181.265,50.197,180.276,48.4,179.234z M48.4,179.234c1.797,1.042,3.629,2.031,5.496,2.974v-5.14L48.4,179.234z"/>
	<polygon clip-path="url(#SVGID_2_)" fill="#E6B07A" points="112.72,196.905 106.65,192.766 72.743,169.629 60.803,174.371 
		60.744,174.371 60.744,199.012 113.422,199.012 	"/>
	<path clip-path="url(#SVGID_2_)" fill="#614626" d="M43.905,138.678l1.61-0.176l21.065-2.307l-7.357-8.989
		c-3.319,1.926-6.643,4.138-9.786,6.596C47.493,135.324,45.643,136.951,43.905,138.678 M52.005,92.427
		c-1.1-2.476-1.926-5.016-2.54-7.556c-0.48-2.131-0.896-3.916-1.1-5.701c-0.41-3.231-0.48-6.526-0.205-9.687
		c-0.135-3.366,0.07-6.661,0.62-9.822v-0.07c-2.821-2.482-5.701-4.671-8.651-6.117L38.97,53.14l0.047-0.164
		c-1.703-0.784-3.33-1.235-5.08-1.352h-0.691c-3.711,0-6.117,1.171-7.422,3.506c-2.681,4.946-0.685,14.492,2.815,19.988
		C34.346,84.045,43.553,89.336,52.005,92.427 M169.542,75.119c3.57-5.566,5.566-15.247,2.681-20.129
		c-1.439-2.47-3.985-3.57-8.106-3.366c-1.855,0.07-3.642,0.62-5.566,1.855l-0.205,0.205c-3.436,3.916-6.251,6.731-8.656,8.996
		c1.171,10.992-1.375,21.774-6.802,30.846C152.369,90.571,163.086,85.145,169.542,75.119z M174.482,151.321l-10.998-19.15
		c-0.416,0.252-0.878,0.438-1.394,0.492l-0.9,0.1l-0.784,0.088l0.17,2.236l0.526,6.977l0.264,3.478l-7.527,0.679l-0.831-11.092
		l-0.11-1.457l-3.079,0.339l0.063,1.135l0.942,16.494l-7.527,0.901l-0.977-17.354l-0.019-0.356l-2.979,0.321l0.006,0.047
		l0.966,12.742l-7.527,0.679l-0.947-12.648l-3.822,0.416l-6.573,0.72l-18.647,2.043l-0.533,0.06l0.053,0.375l0.06,0.433l0.468,3.395
		l0.433,3.138l0.041,0.315l0.938,6.784l0.222,1.599l-2.148,0.258l-5.068,0.608l-17.776,2.143l-0.462-7.645l-0.111-1.879
		l-0.006-0.129v-0.012c-2.821,0.849-6.005,1.908-9.453,3.202c-2.891,1.083-5.958,2.341-9.131,3.78
		c-6.749,3.062-13.954,6.931-20.966,11.864l-2.008-3.371c0,0,11.987-9.429,32.192-16.336c2.88-0.982,5.941-1.908,9.148-2.757
		l-0.088-1.457l-0.059-1.007l-0.041-0.697l-1.112,0.123l-10.296,1.13c-8.832,3.605-20.808,8.674-31.016,13.604l-1.896,0.925
		l-2.973,9.031l-3.418,10.378l-0.076,0.228l-0.445,0.029l-4.074,0.269l4.378-14.41l2.85-9.377c0,0,3.395-1.645,8.294-3.875
		c3.254-1.486,7.164-3.225,11.22-4.928l-9.254,1.013l-8.727,0.954l-0.38,0.019c-0.884,0-1.697-0.345-2.312-0.913
		c-0.094,0.199-0.217,0.375-0.281,0.585l-4.238,13.55l-6.831,21.902c-0.211,0.667-0.217,1.305-0.146,1.914l2.084-0.814l21.528-8.505
		l12.537-4.952l3.395-1.346l3.512-1.405l0.293-0.117l10.828-4.272c0.176-0.064,0.345-0.053,0.521-0.064
		c0.164-0.035,0.31-0.123,0.486-0.129l33.754-2.154c5.502-0.673,11.203-1.299,16.805-1.86c1.171-0.117,2.341-0.234,3.453-0.352
		c1.171-0.116,2.282-0.233,3.395-0.293c15.54-1.451,29.688-2.487,36.968-2.99c3.278-0.229,5.174-0.346,5.174-0.346
		c0.469,0.814,0.932,1.633,1.341,2.447C175.155,155.372,175.57,153.206,174.482,151.321z M83.325,142.125l0.211,1.668l1.305-0.305
		c0.615-0.129,1.241-0.252,1.867-0.375l-0.246-1.604l-0.088-0.568l-3.155,0.346l0.082,0.638L83.325,142.125z M84.18,148.968
		l0.41,3.266l7.755-1.105l4.893-0.697l-0.363-3.389l-0.029-0.252l-0.339-3.202l-0.363-3.396l-0.035-0.315l-4.349,0.474l0.047,0.299
		l0.521,3.313l0.404,2.552l0.146,0.913l0.14,0.884l-3.096,0.345l-2.324,0.259l-0.1-0.656l-0.293-1.914
		c-0.948,0.222-2.013,0.479-3.248,0.802L84.18,148.968z"/>
	<path clip-path="url(#SVGID_2_)" fill="#543D21" d="M167.505,158.567l0.931-0.211l3.167-0.726l0.177,0.462v0.006
		c0.263,0.62,0.772,1.855,1.428,3.553c2.663,6.924,7.861,21.851,9.927,37.36h5.561c-2.365-11.098-6.567-25.994-13.51-39.544
		c-0.457-0.884-0.884-1.785-1.357-2.657l-0.006-0.012c-0.41-0.814-0.872-1.633-1.34-2.447c0,0-1.896,0.117-5.175,0.345
		c-7.287,0.503-21.428,1.539-36.968,2.991c-1.112,0.06-2.224,0.176-3.395,0.293c-1.112,0.117-2.283,0.234-3.453,0.352
		c-5.602,0.567-11.302,1.188-16.805,1.86l16.805-1.07l3.453-0.223l3.395-0.217l1.147-0.076c1.756-0.1,3.031,0.966,3.459,2.452
		c0.069,0.252,0.176,0.486,0.192,0.755c0.123,1.892-1.316,3.524-3.208,3.646l-1.586,0.1l-3.395,0.217L123.495,166l-2.915,0.187
		c0.884,0.831,1.867,1.879,2.915,3.126c1.1,1.312,2.259,2.874,3.453,4.718c0.533,0.825,1.064,1.64,1.604,2.581
		c0,0-0.591-0.403-1.604-1.064c-0.866-0.563-2.061-1.317-3.453-2.166c-3.325-2.025-7.867-4.606-12.373-6.591l-2.148,0.146
		c2.16,2.107,4.829,5.256,7.533,9.985c0,0-8.212-5.613-16.522-9.412l-16.646,1.064l0.006,0.007l33.784,22.968l0.398,0.269
		c0.644,0.41,1.111,1.055,1.346,1.756l1.873,5.443h3.044l-0.293-0.644l-3.342-7.369l-4.678-10.308l6.79-3.277l1.229,2.691
		l3.453,7.609l0.679,1.498l2.716,5.994l0.645,1.404l-0.645,0.352l-3.395,1.813l-0.468,0.234h8.546l-4.508-9.892l5.917-2.856
		l0.872-0.421l0.035,0.076l5.994,13.093h10.771c-0.989-5.391-2.635-11.853-5.017-18.736c-1.416-4.097-3.032-8.311-5.109-12.637
		c0.498,0.591,3.991,4.753,8.019,10.945c3.576,5.508,7.574,12.607,10.301,20.427h14.574c-1.007-9.675-3.272-22.025-8.212-32.871
		c-1.1-2.411-2.283-4.776-3.67-6.989l2.417-0.562L167.505,158.567z M146.732,181.64l3.541,7.761l-6.685,3.57l-3.733-8.194
		l-5.146-11.291l6.795-3.289L146.732,181.64z"/>
	<path clip-path="url(#SVGID_2_)" fill="#966F4B" d="M127.622,189.214l-0.679-1.499l-3.454-7.609l-1.229-2.691l-6.789,3.276
		l4.677,10.314l3.342,7.362l0.293,0.645h2.691l0.47-0.234l3.394-1.814l0.645-0.352l-0.645-1.404L127.622,189.214z M137.303,185.842
		l-0.872,0.422l-5.918,2.856l4.507,9.892h8.312l-5.993-13.088L137.303,185.842z M146.732,181.64l-5.222-11.437l-6.795,3.288
		l5.14,11.291l3.733,8.194l6.685-3.57L146.732,181.64z"/>
	<path clip-path="url(#SVGID_2_)" fill="#9C734D" d="M169.922,164.988c-0.41,0.398-0.843,0.768-1.264,1.153
		c4.939,10.852,7.211,23.202,8.212,32.871h6.263c-2.065-15.511-7.264-30.437-9.927-37.36
		C172.135,162.788,171.046,163.905,169.922,164.988 M171.778,158.098c-0.363,0.117-0.743,0.211-1.147,0.252l-2.154,0.164
		c0.592,2.125,1.101,4.273,1.446,6.479c1.124-1.083,2.212-2.2,3.284-3.329C172.55,159.96,172.041,158.725,171.778,158.098z
		 M167.405,158.59l-2.417,0.562c1.381,2.212,2.569,4.577,3.67,6.989c0.416-0.386,0.854-0.761,1.264-1.153
		c-0.345-2.207-0.854-4.354-1.446-6.479L167.405,158.59z M168.435,158.356l0.041,0.152l2.154-0.164
		c0.404-0.035,0.784-0.129,1.147-0.252l-0.177-0.462L168.435,158.356z M167.505,158.567l-0.1,0.023l1.07-0.082l-0.041-0.152
		L167.505,158.567z"/>
	<path clip-path="url(#SVGID_2_)" fill="#73532D" d="M137.238,123.647l-1.312-0.509l-0.339-0.129
		c-3.904,2.845-8.357,5.168-12.561,7.006l6.484-0.708l5.063-0.556l11.718-1.282C143.688,126.293,140.61,124.97,137.238,123.647
		 M78.666,144.97c-3.208,0.849-6.269,1.772-9.148,2.757c-20.205,6.907-32.192,16.336-32.192,16.336l2.008,3.371
		c7.012-4.934,14.217-8.803,20.966-11.858c3.178-1.439,6.239-2.697,9.131-3.78c3.447-1.294,6.632-2.354,9.453-3.202l-0.1-1.615
		L78.666,144.97z M87.077,145.498l-0.094-0.598l-0.275-1.778c-0.626,0.122-1.253,0.245-1.867,0.375
		c-0.445,0.094-0.866,0.204-1.305,0.304l0.088,0.702l0.129,1.023l0.205,1.64c1.241-0.322,2.3-0.579,3.248-0.803l-0.082-0.544
		L87.077,145.498z M49.904,144.935c-4.056,1.709-7.96,3.447-11.22,4.928c-4.893,2.23-8.294,3.875-8.294,3.875l-2.85,9.377
		l-4.366,14.41l4.068-0.269l0.445-0.029L27.763,177l3.418-10.378l2.973-9.031c0.626-0.311,1.253-0.615,1.896-0.925
		c10.208-4.935,22.189-10.003,31.016-13.604L49.904,144.935z"/>
	<path clip-path="url(#SVGID_2_)" fill="#B8916C" d="M103.302,146.86l-0.041-0.31l-0.438-3.144l-0.469-3.395l-0.059-0.427
		l-0.052-0.38l-4.917,0.537l-1.212,0.136l0.035,0.315l0.357,3.39l0.346,3.2l0.023,0.252l0.363,3.39l-4.893,0.702l-7.755,1.106
		l-0.41-3.266l-0.223-1.81l-0.204-1.645l-0.129-1.018l-0.088-0.703l-0.211-1.668l-0.023-0.199l-0.082-0.638l-0.492,0.053
		l-4.255,0.468l0.047,0.697l0.058,1.007l0.088,1.457l0.123,2.008l0.1,1.615v0.006l0.005,0.134l0.118,1.873l0.462,7.651l17.776-2.144
		l5.063-0.613l2.147-0.259l-0.223-1.592L103.302,146.86z M86.708,143.114l0.275,1.78l0.094,0.604l0.047,0.315l0.082,0.544
		l0.293,1.914l0.105,0.65l2.318-0.258l3.102-0.346l-0.141-0.884l-0.146-0.913l-0.404-2.558l-0.521-3.313l-0.047-0.298l-5.39,0.591
		l0.088,0.568L86.708,143.114z M161.101,142.055l-0.525-6.977l-0.17-2.236l-6.193,0.679l-1.311,0.142l0.11,1.456l0.826,11.093
		l7.527-0.68L161.101,142.055z M139.322,135.148l-0.451,0.053l-7.053,0.773l0.948,12.648l7.527-0.686l-0.972-12.742V135.148z
		 M149.823,134.001l-7.517,0.819l0.019,0.357l0.977,17.354l7.527-0.9l-0.942-16.494L149.823,134.001z"/>
	<path clip-path="url(#SVGID_2_)" fill="#402E19" d="M143.975,167.639c2.078,4.325,3.693,8.534,5.11,12.637
		c2.382,6.883,4.027,13.346,5.016,18.736h8.194c-2.728-7.82-6.725-14.92-10.301-20.427
		C147.967,172.392,144.473,168.23,143.975,167.639z M131.485,158.619l-1.147,0.076l-3.395,0.218l-3.453,0.222l-16.805,1.071
		l-33.754,2.153c-0.176,0.013-0.322,0.095-0.486,0.129c-0.176,0.013-0.345,0-0.521,0.064l-10.828,4.272l-0.293,0.117l-3.512,1.405
		l-3.395,1.346l-12.537,4.952l-21.528,8.505l-2.084,0.814l-0.023,0.006l-1.697,0.702c-1.814,0.761-2.692,2.751-1.932,4.448
		c0.702,1.813,2.692,2.691,4.39,1.932l1.346-0.527v8.487h6.907v-11.238l21.662-8.546l5.496-2.166v21.949h6.848v-24.641h0.059
		l11.94-4.741l33.907,23.137l6.069,4.138l0.702,2.107h7.316l-1.873-5.443c-0.234-0.702-0.702-1.346-1.347-1.756l-0.397-0.269
		l-33.784-22.969l-0.006-0.006l16.646-1.064c8.317,3.793,16.523,9.412,16.523,9.412c-2.704-4.729-5.373-7.878-7.533-9.985
		l2.143-0.135c4.507,1.978,9.049,4.56,12.373,6.591c1.393,0.849,2.587,1.604,3.452,2.166c1.019,0.661,1.604,1.064,1.604,1.064
		c-0.538-0.941-1.071-1.756-1.604-2.58c-1.193-1.845-2.353-3.407-3.452-4.719c-1.049-1.247-2.037-2.294-2.915-3.126l2.915-0.187
		l3.452-0.223l3.396-0.217l1.586-0.1c1.891-0.123,3.33-1.756,3.208-3.646c-0.018-0.274-0.123-0.509-0.193-0.755
		C134.517,159.585,133.241,158.52,131.485,158.619z M161.341,125.831l-2.628,0.286l-4.208,0.463l-7.047,0.772l-1.159,0.129
		l-11.718,1.282l-5.063,0.556l-6.484,0.708l-11.595,1.271l-20.703,2.265l-14.141,1.545l-8.06,0.884l-1.955,0.218l-21.065,2.306
		l-1.61,0.176l-5.133,0.563l-4.975,0.544l-2.616,0.287c-1.885,0.211-3.248,1.901-3.038,3.787c0.094,0.859,0.503,1.604,1.095,2.147
		c0.615,0.568,1.428,0.913,2.312,0.913l0.38-0.018l8.727-0.954l9.254-1.014l17.161-1.879l10.296-1.13l1.112-0.123l4.255-0.462
		l0.492-0.053l3.149-0.345l5.391-0.592l4.349-0.474l1.212-0.135l4.917-0.538l0.533-0.06l18.647-2.043l6.573-0.72l3.822-0.416
		l7.053-0.772l0.451-0.06l2.984-0.328l7.516-0.825l3.079-0.339l1.311-0.14l6.193-0.679l0.784-0.088l0.9-0.101
		c0.516-0.059,0.978-0.24,1.394-0.492c1.105-0.673,1.797-1.926,1.645-3.295C164.918,126.977,163.162,125.602,161.341,125.831z"/>
	<polygon clip-path="url(#SVGID_2_)" fill="#F7925F" points="124.309,200.182 126.474,199.012 123.782,199.012 	"/>
</g>
</svg>
