<?xml version="1.0" encoding="utf-8"?>
<!-- Generator: Adobe Illustrator 16.0.0, SVG Export Plug-In . SVG Version: 6.00 Build 0)  -->
<!DOCTYPE svg PUBLIC "-//W3C//DTD SVG 1.1//EN" "http://www.w3.org/Graphics/SVG/1.1/DTD/svg11.dtd">
<svg version="1.1" id="Слой_1" xmlns="http://www.w3.org/2000/svg" xmlns:xlink="http://www.w3.org/1999/xlink" x="0px" y="0px"
	 width="187.29px" height="200.07px" viewBox="0 0 187.29 200.07" enable-background="new 0 0 187.29 200.07" xml:space="preserve">
<g>
	<defs>
		<rect id="SVGID_1_" width="187.29" height="200.07"/>
	</defs>
	<clipPath id="SVGID_2_">
		<use xlink:href="#SVGID_1_"  overflow="visible"/>
	</clipPath>
	<path clip-path="url(#SVGID_2_)" fill="#20A0DB" d="M93.65,1.06c-6.95,0-13.73,0.74-20.24,2.13c2.08,2.08,4.26,4.63,6.26,7.52
		c3.5-0.6,7.2-0.93,11.12-0.93c38.86,0,58.53,22.65,58.53,67.37v9.37l10.13-1.36l1.99-16.56l1.97,16.56l15.8,2.11l-15.8,2.11
		l-1.99,16.56l-1.99-16.56l-10.13-1.36c-0.01,13.479-0.04,31.439-0.08,49.03l5.391,5.39c2.899-1.13,6.409-0.51,8.62,1.66
		c1.59,1.59,2.359,3.68,2.319,5.76c13.561-15.71,21.74-35.97,21.74-58.08C187.29,41.68,145.39,1.06,93.65,1.06 M149.25,42.03
		c-1.62,0-2.93-1.31-2.93-2.93c0-1.62,1.31-2.93,2.93-2.93s2.93,1.31,2.93,2.93C152.18,40.72,150.87,42.03,149.25,42.03
		 M165.05,55.96l-1.35,11.12l-1.29-11.12l-10.59-1.4l10.59-1.4l1.29-11.12l1.35,11.12l10.54,1.4L165.05,55.96 M172.66,106.41
		c-1.62,0-2.93-1.31-2.93-2.93s1.31-2.93,2.93-2.93s2.93,1.31,2.93,2.93S174.28,106.41,172.66,106.41 M40.11,26.3
		c0.76-0.82,1.62-1.56,2.61-2.18l2.52-1.58c1.03-0.63,2.13-1.08,3.26-1.38c1.12-3.11,3.17-7.81,6.4-12
		c-8.35,3.68-16.05,8.52-22.87,14.3C34.64,24.03,37.39,24.93,40.11,26.3 M12.67,46.17C4.75,59.35,0.16,74.64,0.01,90.96l13.04-1.7
		l1.64-13.75l1.64,13.75l13.05,1.7l-13.05,1.76l-1.64,13.7l-1.64-13.7L0.01,90.96L0,91.78c0,20.6,7.1,39.59,19.04,54.82
		c0.39-0.95,0.97-1.84,1.74-2.61c2.34-2.29,5.87-2.76,8.7-1.62l2.74-2.74c0.03-26.199,0.03-52.879,0.03-62.479
		c0-2.43,0.11-4.86,0.3-7.29l-0.77-0.5C25.33,65.15,16.33,56.66,12.67,46.17 M26.33,83c-1.62,0-2.93-1.31-2.93-2.93
		s1.31-2.93,2.93-2.93s2.93,1.31,2.93,2.93S27.95,83,26.33,83 M19.08,120.05l-1.35,11.06l-1.29-11.06l-10.59-1.4l10.59-1.4
		l1.29-11.12l1.35,11.12l10.59,1.4L19.08,120.05"/>
	<path clip-path="url(#SVGID_2_)" fill="#B3B3B3" d="M77.19,181.1c-7.98-1.37-15.6-3.721-22.73-6.91
		c-0.37,0.74-0.85,1.439-1.44,2.05l-0.34,0.33c8.99,4.12,18.43,6.81,28.23,8.05c-0.81-0.59-1.59-1.229-2.31-1.95
		C78.1,182.18,77.63,181.65,77.19,181.1 M130.12,175.33c-0.45,0.19-0.9,0.37-1.36,0.55c-7.08,2.79-14.62,4.74-22.46,5.771
		c-1.109,1.28-2.38,2.43-3.79,3.37c9.44-0.82,18.61-2.96,27.36-6.4c0.89-0.35,1.79-0.729,2.68-1.109
		c-0.59-0.341-1.14-0.75-1.63-1.23C130.63,176,130.37,175.669,130.12,175.33z M90.78,9.78c-3.92,0-7.62,0.32-11.12,0.93
		c0.6,0.86,1.18,1.76,1.74,2.68c0.53,0.87,1.04,1.76,1.52,2.68c2.48-0.31,5.07-0.49,7.8-0.49c30.14,0,47.089,14.55,51.5,44.32
		l2.98,0.32l2.88,0.31l-2.561,2.17l-2.689,2.28c0.37,3.82,0.56,7.85,0.56,12.12c0,12.35-0.02,33.32-0.069,54.48
		c0.81,0.561,1.59,1.181,2.3,1.891l3.6,3.6c0.04-17.59,0.07-35.56,0.08-49.03V77.17C149.31,32.43,129.64,9.78,90.78,9.78z
		 M34.24,69.71l-1.29,0.41l-0.4-0.26c-0.19,2.42-0.3,4.85-0.3,7.29c0,9.6,0,36.28-0.03,62.479l2.87-2.869l2.93-2.931
		c0.02-24.229,0.02-47.8,0.02-56.74c0-3.09,0.17-6.23,0.52-9.38c-0.96,0.6-1.99,1.14-3.09,1.57C35.06,69.43,34.66,69.58,34.24,69.71
		z"/>
	<path clip-path="url(#SVGID_2_)" fill="#C4C4C4" d="M128.76,122.129c-0.46-0.3-0.92-0.6-1.39-0.899c-0.49,3.72-1.73,6.89-3.48,9.57
		c1.521-0.87,3.16-1.511,4.86-1.9c2.7-0.62,5.53-0.64,8.24-0.061C134.5,126.37,131.74,124.11,128.76,122.129z M128.76,172.06
		c-0.069-0.431-0.12-0.87-0.12-1.32s0.04-0.89,0.12-1.32c0.11-0.63,0.28-1.25,0.54-1.83l-8.91-8.909
		c-3.39-3.391-5.27-7.9-5.21-12.641c0-3.04,0.761-5.979,2.19-8.58c-2.021,1.42-4.21,2.591-6.46,3.53v12.61
		c3.109,1.18,5.33,4.18,5.33,7.71c0,3.49-2.21,6.51-5.33,7.7v0.31c0,3.24-0.82,6.29-2.271,8.96c-0.649,1.21-1.449,2.33-2.34,3.36
		c7.84-1.03,15.38-2.98,22.46-5.771l1.36-0.55c-0.59-0.82-1.01-1.75-1.25-2.74C128.83,172.419,128.79,172.24,128.76,172.06z
		 M55.4,124.39c-0.94,0.729-1.84,1.489-2.73,2.27c-0.65,0.57-1.29,1.15-1.91,1.75c0.64-0.01,1.27,0.01,1.91,0.061
		c2.17,0.189,4.31,0.77,6.28,1.71C56.99,127.69,55.9,125.53,55.4,124.39 M73.04,169.33v-0.31c-3.11-1.181-5.33-4.181-5.33-7.71
		c0-2.221,0.88-4.33,2.46-5.851c0.79-0.83,1.78-1.449,2.87-1.859v-12.91c-2.51-1.061-4.71-2.271-6.6-3.561
		c1.58,2.69,2.43,5.75,2.39,8.971c0,4.739-1.81,9.25-5.21,12.58l-8.91,8.909c0.39,0.95,0.6,1.971,0.6,3.03
		c0,0.23-0.01,0.46-0.03,0.681c-0.09,1.01-0.36,1.989-0.81,2.89c7.13,3.189,14.75,5.54,22.73,6.91
		c-0.86-1.061-1.58-2.221-2.18-3.431C73.74,175.11,73.04,172.26,73.04,169.33"/>
	<path clip-path="url(#SVGID_2_)" fill="#AAABB0" d="M124.84,116.65c-1.25-0.13-2.359,0.55-2.87,1.61
		c-0.16,0.329-0.26,0.689-0.29,1.09c-0.609,8.22-5.75,12.93-11.46,15.63c0.12,0.45,0.25,0.91,0.34,1.37
		c0.23,1.189,0.36,2.42,0.36,3.66v0.979c2.25-0.939,4.44-2.11,6.46-3.53c0.8-1.449,1.811-2.81,3.021-4
		c1.05-1.05,2.239-1.92,3.51-2.649c1.75-2.681,2.979-5.851,3.479-9.57c0.061-0.47,0.12-0.93,0.16-1.42
		C127.65,118.18,126.48,116.77,124.84,116.65 M60.63,121.629c-0.09-0.229-0.21-0.449-0.35-0.64c-0.75-1.09-2.11-1.62-3.4-1.17
		c-1.52,0.53-2.34,2.22-1.81,3.75c0.03,0.09,0.14,0.39,0.33,0.83c0.49,1.14,1.58,3.3,3.55,5.8c1.7,0.811,3.29,1.89,4.66,3.26
		c1.12,1.12,2.05,2.36,2.82,3.67c1.9,1.29,4.09,2.5,6.6,3.561v-0.68c0-0.801,0.07-1.58,0.16-2.351c0.13-1.05,0.34-2.07,0.64-3.06
		C63.7,129.73,60.79,122.11,60.63,121.629"/>
	<path clip-path="url(#SVGID_2_)" fill="#D1D2D4" d="M114.99,115.39c-1.11-0.37-2.24-0.71-3.38-1.021
		c-0.511-0.14-1.03-0.28-1.551-0.41c-8.34,4-18.03,5.471-27.83,3.57c-3.04-0.59-5.94-1.49-8.68-2.63c-1.16,0.36-2.31,0.74-3.44,1.17
		c-3.45,1.34-6.75,2.97-9.83,4.92c0.14,0.2,0.26,0.41,0.35,0.64c0.16,0.48,3.07,8.101,13.21,12.96
		c2.34-7.789,9.57-13.489,18.1-13.489c5.09,0,9.83,1.989,13.4,5.56c2.36,2.32,4.01,5.18,4.87,8.311
		c5.71-2.7,10.85-7.41,11.46-15.631c0.03-0.39,0.13-0.75,0.29-1.09l-0.51-0.26C119.38,117.01,117.22,116.14,114.99,115.39
		 M83.7,110.45c18.689,3.63,36.87-7.41,42.25-24.96l-0.17-0.09l-2.83-1.48c0.14,2.24-2.75,4.57-6.71,5.35
		c-3.15,0.62-6.07,0.06-7.5-1.27l-6.141,3.2l2.69-12.23l1.229-5.62l-4.68-3.98l-2.83-2.4H84.96l-0.49,0.43l-2.41,2.09l-4.74,4.16
		l1.29,5.91l2.63,12.35l-7.94-4.22c-1.28,1.56-4.4,2.26-7.8,1.59c-3.04-0.6-5.45-2.11-6.34-3.79l-0.97,0.52l-1.94,1.03
		C60.43,98.66,70.52,107.86,83.7,110.45z M110.03,92.07c-1.05,5.62-4.681,10.36-9.771,12.88c-2.399,1.17-5.09,1.87-7.9,1.93
		c-1.95,0.051-3.9-0.239-5.77-0.8h-0.02c-2.27-0.68-4.43-1.74-6.32-3.12c-3.8-2.689-6.61-6.5-7.67-10.77L110.03,92.07z"/>
	<path clip-path="url(#SVGID_2_)" fill="#AAAAAB" d="M93.59,97.28c-5.24-1.02-9.69,0.23-11.12,5.15c8.85,4.26,16,1.68,18.93,0.189
		C100.13,99.36,97.99,98.19,93.59,97.28 M64.15,82.82l-5,2.64c0.89,1.68,3.3,3.19,6.34,3.79c3.4,0.67,6.52-0.03,7.8-1.59l-3.18-1.69
		L64.15,82.82 M119.75,82.24l-6.03,3.16L108.74,88c1.43,1.33,4.34,1.89,7.5,1.27c3.96-0.78,6.85-3.1,6.71-5.35L119.75,82.24z"/>
	<path clip-path="url(#SVGID_2_)" fill="#E8E8E8" d="M52.67,96.53v30.13c0.89-0.78,1.79-1.54,2.73-2.27
		c-0.19-0.45-0.3-0.74-0.33-0.83c-0.53-1.521,0.29-3.221,1.81-3.75c1.29-0.45,2.65,0.08,3.4,1.17c3.08-1.94,6.38-3.58,9.83-4.92
		c1.13-0.431,2.27-0.811,3.44-1.17C64.56,111.14,57.34,104.58,52.67,96.53 M110.07,113.959c0.52,0.13,1.04,0.261,1.55,0.41
		c1.14,0.311,2.27,0.65,3.38,1.021c2.22,0.739,4.38,1.62,6.47,2.609l0.511,0.261c0.51-1.061,1.619-1.74,2.869-1.61
		c1.641,0.12,2.811,1.52,2.69,3.16c-0.04,0.479-0.1,0.95-0.16,1.42c0.47,0.29,0.93,0.59,1.39,0.899V96.94
		C124.34,104.37,117.78,110.26,110.07,113.959z M122.91,47.88v0.8l2.05,4.12l2.75,5.56l1.05,0.11V47.88H122.91z M114.42,52.86
		l1.89-3.82l0.75-1.51v-5.5H111.2v16.38l0.53-0.05L114.42,52.86z M99.5,59.65l5.5-0.59l0.35-0.04V47.88H99.5V59.65z M91.71,61.11
		h0.4l-0.2-0.17L91.71,61.11z M87.79,60.22l3.76,0.41l-0.13-0.11l2.23-0.24v-6.55h-5.86V60.22z M80.24,48.76
		c0.06,0.06-0.64,0.12-1.76,0.12c-0.66,0-1.48-0.02-2.4-0.08v10.15l2.75,0.29l3.1,0.34V48.21l-0.29,0.43L80.24,48.76 M69.35,52.86
		l2.75,5.68l0.29,0.03V48.4c-1.58-0.24-3.31-0.59-5.12-1.11l-0.65-0.2l0.26,0.54L69.35,52.86 M58.51,53.73h-5.84v5.2l3.52-0.4
		L58.51,53.73z"/>
	<path clip-path="url(#SVGID_2_)" fill="#FFFFFF" d="M142.84,64.97l-5.17,4.39l-4.68,3.98l1.229,5.62l2.69,12.23l-4.42-2.3
		c-0.971,2.84-2.221,5.53-3.721,8.05v25.189c2.98,1.98,5.74,4.24,8.24,6.721c2.25,0.489,4.41,1.39,6.32,2.72
		c0.05-21.16,0.07-42.13,0.07-54.48C143.4,72.82,143.2,68.79,142.84,64.97z M47.05,91.9l2.63-12.35l1.29-5.91l-4.74-4.16l-4.69-4.06
		c-0.92,0.85-1.91,1.61-2.99,2.29c-0.34,3.15-0.52,6.29-0.52,9.38c0,8.94,0,32.51-0.02,56.74l0.37-0.37
		c3.31-3.31,7.83-4.979,12.37-5.04c0.62-0.6,1.26-1.18,1.91-1.75V96.53c-1.13-1.94-2.12-3.96-2.94-6.06L47.05,91.9z M128.76,58.47
		l2.88,0.3l1.391,0.14l1.46,0.15l7.72,0.83c-4.41-29.77-21.36-44.32-51.5-44.32c-2.73,0-5.32,0.18-7.8,0.49
		c1.87,3.57,3.32,7.46,3.98,11.5c0.23,1.41,0.37,2.83,0.39,4.27c0.04,2.42-0.24,4.87-0.91,7.31c-0.77,2.81-2.05,5.62-3.97,8.38
		l-0.47,0.68v11.36l5.85,0.64v-6.48h5.85v6.55l5.851-0.63V47.88h5.85v11.14l5.85-0.61V42.03h5.851v5.5l2.609-5.27l0.03-0.05
		l0.061,0.12l3.159,6.35v-0.8h5.851v10.59H128.76z M59,43.79l-0.41,0.29l-2.52,1.58c-0.42,0.25-0.86,0.48-1.31,0.68
		c-1.21,0.56-2.48,0.92-3.78,1.09c-0.8,3.35-2.25,7.97-4.81,12.21l2.06-0.22l1.23-0.13l0.22-0.02l3-0.34v-5.2h5.84l0.43-0.88
		l3.53-7.3c-0.92-0.4-1.83-0.84-2.75-1.34C59.48,44.08,59.24,43.93,59,43.79 M72.4,58.56l3.69,0.38V48.79
		c-1.09-0.07-2.33-0.19-3.69-0.4V58.56z M76.81,17.18c-0.52-0.88-1.06-1.72-1.61-2.52c-0.61-0.89-1.22-1.73-1.83-2.51
		c-2.08-2.69-4.05-4.74-5.2-5.88c-6.99,1.98-11.23,9.66-13.39,14.83c0.28,0.07,0.56,0.15,0.84,0.24c0.79,0.24,1.56,0.56,2.29,0.94
		c0.85-1.46,2.04-3.23,3.67-5.06c1.82-2.04,4.18-4.14,7.17-5.91l1.59,1.82l0.07,0.04c0,0-3.58,1.4-6.91,6.22
		c-0.94,1.37-1.86,3.01-2.68,4.97l0.06,0.06c0.63,0.62,1.2,1.3,1.69,2.05l12.52-5.4l1,1.64l-12.18,6.55
		c0.25,0.75,0.44,1.51,0.54,2.28c2.53,0.55,4.76,0.71,6.68,0.63c5.3-0.21,8.18-2.14,8.18-2.14l0.59,2.4
		c-2.61,1.2-5.15,1.91-7.49,2.31c-2.36,0.4-4.5,0.49-6.28,0.44l-0.15-0.01c-0.54-0.02-1.05-0.05-1.52-0.09
		c-0.08,0.53-0.2,1.05-0.34,1.57c-0.26,0.94-0.62,1.85-1.09,2.71c0.53,0.27,1.05,0.53,1.58,0.76c0.45,0.2,0.91,0.39,1.36,0.56
		c2.26,0.88,4.46,1.42,6.44,1.76c0.68,0.12,1.34,0.21,1.96,0.28c1.65,0.19,3.05,0.24,4.07,0.24c0.48-0.79,0.88-1.58,1.24-2.37
		c1.21-2.66,1.77-5.32,1.82-7.94c0.03-1.41-0.08-2.81-0.31-4.18C80.51,24.39,78.81,20.53,76.81,17.18 M36.11,60.7l0.54-0.06
		l1.64-0.17c0.67-0.68,1.28-1.42,1.84-2.2c2.63-3.66,4.16-8.15,5.01-11.49c-0.28-0.1-0.55-0.2-0.82-0.32
		c-0.31,0.69-0.8,1.68-1.53,2.87c-1.09,1.76-2.69,3.91-4.92,5.96c-1.04,0.96-2.23,1.89-3.57,2.75c-0.29,0.19-0.57,0.38-0.87,0.56
		l-1.52-1.7c0,0,1.39-0.56,3.19-2.17c2.02-1.81,4.55-4.95,6.22-10.13c-0.7-0.58-1.35-1.24-1.92-1.97c-0.15-0.19-0.28-0.39-0.42-0.59
		l-13.52,5.9l-1-1.58l13.03-7.13c-0.18-0.48-0.31-0.97-0.43-1.47C26.88,35.2,21.24,39.1,21.24,39.1l-0.59-2.4
		c6.52-3.07,12.69-3.04,16.12-2.68c0.06-0.88,0.22-1.75,0.46-2.59c-3.68-1.82-7.46-2.62-10.73-2.9c-3.42-0.3-6.27-0.05-7.85,0.16
		c-1.65,3.77-2.04,7.42-1.61,10.87c1.44,11.46,12.06,20.56,16.26,23.7c0.18,0.14,0.35,0.26,0.51,0.37c0.91-0.4,1.75-0.9,2.54-1.48
		c0.25-0.19,0.5-0.38,0.74-0.59l-0.54-0.47L36.11,60.7 M43.54,38.46c0.19,0.3,0.41,0.58,0.64,0.84c0.65,0.74,1.46,1.31,2.35,1.7
		c0.63,0.28,1.3,0.46,1.98,0.55c1.06,0.14,2.15,0.04,3.16-0.31c0.45-0.16,0.89-0.36,1.3-0.61l0.89-0.56l1.63-1.02
		c0.32-0.2,0.62-0.43,0.9-0.67c0.75-0.66,1.34-1.45,1.73-2.33c0.89-2,0.81-4.39-0.4-6.37c-0.38-0.58-0.84-1.09-1.35-1.54
		c-0.7-0.6-1.52-1.06-2.4-1.34l-0.23-0.08c-0.6-0.17-1.22-0.26-1.87-0.26c-0.37,0-0.74,0.04-1.1,0.1c-0.33,0.05-0.66,0.13-0.97,0.23
		c-0.53,0.17-1.03,0.38-1.5,0.67l-0.28,0.18l-2.23,1.4c-0.24,0.15-0.46,0.31-0.67,0.48c-0.79,0.64-1.41,1.44-1.84,2.33
		c-0.66,1.37-0.87,2.94-0.55,4.45C42.86,37.04,43.13,37.77,43.54,38.46"/>
	<path clip-path="url(#SVGID_2_)" fill="#FFE687" d="M128.76,64.42l-2.99-0.32c-1.17-0.12-2.22-0.82-2.689-1.81l-0.18-0.35
		l-0.261-0.52l-0.02-0.03l-0.13-0.26l-0.19-0.39l-2.62-5.29l-2.63,5.41l-0.13,0.27l-0.3,0.62l-0.21,0.41
		c-0.53,1-1.521,1.7-2.69,1.81l-2.52,0.27l-5.561,0.6l0.69,0.59l1.78,1.52l3.5,2.99c0.819,0.76,1.229,1.87,1,2.93l-1.641,7.37
		l7.2-3.57c0.271-0.17,0.57-0.27,0.89-0.33l0.04-0.01c0.23-0.04,0.471-0.07,0.71-0.07c0.53,0,1.11,0.12,1.641,0.41l7.08,3.69
		l-1.641-7.37c-0.229-1.11,0.12-2.17,1-2.93l0.88-0.75l2.761-2.35l1.779-1.52l0.551-0.47L128.76,64.42 M72.4,64.44l-2.11-0.23
		c-1.17-0.12-2.22-0.82-2.69-1.81l-0.63-1.29l-1.01-2.07l-1.76-3.6l-2.72,5.68l-0.62,1.29c-0.47,0.89-1.33,1.52-2.34,1.73
		l-0.35,0.08l-2.46,0.27l-1.4,0.15l-1.64,0.18l-2.58,0.28l0.41,0.35l1.8,1.52l3.94,3.34c0.55,0.51,0.9,1.17,1.02,1.88
		c0.06,0.36,0.06,0.73-0.02,1.1l-1.64,7.49l2.25-1.19l0.13-0.07l4.7-2.49c0.47-0.29,1.11-0.41,1.64-0.41c0.53,0,1.11,0.12,1.64,0.41
		l7.08,3.75l-1.64-7.49c-0.23-1.11,0.12-2.22,1-2.99l1.12-0.98l2.7-2.36l1.74-1.52l0.4-0.35l-2.28-0.25L72.4,64.44z"/>
	<path clip-path="url(#SVGID_2_)" fill="#C9C9C9" d="M97.22,65.44l-0.29-0.25l-3.279-2.78l-1.541-1.3h-0.4l-3.92,3.39l-1.08,0.94
		l-1.75,1.52h14.05L97.22,65.44z M87.29,31.84c-0.02-1.44-0.16-2.86-0.39-4.27c-0.66-4.04-2.11-7.93-3.98-11.5
		c-0.48-0.92-0.99-1.81-1.52-2.68c-0.56-0.92-1.14-1.82-1.74-2.68c-2-2.89-4.18-5.43-6.26-7.52c-0.84-0.85-1.67-1.62-2.47-2.31
		L69.88,0l-1.35,0.23C62.6,1.24,58.15,4.94,54.89,9.15c-3.23,4.19-5.28,8.89-6.4,12c-1.13,0.3-2.23,0.75-3.26,1.38l-2.52,1.58
		c-0.99,0.62-1.86,1.36-2.61,2.18c-2.72-1.37-5.47-2.27-8.08-2.84c-8.61-1.89-15.8-0.26-16-0.22l-1.35,0.23l-0.64,1.23
		c-3.85,7.57-3.66,14.91-1.37,21.47c3.65,10.49,12.66,18.98,19.1,23.19l0.77,0.5l0.4,0.26l1.29-0.41c0.42-0.13,0.83-0.28,1.23-0.44
		c1.1-0.43,2.13-0.97,3.09-1.57c1.08-0.68,2.08-1.44,2.99-2.29l-2.18-1.89l-0.23-0.2l-2.03-1.76c-0.24,0.2-0.49,0.4-0.74,0.59
		c-0.78,0.58-1.63,1.08-2.54,1.48l-0.51-0.37c-4.2-3.14-14.82-12.24-16.26-23.7c-0.43-3.44-0.04-7.1,1.61-10.87
		c1.58-0.21,4.43-0.46,7.85-0.16c3.26,0.29,7.04,1.09,10.73,2.9c-0.24,0.85-0.4,1.72-0.46,2.59c-3.43-0.36-9.6-0.39-16.12,2.68
		l0.59,2.4c0,0,5.64-3.89,15.82-1.34c0.11,0.49,0.25,0.98,0.43,1.47l-13.03,7.13l1,1.58l13.52-5.9c0.14,0.2,0.27,0.4,0.42,0.59
		c0.57,0.74,1.22,1.39,1.92,1.97c-1.68,5.18-4.21,8.32-6.22,10.13c-1.8,1.61-3.19,2.17-3.19,2.17l1.52,1.7
		c0.3-0.18,0.58-0.37,0.87-0.56c1.34-0.86,2.53-1.8,3.57-2.75c2.23-2.05,3.84-4.2,4.92-5.96c0.73-1.18,1.23-2.18,1.53-2.87
		c0.27,0.12,0.54,0.22,0.82,0.32c-0.85,3.34-2.38,7.83-5.01,11.49c-0.56,0.78-1.17,1.52-1.84,2.2l1.4-0.15l2.8-0.3l3.68-0.39
		c2.56-4.24,4.01-8.87,4.81-12.21c1.3-0.16,2.58-0.53,3.78-1.09c0.44-0.2,0.88-0.43,1.31-0.68l2.52-1.58L59,43.77l0.72,0.42
		c0.92,0.5,1.83,0.94,2.75,1.34l1.29-2.67l0.44-0.91l0.64,1.36l1.11,2.35l0.67,1.41l0.65,0.2c1.81,0.52,3.54,0.87,5.12,1.11
		c1.36,0.21,2.6,0.33,3.69,0.4c0.92,0.06,1.74,0.08,2.4,0.08c1.11,0,1.81-0.06,1.76-0.12l1.4-0.12l0.29-0.43l0.48-0.66
		c1.92-2.76,3.2-5.57,3.97-8.38C87.05,36.7,87.33,34.25,87.29,31.84z M52.97,40.62c-0.41,0.26-0.85,0.46-1.3,0.61
		c-1.02,0.35-2.1,0.45-3.16,0.31c-0.68-0.09-1.35-0.27-1.98-0.55c-0.89-0.39-1.7-0.97-2.35-1.7c-0.23-0.26-0.45-0.54-0.64-0.84
		c-0.41-0.68-0.68-1.41-0.83-2.15c-0.31-1.51-0.11-3.08,0.55-4.45c0.43-0.89,1.05-1.69,1.84-2.33c0.21-0.17,0.43-0.34,0.67-0.48
		l2.23-1.4l0.28-0.18c0.47-0.29,0.97-0.5,1.5-0.67c0.32-0.1,0.64-0.18,0.97-0.23c0.36-0.06,0.73-0.1,1.1-0.1
		c0.64,0,1.27,0.1,1.87,0.26l0.23,0.08c0.88,0.28,1.7,0.74,2.4,1.34c0.51,0.44,0.98,0.95,1.35,1.54c1.21,1.98,1.29,4.37,0.4,6.37
		c-0.39,0.87-0.97,1.67-1.73,2.33c-0.28,0.24-0.57,0.47-0.9,0.67l-1.63,1.02L52.97,40.62 M64.6,40.11
		c-0.53-0.23-1.05-0.49-1.58-0.76c0.47-0.86,0.83-1.77,1.09-2.71c0.14-0.52,0.26-1.04,0.34-1.57c0.46,0.04,0.98,0.07,1.52,0.09
		l0.15,0.01c1.78,0.06,3.92-0.03,6.28-0.44c2.34-0.4,4.89-1.11,7.49-2.31l-0.59-2.4c0,0-2.88,1.94-8.18,2.14
		c-1.92,0.07-4.15-0.08-6.68-0.63c-0.11-0.77-0.29-1.53-0.54-2.28l12.18-6.55l-1-1.64l-12.52,5.4c-0.49-0.76-1.06-1.44-1.69-2.05
		l-0.06-0.06c0.82-1.96,1.74-3.6,2.68-4.97c3.33-4.82,6.91-6.22,6.91-6.22l-0.05-0.05l-1.59-1.82c-3,1.77-5.35,3.87-7.17,5.91
		c-1.63,1.83-2.83,3.6-3.67,5.06c-0.73-0.38-1.5-0.7-2.29-0.94c-0.28-0.08-0.55-0.17-0.84-0.24c2.15-5.17,6.4-12.85,13.39-14.83
		c1.15,1.13,3.12,3.19,5.2,5.88c0.61,0.79,1.22,1.62,1.83,2.51c0.55,0.8,1.09,1.65,1.61,2.52c1.99,3.35,3.69,7.21,4.37,11.3
		c0.23,1.37,0.34,2.76,0.31,4.18c-0.06,2.61-0.62,5.28-1.82,7.94c-0.36,0.79-0.76,1.58-1.24,2.37c-1.02,0-2.42-0.05-4.07-0.24
		c-0.62-0.07-1.28-0.17-1.96-0.28c-1.98-0.34-4.18-0.88-6.44-1.76C65.51,40.5,65.05,40.32,64.6,40.11z"/>
	<path clip-path="url(#SVGID_2_)" fill="#D0D2D3" d="M22.85,157.25c-2.03,2.221-3.19,5.07-3.19,8.101c0,3.22,1.23,6.2,3.51,8.489
		c2.86,2.86,7.13,3.891,11,3.11c2.06-0.42,4.02-1.34,5.59-2.79L22.85,157.25z M78.95,169.57c0.06,3.39,1.4,6.56,3.8,8.96l0.47,0.43
		c1.12,1.021,2.37,1.841,3.74,2.41c1.57,0.66,3.27,1.021,5.03,1.021c2.02,0,3.92-0.471,5.62-1.28c1.029-0.49,1.989-1.12,2.85-1.85
		c2.75-2.351,4.521-5.811,4.58-9.681H78.95V169.57z M161.18,157.339l-16.93,16.931c1.59,1.43,3.53,2.34,5.58,2.75
		c3.87,0.77,8.1-0.271,10.95-3.12c2.279-2.28,3.51-5.271,3.51-8.49C164.29,162.419,163.21,159.55,161.18,157.339z"/>
	<path clip-path="url(#SVGID_2_)" fill="#818385" d="M52.67,134.28c-2.98-0.38-6.09,0.29-8.59,2.021
		c-0.54,0.369-1.06,0.779-1.53,1.25l-4.54,4.539l-3.95,3.95l3.94,3.94l13.03,13.03l8.49-8.49c2.28-2.28,3.51-5.271,3.51-8.49
		s-1.23-6.2-3.51-8.49C57.66,135.69,55.22,134.61,52.67,134.28z M104.76,136.98c-0.55-2.34-1.71-4.49-3.45-6.22
		c-2.46-2.521-5.739-3.86-9.25-3.86c-6.08,0-11.19,4.18-12.63,9.82c-0.26,1.01-0.41,2.06-0.42,3.149v13.19h26.101v-13.05
		c0-0.36-0.021-0.71-0.051-1.061C105.01,138.28,104.91,137.62,104.76,136.98 M141.47,137.61c-2.279-2.28-5.27-3.51-8.489-3.51
		c-1.471,0-2.891,0.27-4.211,0.76c-1.579,0.59-3.029,1.51-4.27,2.75c-2.28,2.28-3.51,5.27-3.51,8.49c0,3.22,1.229,6.2,3.51,8.489
		l8.49,8.49l16.97-16.97L141.47,137.61z"/>
	<path clip-path="url(#SVGID_2_)" fill="#B8B9BA" d="M46.49,166.73l-8.5-8.48l-2.12-2.109l-0.8-0.801l-2.86-2.859l-4.35-4.34
		c-0.41-0.41-0.88-0.59-1.4-0.59c-0.64,0-1.11,0.18-1.52,0.59c-0.76,0.819-0.76,2.109,0,2.87l21.13,21.13
		c0.76,0.76,2.11,0.76,2.93,0c0.14-0.141,0.24-0.29,0.33-0.45v-0.01c0.17-0.301,0.25-0.63,0.25-1.011c0-0.529-0.23-1.05-0.59-1.46
		L46.49,166.73z M108.04,158.91H76.03c-0.64,0-1.23,0.23-1.64,0.7c-0.47,0.47-0.76,1.05-0.76,1.7c0,1.35,1.05,2.399,2.4,2.399h32.02
		c1.351,0,2.4-1.05,2.4-2.399C110.44,159.97,109.39,158.91,108.04,158.91 M159.08,148.26c-0.41-0.53-0.88-0.7-1.4-0.7
		c-0.64,0-1.109,0.229-1.52,0.59l-21.13,21.13c-0.24,0.24-0.391,0.49-0.48,0.78c-0.069,0.21-0.109,0.439-0.109,0.689
		c0,0.53,0.229,1.051,0.59,1.46c0.26,0.261,0.59,0.42,0.95,0.5c0.64,0.15,1.359,0.011,1.859-0.409l0.12-0.101l1.07-1.07l0.859-0.85
		l2.051-2.05l4.22-4.21l3-2.99l2.62-2.61l7.31-7.29c0.11-0.109,0.2-0.229,0.28-0.35C159.89,149.98,159.79,148.919,159.08,148.26z"/>
	<path clip-path="url(#SVGID_2_)" fill="#373737" d="M80.24,102.959c1.51,1.101,3.19,1.99,4.96,2.65c0.43,0.17,0.88,0.33,1.36,0.47
		h0.02c0.35,0.101,0.72,0.2,1.1,0.29c1.53,0.36,3.1,0.55,4.67,0.51c2.81-0.06,5.5-0.76,7.9-1.93c5.09-2.52,8.72-7.26,9.77-12.88
		l-37.45,0.12C73.63,96.46,76.44,100.27,80.24,102.959 M93.59,97.28c4.41,0.91,6.54,2.08,7.811,5.34
		c-2.931,1.49-10.081,4.07-18.93-0.189C83.9,97.51,88.35,96.26,93.59,97.28 M37.11,61.56l2.03,1.76l0.23,0.2l2.18,1.89l4.69,4.06
		l4.74,4.16l-1.29,5.91l-2.63,12.35l2.68-1.42c0.82,2.1,1.81,4.12,2.94,6.06c4.67,8.05,11.88,14.61,20.88,18.37
		c2.74,1.15,5.64,2.04,8.68,2.63c9.81,1.9,19.5,0.44,27.83-3.57c7.72-3.71,14.27-9.6,18.699-17.02c1.5-2.52,2.75-5.21,3.721-8.05
		l4.42,2.3l-2.69-12.23l-1.229-5.62l4.68-3.98l5.17-4.39l2.69-2.28l2.56-2.17l-2.88-0.31l-2.979-0.32l-7.721-0.83l-1.46-0.15
		l-1.39-0.14l-2.88-0.3l-1.05-0.11l-2.75-5.56l-2.051-4.12l-3.16-6.35l-0.06-0.12l-0.03,0.05l-2.609,5.27l-0.75,1.51l-1.891,3.81
		l-2.689,5.5l-0.53,0.05l-5.85,0.61l-0.351,0.04l-5.5,0.59l-5.85,0.63l-2.22,0.24l0.12,0.11l-3.75-0.41l-5.85-0.64l-3.1-0.34
		l-2.75-0.29l-3.69-0.38l-0.29-0.03l-2.75-5.68l-2.47-5.22l-0.26-0.54l-0.67-1.41l-1.11-2.35l-0.64-1.36l-0.44,0.91l-1.29,2.67
		l-3.53,7.3l-0.43,0.88l-2.33,4.8l-3.51,0.4l-3,0.34l-0.22,0.02l-1.23,0.13l-2.06,0.22l-3.68,0.39l-2.8,0.3l-1.4,0.15l-1.64,0.17
		l-0.54,0.06l0.45,0.39L37.11,61.56z M67.6,62.4c0.47,1,1.52,1.7,2.69,1.81l2.11,0.23l3.69,0.4l2.28,0.25l-0.4,0.35l-1.74,1.52
		l-2.7,2.36l-1.12,0.98c-0.88,0.76-1.23,1.87-1,2.99l1.64,7.49l-7.08-3.75c-0.53-0.29-1.11-0.41-1.64-0.41
		c-0.53,0-1.17,0.12-1.64,0.41l-4.7,2.49l-0.13,0.07l-2.25,1.19l1.64-7.49c0.08-0.37,0.08-0.74,0.02-1.1
		c-0.11-0.71-0.47-1.38-1.02-1.88l-3.94-3.34l-1.8-1.52L50.1,65.1l2.58-0.28l1.64-0.18l1.4-0.15l2.46-0.27l0.35-0.08
		c1.01-0.21,1.87-0.84,2.34-1.73l0.62-1.29l2.72-5.68l1.76,3.6l1.01,2.07L67.6,62.4z M116.93,61.11l0.13-0.27l2.631-5.41l2.619,5.29
		l0.19,0.39l0.13,0.26l0.021,0.03l0.26,0.52l0.18,0.35c0.47,1,1.521,1.7,2.69,1.81l2.989,0.32l5.091,0.55l-0.551,0.47l-1.779,1.52
		l-2.761,2.35l-0.88,0.75c-0.88,0.76-1.229,1.81-1,2.93l1.641,7.37l-7.08-3.69c-0.53-0.29-1.11-0.41-1.641-0.41
		c-0.239,0-0.47,0.03-0.71,0.07l-0.04,0.01c-0.319,0.06-0.63,0.17-0.89,0.33l-7.2,3.57l1.641-7.37c0.229-1.05-0.181-2.17-1-2.93
		l-3.5-2.99l-1.78-1.52l-0.69-0.59l5.561-0.6l2.52-0.27c1.17-0.12,2.17-0.82,2.69-1.81l0.21-0.44L116.93,61.11z M92.11,61.11
		l1.53,1.3l3.28,2.78l0.29,0.25L99,66.96l2.83,2.4l4.68,3.98l-1.229,5.62l-2.69,12.23l6.141-3.2l4.979-2.6l6.03-3.16l3.2,1.68
		l2.829,1.48l0.171,0.09c-5.391,17.55-23.561,28.59-42.25,24.96c-13.17-2.59-23.26-11.79-27.46-23.43l1.94-1.03l0.97-0.52l5-2.64
		l5.97,3.16l3.18,1.69l7.94,4.22L78.6,79.54l-1.29-5.91l4.74-4.16l2.41-2.09l0.49-0.43l1.76-1.52l1.08-0.93l3.92-3.4l0.2-0.17
		L92.11,61.11z M68.83,146.1c0.04-3.221-0.81-6.28-2.39-8.971c-0.77-1.319-1.71-2.56-2.82-3.67c-1.37-1.37-2.96-2.449-4.66-3.26
		c-1.97-0.939-4.11-1.52-6.28-1.71c-0.64-0.06-1.27-0.07-1.91-0.06c-4.54,0.06-9.06,1.729-12.37,5.04l-3.3,3.3l-2.87,2.87
		l-2.74,2.739c-2.83-1.14-6.36-0.68-8.7,1.62c-0.77,0.771-1.35,1.66-1.74,2.61c-0.81,1.97-0.77,4.18,0.08,6.13l-0.1,0.1
		c-3.39,3.341-5.21,7.841-5.21,12.58c-0.06,4.74,1.81,9.25,5.21,12.641c3.39,3.34,7.84,5.21,12.64,5.21c0.85,0,1.69-0.08,2.52-0.2
		v9.5h-6.2c-2.11,0-3.75,1.7-3.75,3.75c0,2.11,1.7,3.75,3.75,3.75h22.36c2.11,0,3.75-1.7,3.75-3.75s-1.7-3.75-3.75-3.75h-6.2v-14.35
		l0.12-0.101l0.16-0.16c0.98,0.41,2.03,0.63,3.11,0.63c1.94,0,3.78-0.71,5.16-2.01l0.34-0.33c0.59-0.609,1.07-1.31,1.44-2.05
		c0.45-0.899,0.72-1.87,0.81-2.89c0.02-0.23,0.03-0.45,0.03-0.681c0-1.06-0.21-2.09-0.6-3.029l8.91-8.91
		C67.01,155.339,68.83,150.839,68.83,146.1z M23.17,173.839c-2.28-2.279-3.51-5.27-3.51-8.489c0-3.03,1.16-5.88,3.19-8.101
		l16.91,16.91c-1.57,1.45-3.52,2.38-5.59,2.79C30.3,177.73,26.03,176.7,23.17,173.839z M48.99,172.14c-0.82,0.76-2.17,0.76-2.93,0
		l-21.13-21.13c-0.76-0.761-0.76-2.051,0-2.87c0.41-0.41,0.88-0.59,1.52-0.59c0.53,0,1,0.18,1.4,0.59l4.35,4.34l2.86,2.859
		l0.8,0.801l2.12,2.109l8.5,8.48l2.5,2.49c0.35,0.409,0.59,0.939,0.59,1.46c0,0.38-0.08,0.71-0.25,1.01v0.01
		C49.23,171.85,49.13,172,48.99,172.14 M51.03,163.01L38,149.98l-3.94-3.94l3.95-3.95l4.54-4.539c0.48-0.471,0.99-0.881,1.53-1.25
		c2.51-1.721,5.62-2.391,8.59-2.021c2.55,0.32,4.99,1.4,6.85,3.271c2.28,2.279,3.51,5.27,3.51,8.489c0,3.221-1.23,6.2-3.51,8.49
		L51.03,163.01z M110.91,153.6v-13.59c0-1.25-0.12-2.471-0.36-3.66c-0.09-0.46-0.21-0.92-0.34-1.37
		c-0.86-3.141-2.51-5.99-4.87-8.311c-3.57-3.569-8.31-5.56-13.4-5.56c-8.54,0-15.77,5.7-18.1,13.49c-0.3,0.989-0.51,2.01-0.64,3.06
		c-0.1,0.771-0.16,1.55-0.16,2.351v13.59c-1.09,0.41-2.07,1.04-2.87,1.859c-1.58,1.521-2.46,3.63-2.46,5.851
		c0,3.529,2.21,6.529,5.33,7.71v0.31c0,2.931,0.69,5.78,1.96,8.34c0.6,1.21,1.33,2.37,2.18,3.431c0.44,0.55,0.91,1.08,1.41,1.569
		c0.72,0.721,1.5,1.36,2.31,1.95c1.84,1.34,3.88,2.32,6.06,2.92v4.55h-6.67c-2.17,0-3.98,1.761-3.98,3.98
		c0,2.17,1.76,3.98,3.98,3.98h24c2.17,0,3.979-1.761,3.979-3.98s-1.76-4.04-3.979-4.04h-6.67v-4.66c1.75-0.55,3.399-1.35,4.89-2.35
		c1.41-0.95,2.681-2.09,3.79-3.37c0.891-1.03,1.681-2.15,2.34-3.36c1.45-2.67,2.271-5.72,2.271-8.96v-0.31
		c3.109-1.19,5.33-4.22,5.33-7.7C116.24,157.78,114.03,154.78,110.91,153.6z M100.48,179.25c-0.86,0.74-1.82,1.36-2.851,1.851
		c-1.7,0.81-3.6,1.279-5.62,1.279c-1.76,0-3.46-0.35-5.03-1.02c-1.37-0.58-2.62-1.4-3.74-2.41c-0.16-0.14-0.32-0.28-0.47-0.43
		c-2.4-2.4-3.75-5.561-3.8-8.96h26.1C104.99,173.44,103.23,176.9,100.48,179.25 M79.01,139.95v-0.08c0.01-1.09,0.16-2.14,0.42-3.149
		c1.44-5.641,6.55-9.82,12.63-9.82c3.51,0,6.79,1.35,9.25,3.86c1.73,1.729,2.9,3.88,3.45,6.22c0.15,0.64,0.26,1.3,0.311,1.96
		c0.029,0.35,0.05,0.71,0.05,1.06v13.051H79.01V139.95 M76.03,163.709c-1.35,0-2.4-1.05-2.4-2.399c0-0.641,0.29-1.23,0.76-1.7
		c0.41-0.47,1-0.7,1.64-0.7h32.02c1.351,0,2.4,1.05,2.4,2.4c0,1.35-1.05,2.399-2.4,2.399H76.03z M152.35,183.26
		c4.74,0,9.25-1.87,12.58-5.271c3.391-3.34,5.21-7.84,5.21-12.58c0.061-4.8-1.81-9.25-5.21-12.64c0.391-0.931,0.601-1.92,0.62-2.91
		c0.04-2.07-0.729-4.16-2.319-5.76c-2.211-2.17-5.73-2.79-8.62-1.66l-8.99-8.99c-0.71-0.71-1.49-1.33-2.3-1.89
		c-1.91-1.32-4.07-2.23-6.32-2.721c-2.71-0.59-5.54-0.569-8.24,0.061c-1.7,0.39-3.34,1.03-4.859,1.9
		c-1.261,0.72-2.45,1.59-3.511,2.649c-1.22,1.2-2.22,2.55-3.02,4c-1.43,2.601-2.19,5.54-2.19,8.58c-0.06,4.74,1.811,9.25,5.21,12.64
		l8.91,8.91c-0.25,0.58-0.43,1.2-0.54,1.83c-0.069,0.43-0.12,0.87-0.12,1.32s0.04,0.89,0.12,1.32l0.11,0.529
		c0.24,0.99,0.66,1.92,1.25,2.74c0.24,0.34,0.51,0.66,0.81,0.96c0.49,0.49,1.04,0.9,1.63,1.23c1.181,0.68,2.53,1.05,3.94,1.05
		c1.09,0,2.15-0.221,3.13-0.62l0.09,0.09l0.181,0.16v14.36h-6.2c-2.11,0-3.75,1.699-3.75,3.75c0,2.05,1.64,3.75,3.75,3.75h22.359
		c2.051,0,3.75-1.641,3.75-3.75c0-2.051-1.64-3.75-3.75-3.75h-6.199v-9.511C150.66,183.18,151.5,183.26,152.35,183.26z
		 M135.97,172.7c-0.35-0.08-0.689-0.25-0.95-0.5c-0.35-0.41-0.59-0.939-0.59-1.46c0-0.25,0.04-0.47,0.11-0.689
		c0.09-0.28,0.24-0.54,0.479-0.78l21.131-21.13c0.409-0.351,0.88-0.59,1.52-0.59c0.53,0,1,0.18,1.4,0.699
		c0.71,0.66,0.8,1.721,0.279,2.521c-0.08,0.12-0.17,0.24-0.279,0.35l-7.311,7.29l-2.62,2.61l-3,2.99l-4.22,4.21l-2.05,2.05
		l-0.86,0.85l-1.069,1.07l-0.12,0.1C137.33,172.72,136.62,172.85,135.97,172.7z M124.49,137.61c1.24-1.24,2.689-2.16,4.27-2.75
		c1.33-0.5,2.74-0.76,4.21-0.76c3.221,0,6.2,1.229,8.49,3.51l8.49,8.49l-16.97,16.97l-8.49-8.49c-2.28-2.279-3.51-5.27-3.51-8.49
		C120.98,142.879,122.21,139.89,124.49,137.61z M149.84,177.02c-2.05-0.41-4-1.32-5.58-2.75l16.931-16.931
		c2.029,2.211,3.109,5.08,3.109,8.07c0,3.22-1.229,6.2-3.51,8.49C157.93,176.75,153.7,177.78,149.84,177.02"/>
	<path clip-path="url(#SVGID_2_)" fill="#49B7EB" d="M163.41,85.16l-1.99-16.56l-1.99,16.56l-10.13,1.36v1.5l10.13,1.36l1.99,16.56
		l1.99-16.56l15.8-2.11L163.41,85.16z M17.73,106.12l-1.29,11.12l-10.59,1.4l10.59,1.41l1.29,11.06l1.35-11.06l10.59-1.41
		l-10.59-1.4L17.73,106.12z M162.42,55.96l1.29,11.12l1.34-11.12l10.54-1.41l-10.54-1.4l-1.34-11.12l-1.29,11.12l-10.59,1.4
		L162.42,55.96z M14.69,106.41l1.64-13.7l13.05-1.75l-13.05-1.7l-1.64-13.75l-1.64,13.75l-13.04,1.7H0h0.01l13.04,1.75L14.69,106.41
		z"/>
	<path clip-path="url(#SVGID_2_)" fill="#49B7EB" d="M172.66,100.55c1.618,0,2.93,1.312,2.93,2.93s-1.312,2.93-2.93,2.93
		s-2.93-1.312-2.93-2.93S171.042,100.55,172.66,100.55"/>
	<path clip-path="url(#SVGID_2_)" fill="#49B7EB" d="M26.33,77.14c1.618,0,2.93,1.312,2.93,2.93S27.948,83,26.33,83
		s-2.93-1.312-2.93-2.93S24.712,77.14,26.33,77.14"/>
	<path clip-path="url(#SVGID_2_)" fill="#49B7EB" d="M149.25,36.17c1.618,0,2.93,1.312,2.93,2.93c0,1.618-1.312,2.93-2.93,2.93
		s-2.93-1.312-2.93-2.93C146.32,37.482,147.632,36.17,149.25,36.17"/>
</g>
</svg>
