<?xml version="1.0" encoding="utf-8"?>
<!-- Generator: Adobe Illustrator 16.0.0, SVG Export Plug-In . SVG Version: 6.00 Build 0)  -->
<!DOCTYPE svg PUBLIC "-//W3C//DTD SVG 1.1//EN" "http://www.w3.org/Graphics/SVG/1.1/DTD/svg11.dtd">
<svg version="1.1" id="Слой_1" xmlns="http://www.w3.org/2000/svg" xmlns:xlink="http://www.w3.org/1999/xlink" x="0px" y="0px"
	 width="187.78px" height="199.99px" viewBox="0 0 187.78 199.99" enable-background="new 0 0 187.78 199.99" xml:space="preserve">
<g>
	<defs>
		<rect id="SVGID_1_" width="187.78" height="199.99"/>
	</defs>
	<clipPath id="SVGID_2_">
		<use xlink:href="#SVGID_1_"  overflow="visible"/>
	</clipPath>
	<path clip-path="url(#SVGID_2_)" fill="#FCB017" d="M127.66,6.29v23.17c1.979,2.5,3.01,5.24,2.939,8.07
		c-0.109,5-3.399,9.38-8.83,12.61l25.98,64.96c2.52-3.37,6.29-5.82,10.8-6.591c9.22-1.569,17.95,4.53,19.5,13.631
		c0.79,4.67-0.47,9.21-3.13,12.75c0.25,2.08,0.36,4.159,0.34,6.229c7.96-13.83,12.521-29.88,12.521-47
		C187.77,54.06,162.83,19.82,127.66,6.29z M151.42,43.12c2.37,0,4.29,1.92,4.29,4.29s-1.92,4.29-4.29,4.29s-4.29-1.92-4.29-4.29
		S149.05,43.12,151.42,43.12 M140.89,71.65l-1.35-11.71l-11.18-1.47l11.18-1.53l1.35-11.71l1.41,11.71l11.181,1.53L142.3,59.94
		L140.89,71.65z M163.77,88.77l-2,16.65l-2-16.65l-15.819-2.12l15.819-2.12l2-16.65l2,16.65l15.881,2.12L163.77,88.77z M62.71,36.35
		c0.04-2.67,1.04-5.21,2.88-7.53V6.41c0.12-0.12,0.24-0.18,0.35-0.24c-0.24-0.59-0.35-1.18-0.35-1.82C27.59,16.41,0,52,0,94.11
		c0,8.63,1.16,16.979,3.33,24.92c2.79-7.32,10.52-11.89,18.64-10.51c5.66,0.96,10.18,4.6,12.48,9.359l0.83-1.62
		c-0.96-7.25,1.58-15.89,12.6-24.7l0.15-0.29c-3.54-4.24-6.56-1.37-8.09-3.35c-1.53-1.94,2.24-7.59,2.24-7.59
		c0.59-0.82,1.47-1.47,2.47-1.53c2.94-0.17,5.76,1.38,8.08,3.26l17.19-33.65c-1.15-0.83-2.19-1.7-3.09-2.64
		C64.07,42.94,62.66,39.65,62.71,36.35 M40.89,53.71c2.37,0,4.29,1.92,4.29,4.29c0,2.37-1.92,4.29-4.29,4.29
		c-2.37,0-4.29-1.92-4.29-4.29C36.6,55.63,38.52,53.71,40.89,53.71 M16.24,90.88c-2.37,0-4.29-1.92-4.29-4.29s1.92-4.29,4.29-4.29
		c2.37,0,4.29,1.92,4.29,4.29S18.62,90.88,16.24,90.88 M31.83,74.82l-2.71,22.41l-2.7-22.41L5.13,72l21.29-2.82l2.71-22.47
		l2.71,22.47L53.13,72L31.83,74.82"/>
	<path clip-path="url(#SVGID_2_)" fill="#E6E7E8" d="M22.22,141.44c-1.88,0.33-3.84,0.37-5.83,0.03
		c-1.58-0.271-3.06-0.761-4.44-1.41c-0.32-0.15-0.63-0.311-0.94-0.48c-0.08,3.92,0.39,7.79,1.39,11.54l5.57-0.85l0.52-0.08l5.1-0.78
		c-0.76-2.38-1.23-4.9-1.34-7.52C22.22,141.73,22.22,141.58,22.22,141.44z M21.04,114.101c-6.12-1.04-11.91,3-12.93,9.02
		c-0.1,0.561-0.13,1.12-0.14,1.68c-0.05,3.23,1.34,6.25,3.67,8.351c1.54,1.39,3.48,2.38,5.69,2.76c1.84,0.311,3.65,0.16,5.31-0.36
		c1.45-0.46,2.79-1.199,3.93-2.17c1.31-1.12,2.36-2.54,3.03-4.189c0.3-0.73,0.52-1.49,0.66-2.3c0.05-0.32,0.09-0.641,0.11-0.971
		C30.83,120.26,26.83,115.08,21.04,114.101z M158.27,141.41c-0.079,2.79-0.56,5.46-1.359,7.98l4.84,0.739l6.34,0.971
		c1-3.74,1.47-7.62,1.391-11.53c-1.62,0.89-3.41,1.54-5.341,1.87C162.14,141.79,160.16,141.75,158.27,141.41 M172.42,123.101
		c-1.02-6.021-6.81-10.061-12.93-9.021c-4.44,0.76-7.82,3.98-8.95,7.99c-0.43,1.52-0.55,3.14-0.271,4.79
		c0.141,0.81,0.37,1.59,0.671,2.32c0.909,2.229,2.529,4.04,4.54,5.25c0.739,0.439,1.529,0.81,2.369,1.069
		c1.67,0.53,3.5,0.69,5.351,0.38c2.189-0.37,4.12-1.35,5.649-2.72c2.36-2.11,3.771-5.16,3.71-8.42
		C172.55,124.19,172.51,123.65,172.42,123.101z M120.36,136.24l-14.471-0.94c-1.71-0.06-3.35-0.529-4.88-1.35
		c-4.35-2.24-6.939-6.88-6.649-11.76l0.029-0.38l-2.689-0.24l-0.04,0.56c-0.24,3.29-1.71,6.29-4.18,8.471
		c-2.47,2.18-5.65,3.239-8.94,3.06l-14.47-0.939c-1.71-0.12-3.35-0.591-4.88-1.351c-2.2-1.13-3.95-2.88-5.11-4.97
		c-0.04,0.729-0.07,1.47-0.07,2.21c0,12.99,6.5,24.46,16.43,31.34c1.63,1.13,3.36,2.15,5.16,3.021c1.45,0.699,2.96,1.3,4.5,1.81
		c2.4,0.8,4.91,1.36,7.5,1.67c1.49,0.18,3,0.28,4.53,0.28l0.59-0.021c2.419-0.04,4.79-0.29,7.08-0.76c2.19-0.45,4.3-1.09,6.34-1.9
		c1.431-0.569,2.82-1.21,4.16-1.93l0.04-0.02c0.51-0.28,1.01-0.57,1.5-0.86c9.99-6.05,16.98-16.56,18.21-28.77
		c-0.24,0.25-0.479,0.489-0.75,0.729C126.83,135.351,123.66,136.41,120.36,136.24z M102.44,151.29l-0.061,0.04l-0.2,0.13h-0.01
		c-1.689,1.12-3.4,1.82-5.07,2.2c-0.359,0.08-0.72,0.15-1.08,0.2c-1.039,0.149-2.069,0.189-3.06,0.14
		c-1.59-0.08-3.11-0.399-4.5-0.83c-2.04-0.64-3.8-1.529-5.14-2.319c-1.02-0.58-2-1.25-2.91-1.98l-0.42-0.36
		c-3.6-3.02-6.2-6.989-6.99-11.399l38.88,1.76C110.65,144.271,107.14,148.771,102.44,151.29z M80.54,102.94
		c6.64,0.41,11.93,6.52,11.53,13.1l2.69,0.24l0.01-0.16c0.41-6.82,6.29-11.939,13.12-11.53l14.471,0.94l0.12,0.01
		c-6.961-9.16-17.971-15.07-30.36-15.07c-10.7,0-20.37,4.42-27.29,11.52c0.41-0.02,0.82-0.01,1.23,0.01L80.54,102.94"/>
	<path clip-path="url(#SVGID_2_)" fill="#B1B3B3" d="M102.18,151.471l-0.01,0.01L102.18,151.471z M81.3,149.53l0.35,0.229
		l-0.34-0.25L81.3,149.53z M97.14,145.09c-1.199-0.68-2.58-1.199-4.189-1.5c-3.74-0.71-7.11-0.3-9.32,1.721
		c-0.65,0.59-1.2,1.33-1.63,2.22c2.87,2.21,5.63,3.38,8.17,3.88l0.18,0.03c4.76,0.88,8.69-0.55,10.95-1.73l0.141-0.08
		c-0.46-0.92-1.021-1.76-1.69-2.5C99.01,146.34,98.14,145.65,97.14,145.09z"/>
	<path clip-path="url(#SVGID_2_)" d="M122.48,105.54l-0.12-0.01l-14.471-0.94c-6.819-0.409-12.71,4.71-13.12,11.53l-0.01,0.16
		l-2.69-0.24c0.4-6.58-4.89-12.68-11.53-13.1L66.07,102c-0.41-0.02-0.83-0.02-1.23-0.01c-2.8,0.11-5.46,1.14-7.61,2.99l-0.1,0.08
		c-1.96,1.729-3.28,3.97-3.86,6.47c-0.15,0.65-0.27,1.32-0.32,2l-0.41,6.06c-0.15,2.41,0.41,4.761,1.54,6.79
		c1.15,2.091,2.9,3.841,5.11,4.971c1.53,0.76,3.18,1.239,4.88,1.35l14.47,0.94c3.29,0.18,6.47-0.881,8.94-3.061s3.94-5.18,4.18-8.47
		l0.04-0.561l2.689,0.24l-0.029,0.38c-0.29,4.88,2.29,9.53,6.649,11.761c1.53,0.819,3.181,1.29,4.88,1.35l14.471,0.94
		c3.29,0.18,6.47-0.881,8.939-3.061c0.26-0.229,0.51-0.479,0.75-0.729c2.021-2.101,3.22-4.801,3.431-7.75l0.409-6.061
		C134.3,112.101,129.07,106.021,122.48,105.54z M83.89,126.41c-1.35,1.24-3.12,1.82-4.94,1.71l-14.47-0.939
		c-3.76-0.24-6.65-3.591-6.41-7.24l0.41-6.061c0.12-1.819,0.94-3.529,2.29-4.71c1.35-1.239,3.12-1.819,4.94-1.71l14.47,0.94
		c0.94,0.06,1.88,0.35,2.71,0.76c2.41,1.29,3.88,3.82,3.71,6.47l-0.41,6.061C86.07,123.53,85.24,125.181,83.89,126.41
		 M128.42,118.351l-0.41,6.06c-0.12,1.82-0.939,3.47-2.29,4.71c-1.35,1.24-3.12,1.82-4.939,1.71l-14.471-0.939
		c-3.71-0.29-6.649-3.65-6.409-7.29l0.409-6.061c0.24-3.76,3.471-6.649,7.24-6.41l14.47,0.94c0.94,0.06,1.881,0.35,2.711,0.76
		c1.39,0.71,2.43,1.88,3.06,3.25c0.19,0.42,0.35,0.851,0.46,1.29C128.38,117.01,128.45,117.681,128.42,118.351z"/>
	<path clip-path="url(#SVGID_2_)" fill="#373737" d="M178.04,122.141c-1.55-9.101-10.28-15.2-19.5-13.631
		c-4.5,0.771-8.28,3.221-10.8,6.591c-2.641,3.529-3.9,8.06-3.101,12.72c0.851,5.02,3.9,9.11,8,11.53
		c0.46,9.67-4.979,17.89-11.989,22.6c-4.29,2.84-10.381,3.6-17.021,2.78l-0.439-2.63c6.35-5.87,11.119-13.601,13.35-22.63
		c2.06-8.29,1.71-16.591-0.65-24.181c-3.12-10.25-9.81-19.25-19-25.16c-18.31-40.01-50.74-14.76-61.12-5.15
		c-0.85-0.94-1.88-1.96-3.04-2.91c-2.32-1.88-5.14-3.43-8.08-3.26c-1,0.06-1.88,0.71-2.47,1.53c0,0-3.76,5.65-2.24,7.59
		c1.53,1.97,4.55-0.89,8.09,3.35l0.09,0.1l-0.23,0.18c-11.02,8.8-13.56,17.45-12.6,24.7c1.48,11.171,11.3,19.03,11.3,19.03
		l0.13-0.91c1.45,11.21,7.02,21.48,15.51,28.811l-0.16,0.609c-8.58,1.98-16.8,1.7-22.18-1.869c-7.01-4.7-12.45-12.921-11.99-22.591
		c4.09-2.409,7.13-6.5,7.98-11.51c0.6-3.51,0.03-6.95-1.42-9.95c-2.3-4.76-6.82-8.399-12.48-9.359
		c-8.12-1.38-15.85,3.189-18.64,10.51c-0.38,0.99-0.67,2.04-0.86,3.12c-0.8,4.68,0.48,9.229,3.14,12.77
		c-2.11,17.65,5.75,35.13,21.68,45.78c2.24,1.47,4.65,2.82,7.12,3.94c6.46,2.97,13.63,4.71,20.77,5.119l-2.71,10.23h77.06
		l-1.75-10.43c6.33-0.63,12.61-2.29,18.33-4.92c2.47-1.12,4.88-2.471,7.12-3.94c14.06-9.4,21.83-24.12,22.01-39.59
		c0.02-2.07-0.09-4.15-0.34-6.23C177.57,131.351,178.84,126.811,178.04,122.141 M18.48,150.181l-0.52,0.079l-5.57,0.851
		c-1-3.74-1.47-7.62-1.39-11.54c0.31,0.17,0.62,0.33,0.94,0.479c1.38,0.65,2.86,1.141,4.44,1.41c1.99,0.34,3.96,0.3,5.83-0.029
		l0.01,0.439c0.12,2.62,0.59,5.13,1.34,7.521L18.48,150.181z M26.57,133.37c-1.14,0.98-2.48,1.71-3.93,2.17
		c-1.66,0.521-3.47,0.681-5.31,0.36c-2.21-0.38-4.15-1.37-5.69-2.76c-2.33-2.101-3.72-5.12-3.67-8.351
		c0.01-0.56,0.04-1.12,0.14-1.68c1.02-6.021,6.81-10.061,12.93-9.021c5.79,0.98,9.79,6.16,9.33,11.82
		c-0.03,0.32-0.06,0.64-0.11,0.97c-0.14,0.801-0.36,1.57-0.66,2.301C28.93,130.82,27.88,132.25,26.57,133.37 M111.84,161.221
		c-0.49,0.3-0.99,0.59-1.5,0.859l-0.04,0.021c-1.34,0.729-2.729,1.37-4.16,1.93c-2.029,0.8-4.149,1.45-6.34,1.9
		c-2.29,0.47-4.66,0.72-7.08,0.76l-0.59,0.02c-1.53,0-3.04-0.1-4.53-0.279c-2.59-0.311-5.09-0.87-7.5-1.671
		c-1.54-0.51-3.05-1.109-4.5-1.81c-1.81-0.87-3.53-1.89-5.16-3.02c-9.92-6.881-16.43-18.351-16.43-31.341
		c0-0.739,0.03-1.479,0.07-2.21c-1.12-2.029-1.68-4.38-1.54-6.79l0.41-6.06c0.05-0.68,0.16-1.35,0.32-2c0.58-2.5,1.9-4.75,3.86-6.47
		l0.1-0.08c2.14-1.851,4.8-2.88,7.61-2.99c6.92-7.1,16.59-11.52,27.29-11.52c12.39,0,23.4,5.92,30.36,15.07
		c6.59,0.48,11.819,6.561,11.41,13.101l-0.41,6.06c-0.21,2.94-1.41,5.65-3.431,7.75C128.82,144.66,121.83,155.17,111.84,161.221z
		 M168.1,151.11l-6.34-0.97l-4.84-0.74c0.8-2.521,1.28-5.2,1.36-7.98v-0.01c1.89,0.34,3.87,0.38,5.87,0.04
		c1.93-0.33,3.72-0.979,5.34-1.87C169.57,143.49,169.1,147.37,168.1,151.11 M168.85,133.16c-1.529,1.37-3.46,2.35-5.649,2.72
		c-1.86,0.32-3.681,0.16-5.351-0.38c-0.83-0.27-1.63-0.63-2.369-1.069c-2.011-1.21-3.62-3.021-4.54-5.25
		c-0.301-0.73-0.53-1.511-0.671-2.32c-0.279-1.65-0.159-3.28,0.271-4.79c1.13-4.01,4.52-7.24,8.95-7.99
		c6.12-1.04,11.91,3,12.93,9.021c0.09,0.55,0.13,1.1,0.14,1.64C172.62,128,171.21,131.05,168.85,133.16z M80,148.521l0.42,0.359
		c0.92,0.73,1.89,1.391,2.91,1.98c1.33,0.8,3.1,1.689,5.14,2.32c1.39,0.43,2.91,0.75,4.5,0.829c0.99,0.051,2.02,0.011,3.06-0.14
		c0.359-0.05,0.71-0.12,1.08-0.2c1.67-0.38,3.38-1.08,5.069-2.199l0.011-0.011l0.199-0.13l0.061-0.04c4.7-2.53,8.21-7.02,9.45-12.41
		l-38.88-1.76C73.8,141.53,76.4,145.5,80,148.521z M83.63,145.311c2.21-2.021,5.57-2.431,9.32-1.721c1.62,0.301,2.99,0.82,4.189,1.5
		c1,0.561,1.87,1.25,2.591,2.04c0.68,0.74,1.239,1.58,1.689,2.5l-0.14,0.08c-2.261,1.181-6.19,2.61-10.95,1.73l-0.18-0.03
		c-2.54-0.5-5.3-1.67-8.17-3.88C82.43,146.63,82.98,145.9,83.63,145.311z M81.31,149.51l0.34,0.25l-0.35-0.229L81.31,149.51z
		 M77.66,119.351l-0.47,4.47l4.53,0.53l0.53-4.29c0.64-5.53-3.3-10.53-8.83-11.181c-5.53-0.649-10.53,3.29-11.18,8.82l-0.59,4.24
		l3.88,0.53l0.59-4.24c0.24-2.351,2.18-5.471,6.35-5.24C76.24,113.181,78.07,115.82,77.66,119.351 M114.3,112.24
		c-5.53-0.65-10.53,3.29-11.18,8.82l-0.53,4.29l3.88,0.529l0.53-4.29c0.24-2.35,2.18-5.47,6.35-5.239
		c3.761,0.18,5.591,2.819,5.181,6.35l-0.471,4.47l4.53,0.53l0.53-4.29C123.77,117.88,119.83,112.88,114.3,112.24"/>
	<path clip-path="url(#SVGID_2_)" fill="#808184" d="M127.42,6.18C117.01,2.18,105.71,0,93.89,0c-7.88,0-15.53,1-22.88,2.82
		c-1.82,0.47-3.65,0.94-5.41,1.53c0,0.65,0.12,1.24,0.35,1.82c-0.12,0.06-0.24,0.12-0.35,0.24v22.41c0.96-1.2,2.12-2.35,3.53-3.41
		l0.88-0.59c6.18-4.29,15.59-6.71,25.94-6.71h1.06c9.12,0.18,17.82,2.29,23.94,5.88h0.41l0.71,0.59c2.31,1.46,4.189,3.11,5.59,4.87
		V6.29C127.6,6.24,127.48,6.18,127.42,6.18"/>
	<path clip-path="url(#SVGID_2_)" fill="#FFCE13" d="M111.01,37.71c-1.88-1.06-6.939-2.53-14.649-2.53
		c-7.71,0-12.76,1.41-14.65,2.53c1.88,1.06,6.94,2.53,14.65,2.53C104.01,40.24,109.13,38.77,111.01,37.71 M119.3,29.88h-0.06
		l-0.71-0.47c-5.29-3.29-13.24-5.29-21.71-5.41h-1c-9.41,0-18.061,2.29-23.18,6.06l-0.71,0.59c-2.29,1.94-3.35,3.88-3.41,5.82
		c-0.06,1.76,0.76,3.53,2.47,5.24c1.93,2.01,4.79,3.73,8.23,5.08c4.84,1.9,10.83,3.05,17.12,3.15h1.24
		c9.52,0,17.21-2.27,21.939-5.37c3.25-2.13,5.101-4.65,5.171-7.1C124.71,34.88,122.83,32.18,119.3,29.88 M75.24,37.71
		c0-6.24,11.35-8.41,21.06-8.41s21.061,2.18,21.061,8.41s-11.29,8.41-21.061,8.41C86.6,46.12,75.24,43.94,75.24,37.71"/>
	<path clip-path="url(#SVGID_2_)" fill="#6D6E70" d="M127.66,29.46c-1.4-1.77-3.271-3.41-5.59-4.87L121.36,24h-0.41
		c-6.12-3.59-14.82-5.71-23.94-5.88h-1.06c-10.35,0-19.76,2.41-25.94,6.71l-0.88,0.59c-1.41,1.06-2.57,2.21-3.53,3.41
		c-1.84,2.32-2.84,4.86-2.88,7.53c-0.06,3.29,1.35,6.59,4.12,9.41c0.89,0.94,1.94,1.82,3.09,2.64c6.21,4.46,15.91,7.22,26.379,7.42
		h1.29c9.721,0,18.23-2.14,24.17-5.68c5.421-3.23,8.711-7.62,8.83-12.61C130.67,34.7,129.64,31.96,127.66,29.46 M96.36,49.94
		c-6.291-0.1-12.291-1.26-17.12-3.15c-3.44-1.35-6.3-3.08-8.23-5.08c-1.71-1.71-2.53-3.47-2.47-5.24c0.06-1.94,1.12-3.88,3.41-5.82
		l0.71-0.59C77.78,26.3,86.42,24,95.84,24h1c8.47,0.12,16.41,2.12,21.71,5.41l0.71,0.47h0.061c3.529,2.29,5.41,5,5.41,7.59
		c-0.07,2.44-1.921,4.97-5.171,7.1c-4.729,3.1-12.43,5.37-21.939,5.37H96.36z"/>
	<path clip-path="url(#SVGID_2_)" fill="#FFE99E" d="M152.65,139.351c-4.101-2.41-7.15-6.511-8-11.53
		c-0.79-4.66,0.46-9.19,3.1-12.72l-25.98-64.96c-5.939,3.54-14.449,5.68-24.17,5.68h-1.29c-10.47-0.2-20.169-2.96-26.379-7.42
		L52.74,82.09c1.16,0.94,2.18,1.97,3.04,2.91c10.37-9.61,42.8-34.87,61.121,5.15c9.189,5.91,15.88,14.91,19,25.16
		c2.35,7.59,2.71,15.88,0.649,24.18c-2.229,9.02-7,16.75-13.35,22.63l0.439,2.63c6.641,0.811,12.74,0.061,17.021-2.779
		C147.67,157.24,153.1,149.01,152.65,139.351z M46.72,134.391l-0.13,0.909c0,0-9.82-7.85-11.3-19.029l-0.83,1.62
		c1.44,3,2.01,6.43,1.42,9.949c-0.85,5.011-3.89,9.101-7.98,11.511c-0.45,9.659,4.98,17.88,11.99,22.59
		c5.38,3.569,13.6,3.85,22.18,1.87l0.16-0.61C53.75,155.87,48.17,145.59,46.72,134.391 M48.04,91.29l-0.15,0.29l0.23-0.18
		L48.04,91.29 M96.3,46.12c9.76,0,21.061-2.18,21.061-8.41S106.01,29.3,96.3,29.3s-21.06,2.18-21.06,8.41S86.6,46.12,96.3,46.12
		 M96.36,35.18c7.71,0,12.76,1.47,14.649,2.53c-1.88,1.06-7,2.53-14.649,2.53c-7.71,0-12.76-1.47-14.65-2.53
		C83.6,36.59,88.66,35.18,96.36,35.18"/>
	<path clip-path="url(#SVGID_2_)" fill="#FFFFFF" d="M82.89,109.181c-0.82-0.41-1.76-0.71-2.71-0.761l-14.47-0.939
		c-1.82-0.12-3.59,0.47-4.94,1.71c-1.35,1.18-2.18,2.88-2.29,4.71l-0.41,6.06c-0.24,3.65,2.65,7,6.41,7.24l14.47,0.94
		c1.82,0.119,3.59-0.471,4.94-1.71c1.35-1.24,2.18-2.881,2.29-4.71l0.41-6.061C86.77,113,85.3,110.471,82.89,109.181 M82.24,120.061
		l-0.53,4.29l-4.53-0.53l0.47-4.47c0.41-3.53-1.41-6.181-5.18-6.351c-4.18-0.24-6.12,2.88-6.35,5.24l-0.59,4.24l-3.88-0.53
		l0.59-4.24c0.65-5.529,5.65-9.47,11.18-8.819C78.95,109.53,82.89,114.53,82.24,120.061 M127.77,115.07
		c-0.619-1.37-1.67-2.54-3.06-3.25c-0.82-0.41-1.76-0.71-2.71-0.76l-14.47-0.94c-3.761-0.24-7,2.65-7.24,6.41l-0.41,6.06
		c-0.24,3.65,2.71,7,6.41,7.29l14.47,0.94c1.82,0.12,3.59-0.47,4.94-1.71c1.35-1.24,2.18-2.88,2.29-4.71l0.41-6.061
		c0.029-0.68-0.04-1.34-0.19-1.989C128.12,115.92,127.96,115.49,127.77,115.07z M123.13,123.41l-0.53,4.29l-4.529-0.53l0.47-4.47
		c0.41-3.53-1.41-6.18-5.18-6.35c-4.181-0.24-6.12,2.88-6.351,5.239l-0.529,4.29l-3.881-0.529l0.53-4.29
		c0.65-5.53,5.65-9.471,11.18-8.82C119.83,112.88,123.77,117.88,123.13,123.41z M29.13,46.71l-2.71,22.47L5.13,72l21.29,2.82
		l2.71,22.42l2.7-22.42L53.13,72l-21.3-2.82L29.13,46.71z M163.77,84.53l-2-16.65l-2,16.65l-15.819,2.12l15.819,2.12l2,16.64
		l2-16.64l15.891-2.12L163.77,84.53z M142.3,56.94l-1.41-11.7l-1.35,11.7l-11.18,1.53l11.18,1.47l1.35,11.71l1.41-11.71l11.181-1.47
		L142.3,56.94z"/>
	<path clip-path="url(#SVGID_2_)" fill="#FFFFFF" d="M40.89,53.71c2.369,0,4.29,1.921,4.29,4.29c0,2.369-1.921,4.29-4.29,4.29
		c-2.369,0-4.29-1.921-4.29-4.29C36.6,55.631,38.521,53.71,40.89,53.71"/>
	<path clip-path="url(#SVGID_2_)" fill="#FFFFFF" d="M151.42,43.12c2.369,0,4.29,1.921,4.29,4.29s-1.921,4.29-4.29,4.29
		s-4.29-1.921-4.29-4.29S149.051,43.12,151.42,43.12"/>
	<path clip-path="url(#SVGID_2_)" fill="#FFFFFF" d="M16.24,82.3c2.369,0,4.29,1.921,4.29,4.29s-1.921,4.29-4.29,4.29
		c-2.369,0-4.29-1.921-4.29-4.29S13.871,82.3,16.24,82.3"/>
</g>
</svg>
