<?xml version="1.0" encoding="utf-8"?>
<!-- Generator: Adobe Illustrator 16.0.0, SVG Export Plug-In . SVG Version: 6.00 Build 0)  -->
<!DOCTYPE svg PUBLIC "-//W3C//DTD SVG 1.1//EN" "http://www.w3.org/Graphics/SVG/1.1/DTD/svg11.dtd">
<svg version="1.1" id="Слой_1" xmlns="http://www.w3.org/2000/svg" xmlns:xlink="http://www.w3.org/1999/xlink" x="0px" y="0px"
	 width="189.711px" height="200.253px" viewBox="0 0 189.711 200.253" enable-background="new 0 0 189.711 200.253"
	 xml:space="preserve">
<g>
	<defs>
		<rect id="SVGID_1_" width="189.711" height="200.253"/>
	</defs>
	<clipPath id="SVGID_2_">
		<use xlink:href="#SVGID_1_"  overflow="visible"/>
	</clipPath>
	<path clip-path="url(#SVGID_2_)" fill="#BBD758" d="M101,199.233H88.72C92.69,200.593,97.03,200.593,101,199.233 M113.1,133.373
		c0.221,1.16,0.41,2.37,0.57,3.6C113.52,135.743,113.32,134.543,113.1,133.373 M180.74,43.893l-76.87-41.62
		c-5.59-3.03-12.43-3.03-18.01,0L8.98,43.893C3.45,46.923,0,52.513,0,58.513v83.23c0,6.06,3.39,11.59,8.98,14.62l16.13,8.729
		c-10.23-13.06-16.25-28.979-16.25-46.13c0-23.71,11.5-45.06,29.74-59.77c0.17-8.06,6.75-14.54,14.85-14.54h10.93
		c5.08-1.87,10.39-3.34,15.89-4.34c0.69-7.56,7.05-13.49,14.79-13.49c8.2,0,14.86,6.66,14.86,14.86v2.97h26.75
		c8.2,0,14.86,6.66,14.86,14.86v101.45c11.05-11.22,17.779-25.91,17.779-42c0-0.59-0.18-6.78,3.33-10.4
		c3.15-3.27,8.98-3.27,11.95,0.061c3.271,3.689,2.68,9.93,2.62,10.64c0,14.601-4.42,28.33-12.12,40.15l5.641-3.05
		c5.59-2.971,9.039-8.561,8.979-14.62v-83.23C189.71,52.453,186.32,46.923,180.74,43.893z M38.59,154.193v-70.17
		c-8.06,9.77-11.95,21.18-11.95,34.95C26.64,131.983,31.05,144.093,38.59,154.193 M131.03,142.933c0-1.68-0.12-3.33-0.34-4.949
		C130.92,139.603,131.03,141.253,131.03,142.933 M130.7,137.983c-0.22-1.62-0.55-3.2-0.99-4.74
		C130.14,134.783,130.47,136.363,130.7,137.983"/>
	<path clip-path="url(#SVGID_2_)" fill="#DBDBDB" d="M180.14,112.613c-0.479-0.54-2.199-0.891-3.21,0.12
		c-1.37,1.43-1.72,4.76-1.66,6.119c0,19.71-9.109,37.511-23.72,50.21v6.771c3.74-2.811,7.21-5.91,10.351-9.26
		c12.09-12.9,19.38-29.5,19.38-47.59C181.45,117.253,181.39,113.923,180.14,112.613z M14.81,118.973
		c0,20.19,9.08,38.521,23.78,51.931v-7.431c-11.17-12.069-17.89-27.59-17.89-44.5c0-16.76,5.17-30.38,15.87-41.67
		c0.1-0.15,0.78-1.08,2.02-2.5v-7.76C23.89,80.453,14.81,98.783,14.81,118.973"/>
	<path clip-path="url(#SVGID_2_)" fill="#A6A8AB" d="M59.4,142.933c0-19.8,16.05-35.85,35.85-35.85c7.85,0,15.1,2.56,20.93,6.84
		l13.101-15.75H44.53v86.2c0,3.87,2.46,7.149,5.9,8.38l3.41-4.1l1.92-2.311l1.98-2.38l0.69-0.83l2.54-3.06l1.96-2.36l1.96-2.36
		l5.56-6.68C63.62,162.193,59.4,153.043,59.4,142.933z M130.98,143.823c-0.36,17.06-12.721,31.149-29.011,34.18l-3.939,4.64
		l-2.48,2.92l-2.45,2.881l-3.77,4.439l-0.35,0.41h47.71c3.979,0,7.34-2.6,8.489-6.19c0.271-0.859,0.431-1.77,0.431-2.729v-57.69
		L130.98,143.823z"/>
	<path clip-path="url(#SVGID_2_)" fill="#009435" d="M136.68,50.603h-26.75v8.92c0,0.63-0.05,1.24-0.13,1.85
		c1.95,2.86,3.101,6.32,3.101,10.04c0,9.85-7.99,17.84-17.841,17.84c-9.85,0-17.83-7.99-17.83-17.84c0-3.73,1.15-7.18,3.1-10.04
		c-0.08-0.61-0.13-1.22-0.13-1.85v-8.92H53.45c-1.05,0-2.05,0.19-2.98,0.52c-1.12,0.4-2.13,1.01-2.99,1.79
		c-1.52,1.37-2.56,3.26-2.85,5.4c-0.05,0.4-0.09,0.8-0.09,1.22v32.7h101.07v-32.7C145.6,54.593,141.62,50.603,136.68,50.603"/>
	<path clip-path="url(#SVGID_2_)" fill="#E6E7E8" d="M103.83,40.053c-0.771-4.15-4.39-7.28-8.76-7.28c-4.14,0-7.6,2.81-8.61,6.62
		c-0.19,0.73-0.31,1.5-0.31,2.3v17.84c0,4.93,3.98,8.92,8.92,8.92c4.939,0,8.92-3.98,8.92-8.92v-17.84
		C103.99,41.133,103.93,40.583,103.83,40.053"/>
	<path clip-path="url(#SVGID_2_)" fill="#4B4E49" d="M108.27,121.413c0.301,0.18,0.591,0.479,0.891,0.83l7.02-8.32
		c-5.83-4.28-13.08-6.84-20.93-6.84c-19.8,0-35.85,16.05-35.85,35.85c0,10.11,4.22,19.261,11.06,25.74l8.74-10.4
		c-4.76-5.949-5.77-14.449-1.72-21.399c1.13-1.9,2.73-3.63,3.09-3.98c0.24-0.239,1.31,0.48,0.95,1.011
		c-1.72,6.18-0.89,10.46,1.19,14.569c0.18,0.061,0.95,0.42,1.07,0.12c0.42-12.72,7.07-20.63,14.98-26.04
		C103.21,121.173,106.96,120.703,108.27,121.413 M101.96,178.013c16.29-3.029,28.65-17.12,29.01-34.18L101.96,178.013z"/>
	<path clip-path="url(#SVGID_2_)" fill="#A4CC40" d="M108.27,121.413c-1.31-0.71-5.05-0.24-9.51,1.13
		c-7.91,5.41-14.57,13.32-14.98,26.04c-0.12,0.3-0.89-0.061-1.07-0.12c-2.08-4.1-2.91-8.38-1.19-14.57
		c0.36-0.54-0.71-1.25-0.95-1.01c-0.36,0.36-1.96,2.08-3.09,3.98c-4.04,6.96-3.03,15.46,1.72,21.399l29.96-36.029
		C108.86,121.893,108.56,121.593,108.27,121.413"/>
	<path clip-path="url(#SVGID_2_)" fill="#5B5E58" d="M100.54,178.303c0.479-0.06,0.95-0.18,1.43-0.3l29.011-34.18l0.05-0.36
		l0.01-0.36v-0.18c0-4.479-0.82-8.77-2.32-12.72c-0.5-1.32-1.08-2.601-1.72-3.83c-2.59-4.95-6.3-9.21-10.82-12.45l-7.02,8.32
		c1.42,1.859,2.979,6.09,3.939,11.13c0.221,1.16,0.41,2.37,0.57,3.6c0.1,0.82,0.18,1.65,0.25,2.48c0.061,0.83,0.11,1.67,0.13,2.51
		c0.021,0.84,0.021,1.68-0.01,2.51s-0.08,1.65-0.17,2.471c-0.09,0.819-0.19,1.609-0.33,2.39s-0.31,1.54-0.521,2.28
		c-0.21,0.739-0.439,1.449-0.72,2.14c-0.27,0.69-0.59,1.34-0.93,1.96c-5.17,9.33-17,12.72-26.34,7.49
		c-2.32-1.25-4.28-2.97-5.83-4.931l-8.74,10.4c6.42,6.24,15.1,10.05,24.79,10.05C97.03,178.723,98.81,178.603,100.54,178.303z
		 M101.96,178.013l29.021-34.189L101.96,178.013z M100.54,178.303c0.479-0.06,0.95-0.18,1.43-0.3
		C101.49,178.123,101.01,178.243,100.54,178.303"/>
	<path clip-path="url(#SVGID_2_)" fill="#B4DB53" d="M113.92,139.453c-0.06-0.83-0.15-1.66-0.25-2.48
		c-0.15-1.229-0.34-2.43-0.57-3.6c-0.97-5.04-2.52-9.271-3.939-11.13L79.2,158.272c1.55,1.961,3.51,3.69,5.83,4.931
		c9.331,5.229,21.161,1.84,26.34-7.49c0.35-0.62,0.66-1.28,0.93-1.96c0.271-0.69,0.51-1.4,0.72-2.14
		c0.211-0.74,0.381-1.5,0.521-2.28s0.25-1.58,0.33-2.39c0.08-0.811,0.14-1.641,0.17-2.471s0.03-1.67,0.01-2.51
		C114.02,141.133,113.98,140.293,113.92,139.453"/>
	<path clip-path="url(#SVGID_2_)" fill="#B5B7BA" d="M95.25,178.723c-9.69,0-18.37-3.8-24.79-10.05l-5.56,6.68l-1.96,2.36
		l-1.96,2.36l-2.54,3.06l-0.69,0.83l-1.98,2.38l-1.92,2.311l-3.41,4.1c0.94,0.34,1.96,0.53,3.02,0.53h35.52l0.35-0.41l3.77-4.44
		l2.45-2.88l2.48-2.92l3.939-4.64c-0.479,0.12-0.95,0.24-1.43,0.3C98.81,178.603,97.03,178.723,95.25,178.723z M129.28,98.163
		l-13.101,15.75c4.521,3.24,8.23,7.51,10.82,12.45c0.65,1.239,1.22,2.52,1.72,3.83c1.5,3.949,2.32,8.239,2.32,12.72v0.18l-0.01,0.36
		l-0.05,0.359l14.619-17.14v-28.51H129.28z"/>
	<path clip-path="url(#SVGID_2_)" fill="#373737" d="M184.6,108.633c-2.97-3.33-8.8-3.33-11.949-0.06
		c-3.511,3.63-3.33,9.81-3.33,10.399c0,16.09-6.721,30.79-17.78,42V59.523c0-8.2-6.66-14.86-14.86-14.86h-26.75v-2.97
		c0-8.2-6.66-14.86-14.859-14.86c-7.74,0-14.1,5.93-14.791,13.49c-5.5,1-10.81,2.47-15.89,4.34H53.45c-8.1,0-14.68,6.49-14.85,14.54
		c-18.24,14.71-29.74,36.06-29.74,59.77c0,17.15,6.02,33.07,16.25,46.13c3.91,4.99,8.43,9.561,13.47,13.631v5.64
		c0,8.2,6.66,14.86,14.86,14.86h83.23c8.2,0,14.86-6.66,14.86-14.86v-1.2c9.5-6.42,17.529-14.5,23.55-23.75
		c7.7-11.82,12.12-25.55,12.12-40.15C187.27,118.563,187.87,112.313,184.6,108.633 M151.55,175.833v-6.771
		c14.61-12.689,23.72-30.5,23.72-50.21c-0.06-1.369,0.301-4.699,1.66-6.119c1.011-1.011,2.73-0.65,3.21-0.12
		c1.25,1.31,1.311,4.64,1.13,6.359c0,18.09-7.289,34.69-19.38,47.59C158.75,169.923,155.29,173.022,151.55,175.833z M145.6,184.373
		c0,0.95-0.149,1.87-0.43,2.729c-1.15,3.601-4.51,6.19-8.49,6.19H53.45c-1.06,0-2.07-0.19-3.02-0.53c-3.44-1.24-5.9-4.51-5.9-8.38
		v-86.2H145.6V184.373z M38.59,67.043v7.76c-1.24,1.42-1.92,2.35-2.02,2.5c-10.7,11.3-15.87,24.91-15.87,41.67
		c0,16.91,6.73,32.431,17.89,44.5v7.431c-14.7-13.41-23.78-31.74-23.78-51.931C14.81,98.783,23.89,80.453,38.59,67.043
		 M47.48,52.913c0.86-0.78,1.88-1.39,2.99-1.79c0.93-0.33,1.93-0.52,2.98-0.52H80.2v8.92c0,0.63,0.05,1.24,0.13,1.85
		c-1.95,2.86-3.1,6.32-3.1,10.04c0,9.85,7.99,17.84,17.84,17.84c9.85,0,17.84-7.99,17.84-17.84c0-3.73-1.15-7.18-3.101-10.04
		c0.08-0.61,0.131-1.22,0.131-1.85v-8.92h26.75c4.93,0,8.92,3.98,8.92,8.92v32.7H44.53v-32.7c0-0.41,0.04-0.82,0.09-1.22
		C44.92,56.173,45.96,54.283,47.48,52.913 M86.15,41.693c0-0.8,0.11-1.56,0.31-2.3c1.01-3.82,4.47-6.62,8.61-6.62
		c4.38,0,8,3.13,8.76,7.28c0.1,0.53,0.16,1.08,0.16,1.63v17.84c0,4.93-3.98,8.92-8.92,8.92c-4.94,0-8.92-3.98-8.92-8.92V41.693
		 M38.59,154.193c-7.54-10.101-11.95-22.21-11.95-35.221c0-13.77,3.89-25.18,11.95-34.95V154.193z"/>
</g>
</svg>
