<?xml version="1.0" encoding="utf-8"?>
<!-- Generator: Adobe Illustrator 16.0.0, SVG Export Plug-In . SVG Version: 6.00 Build 0)  -->
<!DOCTYPE svg PUBLIC "-//W3C//DTD SVG 1.1//EN" "http://www.w3.org/Graphics/SVG/1.1/DTD/svg11.dtd">
<svg version="1.1" id="Слой_1" xmlns="http://www.w3.org/2000/svg" xmlns:xlink="http://www.w3.org/1999/xlink" x="0px" y="0px"
	 width="200.002px" height="200.626px" viewBox="0 0 200.002 200.626" enable-background="new 0 0 200.002 200.626"
	 xml:space="preserve">
<g>
	<defs>
		<rect id="SVGID_1_" width="200.002" height="200.626"/>
	</defs>
	<clipPath id="SVGID_2_">
		<use xlink:href="#SVGID_1_"  overflow="visible"/>
	</clipPath>
	<path clip-path="url(#SVGID_2_)" fill="#F58345" d="M93.941,36.146c-0.11-14.26,10.91-26.03,24.87-27.09l-10.05-5.2l-3.12-1.65
		c-5.71-3-12.76-2.94-18.41,0.18l-1.71,0.88l-31.93,17.17l-44.77,24.12c-5.65,3-8.88,8.94-8.82,15v82.709
		c0,5.011,2.46,9.62,6.51,12.761c0.26-11.7,11.88-19.87,17.58-23.181c-7.72-6.43-13.56-15.27-16.21-25.76
		c-0.47-1.82-0.82-3.71-1.06-5.53c-2.82-20.82,8.06-41,26.47-50.35c1.53-0.82,3.18-1.59,4.88-2.24c1.71-0.65,3.53-1.18,5.35-1.65
		c17.47-4.41,35.12,1.18,46.94,13c1.31,1.29,2.52,2.68,3.67,4.12L93.941,36.146z M194.281,84.056
		c-4.891,6.26-12.471,10.31-20.99,10.38l-30.24,0.24c-6.94,9.181-18.29,13.88-33.88,14l-4.71,0.061l2.06-4.29
		c0-0.061,1.94-4.12,3.471-12c-1.95-0.88-3.75-2-5.4-3.28c1.39,13.74-3.12,27.07-11.75,37.08c3.86,5.14,8.4,8.86,13.27,10.14
		c8.761,2.311,19.261,0.79,26.71-6.52c-0.96-4.99,0.16-10.311,3.551-14.54c6.199-7.73,17.59-8.891,25.449-2.58
		c7.86,6.3,9.2,17.68,3,25.399c-3.21,4-7.819,6.23-12.609,6.58c-12.7,14.28-32.39,20.431-52.29,15.25
		c-1.29-0.33-2.57-0.729-3.85-1.17l7.44,40.12c1.13-0.37,2.24-0.84,3.29-1.42l1.71-0.88l31.96-17.19l44.76-24.119
		c5.65-3,9.59-8.94,9.53-15L194.281,84.056z"/>
	<path clip-path="url(#SVGID_2_)" fill="#BBD758" d="M140.98,56.576c-2.1-1.77-6.12-5.85-6.18-10.87v-2.76h0.26l26.391-0.22
		l-0.94,3.48c-0.06,0.28-1.66,6.23-5.9,10.1l0.07,10.24v0.43c0.53-0.18,1.061-0.37,1.57-0.59c0.81-0.35,1.59-0.77,2.34-1.22
		c5.66-3.41,9.44-9.61,9.36-16.68c-0.11-10.65-8.83-19.26-19.48-19.15c-10.58,0.11-19.13,8.71-19.14,19.27l-0.011,0.21
		c0.08,7.89,4.891,14.65,11.711,17.58l-0.011-1.22L140.98,56.576z M193.98,56.236l-0.149-20.92c-0.12-11.59-9.65-21-21.24-20.88
		l-42.71,0.34l-9.23,0.07c-11.59,0.12-21,9.65-20.879,21.24l0.24,32c0.06,8.88,5.76,16.82,14.18,19.71l2.351,0.82l-0.41,2.47
		c-0.82,5.06-1.82,8.88-2.71,11.59c12-0.88,20.59-5.06,25.649-12.53l0.881-1.29l33.239-0.29c11.591-0.12,21-9.65,20.88-21.24
		L193.98,56.236z M174.491,30.996c0.159-0.16,0.329-0.3,0.54-0.41l9.22-4.81c1.14-0.59,2.5-0.14,3.09,0.95
		c0.43,0.83,0.3,1.77-0.22,2.45c-0.19,0.26-0.44,0.48-0.74,0.64l-9.22,4.77c-0.36,0.18-0.73,0.27-1.091,0.27
		c-0.819,0-1.59-0.45-2-1.18C173.591,32.746,173.811,31.676,174.491,30.996z M110.461,25.766l9.22,4.81
		c1.09,0.59,1.54,1.95,0.95,3.09c-0.24,0.42-0.61,0.74-1.03,0.94c-0.3,0.14-0.63,0.24-0.97,0.24c-0.36,0-0.73-0.09-1.09-0.27
		l-9.221-4.77c-0.8-0.43-1.25-1.28-1.21-2.15c0.021-0.32,0.091-0.64,0.25-0.94C107.961,25.626,109.32,25.176,110.461,25.766
		 M105.451,52.286c-1.091,0-1.971-0.73-2.2-1.73c-0.04-0.17-0.07-0.35-0.07-0.54c0-1.27,0.86-2.36,2.271-2.27l9.77-0.05
		c1.271,0,2.271,1,2.271,2.27c0.029,0.71-0.32,1.35-0.841,1.77c-0.38,0.31-0.859,0.5-1.38,0.5L105.451,52.286z M119.531,68.396
		l-8.53,3.32c-0.24,0.12-0.48,0.16-0.72,0.16l-0.311-0.05c-0.68-0.11-1.29-0.54-1.57-1.23c-0.399-1.04,0.12-2.2,1.12-2.6l8.521-3.32
		c1.04-0.4,2.2,0.12,2.6,1.12c0.311,0.8,0.07,1.67-0.51,2.21C119.961,68.166,119.761,68.306,119.531,68.396 M137.841,78.696
		l-0.06-6.23v-1.53c-6.771-3.31-11.83-9.6-13.431-17.17c-0.34-1.59-0.52-3.23-0.53-4.92c-0.109-13.33,10.37-24.36,23.561-25.01
		c0.35-0.02,0.7-0.03,1.05-0.04c8.87-0.07,16.72,4.55,21.17,11.53c2.42,3.79,3.84,8.27,3.88,13.08c0.07,8.95-4.62,16.86-11.71,21.29
		c-0.62,0.39-1.26,0.75-1.91,1.08v0.27l0.04,7.49c0.061,6.23-5.46,6.29-5.46,6.29l-11.029,0.11c-0.761,0-1.41-0.13-1.971-0.33
		C137.891,83.326,137.841,78.696,137.841,78.696z M186.301,70.596c-0.32,0.8-1.08,1.28-1.88,1.28c-0.24,0-0.48-0.04-0.72-0.16
		l-8.521-3.32c-1-0.4-1.52-1.56-1.12-2.6l0.13-0.25c0.48-0.83,1.521-1.24,2.471-0.87l8.52,3.32c0.99,0.4,1.51,1.55,1.13,2.58
		L186.301,70.596z M189.261,52.286l-9.81-0.05c-1.23,0-2.271-1.04-2.23-2.27c0-0.49,0.15-0.93,0.4-1.3
		c0.41-0.59,1.09-0.97,1.87-0.97l9.77,0.05c0.81-0.05,1.43,0.29,1.81,0.82l0.131,0.18c0.21,0.37,0.33,0.8,0.33,1.26l-0.03,0.26
		C191.381,51.416,190.44,52.286,189.261,52.286 M146.501,53.816l0.06,13.02h2.59l-0.01-0.87l-0.1-12.37l1.16-0.83l0.05-0.04
		c1.26-0.93,2.24-2.2,3-3.45c0.189-0.31,0.37-0.62,0.53-0.92l-10.48,0.05l-2.15,0.01c1.16,2.1,3.261,3.92,4.19,4.58L146.501,53.816z
		"/>
	<path clip-path="url(#SVGID_2_)" fill="#FFFFFF" d="M169.601,35.326c-4.45-6.98-12.3-11.6-21.17-11.53c-0.35,0-0.7,0.02-1.05,0.04
		c-13.19,0.66-23.67,11.68-23.561,25.01c0.011,1.68,0.2,3.33,0.53,4.92c1.601,7.57,6.66,13.86,13.431,17.17v1.53l0.06,6.23
		c0,0,0.05,4.63,3.6,5.9c0.57,0.2,1.21,0.33,1.971,0.33l11.029-0.11c0,0,5.521-0.06,5.46-6.29l-0.04-7.49v-0.27
		c0.65-0.33,1.29-0.69,1.91-1.08c7.08-4.43,11.78-12.34,11.71-21.29C173.44,43.596,172.021,39.116,169.601,35.326z M143.301,48.396
		l10.48-0.05c-0.16,0.3-0.351,0.61-0.53,0.92c-0.76,1.26-1.74,2.52-3,3.45l-0.05,0.04l-1.16,0.83l0.1,12.37l0.01,0.87h-2.59
		l-0.06-13.02l-1.16-0.83c-0.94-0.66-3.03-2.48-4.19-4.58H143.301z M158.601,65.146c-0.75,0.45-1.53,0.87-2.34,1.22
		c-0.51,0.22-1.04,0.42-1.57,0.59v-0.43l-0.069-10.24c4.25-3.86,5.85-9.82,5.899-10.1l0.94-3.48l-26.391,0.22h-0.26v2.76
		c0.061,5.02,4.08,9.1,6.181,10.87l0.06,8.58l0.01,1.22c-6.819-2.93-11.63-9.69-11.71-17.58l0.01-0.21
		c0.011-10.55,8.561-19.16,19.141-19.27c10.649-0.11,19.37,8.5,19.479,19.15C168.041,55.536,164.251,61.736,158.601,65.146z"/>
	<path clip-path="url(#SVGID_2_)" fill="#CAE861" d="M119.681,30.576l-9.22-4.81c-1.141-0.59-2.5-0.14-3.09,0.95
		c-0.16,0.3-0.24,0.62-0.25,0.94c-0.04,0.87,0.41,1.72,1.21,2.15l9.22,4.77c0.36,0.18,0.73,0.27,1.09,0.27
		c0.34,0,0.67-0.09,0.97-0.24c0.421-0.2,0.79-0.52,1.03-0.94C121.221,32.536,120.771,31.166,119.681,30.576 M116.641,51.736
		c0.53-0.42,0.87-1.06,0.84-1.77c0-1.27-1-2.27-2.27-2.27l-9.771,0.05c-1.409-0.09-2.27,1-2.27,2.27c0,0.19,0.03,0.36,0.07,0.54
		c0.239,1,1.119,1.73,2.199,1.73l9.811-0.05C115.781,52.236,116.251,52.046,116.641,51.736 M118.051,64.676l-8.52,3.32
		c-1,0.4-1.521,1.56-1.12,2.6c0.279,0.69,0.89,1.13,1.569,1.23l0.311,0.05c0.24,0,0.479-0.04,0.72-0.16l8.521-3.32
		c0.229-0.09,0.43-0.23,0.609-0.39c0.58-0.54,0.82-1.41,0.51-2.21C120.251,64.796,119.091,64.276,118.051,64.676 M176.07,34.846
		c0.36,0,0.73-0.09,1.091-0.27l9.22-4.77c0.3-0.16,0.54-0.38,0.74-0.64c0.52-0.68,0.649-1.63,0.22-2.45
		c-0.59-1.09-1.95-1.54-3.09-0.95l-9.22,4.81c-0.2,0.11-0.381,0.26-0.54,0.41c-0.681,0.69-0.9,1.75-0.421,2.67
		C174.48,34.396,175.251,34.846,176.07,34.846z M191.201,48.756l-0.131-0.18c-0.39-0.53-1.01-0.88-1.81-0.82l-9.77-0.05
		c-0.78,0-1.46,0.38-1.87,0.97c-0.25,0.37-0.4,0.81-0.4,1.3c-0.05,1.23,1,2.27,2.23,2.27l9.81,0.05c1.18,0,2.12-0.87,2.25-2.01
		l0.03-0.26C191.531,49.556,191.411,49.116,191.201,48.756 M185.181,67.996l-8.52-3.32c-0.95-0.36-1.99,0.04-2.471,0.87l-0.13,0.25
		c-0.399,1.04,0.12,2.2,1.12,2.6l8.521,3.32c0.239,0.12,0.479,0.16,0.72,0.16c0.8,0,1.56-0.48,1.88-1.28v-0.02
		C186.69,69.546,186.171,68.396,185.181,67.996"/>
	<path clip-path="url(#SVGID_2_)" fill="#D8DBDB" d="M76.681,110.766l-0.11,0.221l0.14-0.19L76.681,110.766z M63.941,107.906
		c-0.26,0.08-0.51,0.17-0.76,0.26c-2.49,0.88-4.57,2.15-5.92,3.82c-1.18,1.449-1.82,3.199-1.72,5.279
		c0.88,0.15,1.73,0.261,2.55,0.311c2.28,0.16,4.32-0.03,6.12-0.47c5.84-1.4,9.24-5.29,10.86-7.721
		C72.041,107.196,68.351,106.566,63.941,107.906"/>
	<path clip-path="url(#SVGID_2_)" fill="#96989C" d="M135.251,136.036c-2.311,1.93-4.811,3.46-7.431,4.609l6.62,10.29
		c3.761-1.89,7.25-4.31,10.36-7.21c-1.91-0.67-3.75-1.659-5.43-3C137.701,139.366,136.331,137.766,135.251,136.036z
		 M158.051,117.456c-5.19-4.17-12.73-3.4-16.84,1.72c-0.54,0.67-0.99,1.38-1.351,2.12c-1.6,3.21-1.609,6.96-0.159,10.18
		c0.76,1.7,1.93,3.261,3.489,4.511c1.891,1.52,4.101,2.38,6.341,2.609c3.289,0.34,6.64-0.67,9.18-2.96
		c0.47-0.42,0.91-0.87,1.32-1.38C164.121,129.156,163.241,121.626,158.051,117.456 M55.591,53.086c-22.64,0-41,18.36-41,41
		c0,6.18,1.38,12.04,3.83,17.29l3.23-1.18c2.57,4.17,5.47,7.33,8.56,9.71c9.92,7.649,21.68,7.13,30.11,5.189
		c0.4-0.09,0.8-0.189,1.19-0.29l-0.09-0.029c0.22-0.07,0.41-0.141,0.59-0.221l0.26-0.08c1.51-0.609,2.32-2.1,1.83-3.34
		c-0.36-0.89-1.31-1.399-2.38-1.39l-0.06-0.04l0.27-0.05c-0.98,0.069-1.91,0.09-2.74,0.069h-0.58c-0.55-0.01-1.09-0.05-1.64-0.1
		c-0.77-0.07-1.55-0.17-2.31-0.32c-3.94-0.72-7.59-2.39-10.47-4.85c-3.7,1.38-8.25,2.08-13.82,1.5c0,0,8.53-3.29,9-10.47
		c0,0,0.94-13.59,16.65-10.94c0,0,1.22-3.64,4.86-5.71c2.18-1.24,5.22-1.92,9.38-0.93c0,0,0.89,0.01,2.24-0.09
		c3.21-0.25,9.06-1.2,12-4.67c0,0,0.12,2.57-0.66,5.75c-0.47,1.92-1.27,4.06-2.62,6.01c-0.35,0.5-0.74,0.99-1.17,1.46
		c0.69,4.979-0.45,9.99-3.2,14.12l-0.14,0.279l0.03,0.03l-0.14,0.19c-0.45,0.81-0.94,1.56-1.47,2.229l-0.35,0.25
		c-0.36,0.311-0.63,0.66-0.83,1.03l-0.05,0.09c-0.44,0.89-0.43,1.87,0.14,2.53c0.83,0.96,2.49,0.88,3.73-0.181l0.03-0.029l0.13-0.05
		c0.84-0.681,1.63-1.381,2.36-2.101c2.37-2.3,4.23-4.75,5.67-7.24c8.66-14.979,2.24-31.8,2.24-31.8l3.3-1.48
		C84.491,61.636,71.041,53.086,55.591,53.086z M38.941,97.086l-1.76-4.47c-1.35-3.59-4.47-5.12-8.18-3.41
		c-4.06,1.88-4.35,5.82-3.41,8.24l1.53,4.291l-4,1.47l-1.53-4.29c-2.18-5.59,0.59-11.88,6.18-14.06c5.59-2.18,11.88,0.59,14.06,6.18
		l1.71,4.29L38.941,97.086 M79.531,79.616l-1.76-4.47c-1.35-3.59-4.47-5.12-8.18-3.41c-4.06,1.88-4.35,5.82-3.41,8.24l1.71,4.35
		l-4,1.47l-1.71-4.36c-2.18-5.59,0.59-11.88,6.18-14.06s11.88,0.59,14.06,6.18l1.71,4.29L79.531,79.616 M57.311,102.986
		c-0.36,0.649-0.79,1.37-1.31,2.12l1.19-0.561l6.51-3.1l1.24-0.59c-0.37-0.04-0.73-0.08-1.11-0.131c-1.55-0.22-3.21-0.56-5.01-1.04
		C58.821,99.676,58.391,101.036,57.311,102.986z"/>
	<path clip-path="url(#SVGID_2_)" fill="#4C4D4F" d="M92.121,73.966l-0.64,0.29l-3.3,1.48c0,0,6.42,16.82-2.24,31.8
		c-1.44,2.49-3.3,4.93-5.67,7.24c-0.73,0.71-1.53,1.409-2.36,2.1l-0.13,0.05l-0.03,0.03c-1.23,1.06-2.9,1.14-3.73,0.18
		c-0.57-0.66-0.58-1.64-0.14-2.529c-2.7,2.739-6.02,4.09-9.12,4.71c-0.61,0.119-1.22,0.22-1.8,0.279c-0.35,0.04-0.7,0.07-1.04,0.101
		l-0.27,0.05l0.06,0.04c1.07-0.01,2.02,0.49,2.38,1.39c0.5,1.24-0.32,2.73-1.83,3.34l-0.26,0.08c-0.18,0.07-0.37,0.15-0.59,0.221
		l0.09,0.029c-0.39,0.101-0.78,0.2-1.19,0.29c-8.43,1.94-20.2,2.46-30.11-5.189c-3.08-2.38-5.99-5.551-8.56-9.71l-3.23,1.18
		l0.16,0.36l0.1,0.21c0.17,0.34,0.41,0.83,0.74,1.439l0.29,0.54c0.2,0.37,0.41,0.73,0.63,1.09c0.1,0.181,0.21,0.36,0.33,0.54
		c1.07,1.75,2.53,3.9,4.39,6.141c7.08,8.489,20.06,18.31,40.13,12.92c1.13-0.3,2.28-0.65,3.45-1.061c0.83-0.279,1.66-0.6,2.51-0.93
		c2.19-0.86,4.45-1.89,6.8-3.13c0,0,2.88-1.63,6.43-4.93c1.03-0.961,2.12-2.061,3.21-3.311c0.4-0.46,0.8-0.93,1.19-1.42l0.07-0.09
		C95.961,110.816,102.23,95.676,92.121,73.966z M44.181,114.466c5.89-2.189,9.61-6.109,11.83-9.359c0.51-0.75,0.95-1.471,1.31-2.12
		c1.07-1.94,1.51-3.311,1.51-3.311c1.79,0.48,3.45,0.82,5.01,1.04c0.38,0.05,0.75,0.09,1.11,0.13c7.59,0.83,12.23-1.37,15.07-4.479
		c0.43-0.47,0.82-0.96,1.17-1.46c1.35-1.95,2.15-4.09,2.62-6.01c0.78-3.19,0.66-5.75,0.66-5.75c-2.94,3.48-8.79,4.42-12,4.67
		c-1.35,0.11-2.24,0.09-2.24,0.09c-4.16-0.99-7.2-0.31-9.38,0.93c-3.63,2.08-4.85,5.72-4.85,5.72
		c-15.71-2.65-16.65,10.94-16.65,10.94c-0.47,7.18-9,10.47-9,10.47C35.921,116.546,40.481,115.846,44.181,114.466z"/>
	<path clip-path="url(#SVGID_2_)" fill="#373737" d="M199.82,35.256c-0.109-14.82-12.289-26.82-27.17-26.7l-52,0.41
		c-0.619,0-1.229,0.04-1.83,0.08c-13.97,1.06-24.99,12.83-24.87,27.09l0.19,27.3c-1.15-1.44-2.37-2.82-3.67-4.12
		c-11.82-11.82-29.47-17.41-46.94-13c-1.82,0.47-3.65,1-5.35,1.65c-1.71,0.65-3.35,1.41-4.88,2.24
		c-18.42,9.35-29.3,29.52-26.48,50.35c0.24,1.82,0.59,3.709,1.06,5.53c2.65,10.49,8.48,19.33,16.21,25.76
		c-5.7,3.311-17.32,11.48-17.58,23.181c-0.15,6.76,3.5,14.71,14.3,23.569l1.07-12.04l0.27-3.08l1.2-13.51
		c0.15-1.31,1.14-2.33,2.41-2.58c0.27-0.05,0.54-0.08,0.82-0.06c1.59,0.12,2.76,1.53,2.65,3.18l-1.44,15.9l-3.09,34.16l-5.23,0.05
		v0.01l84.24-0.76l-0.17-0.931l-7.44-40.119c1.28,0.439,2.57,0.84,3.85,1.17c19.9,5.18,39.59-0.971,52.291-15.25
		c4.79-0.351,9.39-2.58,12.609-6.58c6.2-7.73,4.86-19.101-3-25.4c-7.859-6.3-19.25-5.14-25.45,2.58c-3.39,4.23-4.51,9.56-3.55,14.54
		c-7.45,7.3-17.96,8.83-26.71,6.52c-4.87-1.279-9.41-5-13.27-10.14c8.64-10.01,13.15-23.34,11.75-37.08
		c1.649,1.29,3.449,2.4,5.399,3.28c-1.529,7.88-3.47,11.939-3.47,12l-2.06,4.29l4.71-0.061c15.59-0.119,26.939-4.819,33.88-14
		l30.21-0.25c8.52-0.07,16.1-4.12,20.99-10.38c3.619-4.63,5.77-10.47,5.72-16.8L199.82,35.256z M173.181,88.556l-33.24,0.29
		l-0.88,1.29c-5.06,7.47-13.649,11.65-25.649,12.53c0.88-2.71,1.88-6.53,2.71-11.59l0.41-2.47l-2.351-0.82
		c-8.41-2.88-14.12-10.82-14.18-19.71l-0.24-32c-0.12-11.59,9.29-21.12,20.88-21.24l9.23-0.07l42.72-0.33
		c11.59-0.12,21.12,9.29,21.24,20.88l0.149,20.92l0.08,11.08C194.181,78.906,184.761,88.436,173.181,88.556z M141.201,119.186
		c4.109-5.119,11.649-5.89,16.84-1.72c5.189,4.17,6.08,11.69,1.97,16.811c-0.41,0.51-0.85,0.96-1.32,1.38
		c-2.54,2.279-5.89,3.3-9.18,2.96c-2.24-0.23-4.45-1.09-6.34-2.61c-1.561-1.25-2.72-2.81-3.49-4.51
		c-1.45-3.22-1.439-6.97,0.16-10.18C140.221,120.566,140.671,119.856,141.201,119.186z M135.251,136.036
		c1.08,1.74,2.439,3.34,4.13,4.689c1.67,1.341,3.52,2.33,5.43,3c-3.12,2.9-6.609,5.32-10.359,7.21l-6.62-10.29
		C130.44,139.486,132.94,137.966,135.251,136.036z M88.841,119.736l-0.07,0.09c-0.4,0.49-0.79,0.97-1.19,1.42
		c-1.09,1.25-2.18,2.35-3.21,3.31c-3.54,3.301-6.43,4.931-6.43,4.931c-2.34,1.229-4.61,2.26-6.8,3.13
		c-0.85,0.33-1.69,0.649-2.51,0.93c-1.17,0.4-2.32,0.75-3.45,1.061c-20.07,5.39-33.05-4.431-40.13-12.921
		c-1.87-2.239-3.33-4.39-4.39-6.14l-0.33-0.54c-0.23-0.39-0.44-0.75-0.63-1.09l-0.29-0.54c-0.33-0.61-0.57-1.1-0.74-1.44l-0.1-0.21
		l-0.16-0.359c-2.45-5.26-3.83-11.11-3.83-17.29c0-22.64,18.36-41,41-41c15.45,0,28.9,8.55,35.89,21.17l0.64-0.29
		C102.23,95.676,95.961,110.816,88.841,119.736z"/>
	<path clip-path="url(#SVGID_2_)" d="M27.761,84.846c-5.59,2.18-8.35,8.47-6.18,14.06l1.53,4.291l4-1.471l-1.52-4.29
		c-0.94-2.41-0.65-6.35,3.41-8.24c3.71-1.71,6.82-0.18,8.18,3.41l1.76,4.47l4.59-1.76l-1.71-4.29
		C39.651,85.436,33.351,82.676,27.761,84.846 M63.881,85.786l4-1.47l-1.71-4.35c-0.94-2.41-0.65-6.35,3.41-8.24
		c3.71-1.71,6.82-0.18,8.18,3.41l1.76,4.47l4.59-1.76l-1.71-4.29c-2.18-5.59-8.47-8.35-14.06-6.18c-5.58,2.18-8.34,8.47-6.16,14.06
		L63.881,85.786z M64.941,100.846l-1.23,0.59l-6.51,3.101l-1.19,0.56c-2.22,3.25-5.94,7.17-11.83,9.36
		c2.87,2.46,6.53,4.14,10.47,4.85c0.76,0.15,1.53,0.25,2.31,0.32c0.54,0.05,1.09,0.09,1.64,0.1h0.58
		c0.84,0.021,1.76,0.011,2.74-0.069c0.34-0.03,0.69-0.061,1.04-0.101c0.59-0.069,1.19-0.16,1.8-0.279c3.1-0.62,6.41-1.971,9.12-4.71
		l0.05-0.091c0.2-0.369,0.47-0.729,0.83-1.029c0.11-0.101,0.23-0.17,0.35-0.25c0.53-0.67,1.02-1.42,1.47-2.23l0.11-0.22l0.14-0.28
		c2.75-4.13,3.88-9.14,3.2-14.12C77.181,99.476,72.531,101.676,64.941,100.846z M64.201,117.116c-1.8,0.43-3.83,0.62-6.12,0.47
		c-0.82-0.06-1.67-0.16-2.55-0.31c-0.1-2.07,0.54-3.83,1.72-5.28c1.36-1.67,3.43-2.93,5.92-3.82c0.25-0.09,0.5-0.18,0.76-0.26
		c4.4-1.34,8.1-0.71,11.12,1.479C73.451,111.826,70.041,115.716,64.201,117.116 M26.591,147.316c-0.28-0.021-0.56,0.01-0.82,0.06
		c-1.27,0.25-2.27,1.27-2.41,2.58l-1.2,13.51l-0.27,3.08l-1.07,12.04l-1.93,21.73v0.29l0.59-0.011l5.23-0.05l3.09-34.16l1.44-15.899
		C29.351,148.846,28.181,147.436,26.591,147.316z"/>
</g>
</svg>
