<?xml version="1.0" encoding="utf-8"?>
<!-- Generator: Adobe Illustrator 16.0.0, SVG Export Plug-In . SVG Version: 6.00 Build 0)  -->
<!DOCTYPE svg PUBLIC "-//W3C//DTD SVG 1.1//EN" "http://www.w3.org/Graphics/SVG/1.1/DTD/svg11.dtd">
<svg version="1.1" id="Слой_1" xmlns="http://www.w3.org/2000/svg" xmlns:xlink="http://www.w3.org/1999/xlink" x="0px" y="0px"
	 width="191.73px" height="198.77px" viewBox="0 0 191.73 198.77" enable-background="new 0 0 191.73 198.77" xml:space="preserve">
<g>
	<defs>
		<rect id="SVGID_1_" width="191.73" height="198.77"/>
	</defs>
	<clipPath id="SVGID_2_">
		<use xlink:href="#SVGID_1_"  overflow="visible"/>
	</clipPath>
	<path clip-path="url(#SVGID_2_)" fill="#64C9D7" d="M127.65,6.3v23.31c1.909,2.47,2.92,5.17,2.88,7.98
		c-0.11,4.97-3.4,9.34-8.82,12.56l7.46,18.64c3.74-0.4,7.61-0.23,11.36,0.28l-1.05-9.13L128.3,58.41l11.181-1.47l1.35-11.71
		l1.41,11.71l11.18,1.47l-11.18,1.53l-1.11,9.21c7.8,1.14,15,3.68,19.34,5.45c1.431-3.53,4.11-8.39,8.36-9.66
		c0.939-0.29,2,0,2.82,0.59c0,0,5.47,4,4.71,6.35c-0.801,2.44-4.62,0.71-6.49,6.06c9.31,3.09,14.79,7.49,17.82,12.28
		C186.13,51.86,161.68,19.39,127.65,6.3 M62.65,36.36c0.04-2.67,1.04-5.24,2.88-7.56V6.42c0.12-0.12,0.24-0.18,0.35-0.24
		c-0.23-0.58-0.35-1.17-0.35-1.8C27.56,16.45,0,52.03,0,94.12c0,20.82,6.76,40.12,18.18,55.709l4.77-9.35L47.84,72.7l-16.08,2.13
		l-2.71,22.41l-2.71-22.41L5.05,72.01l21.29-2.82l2.71-22.47l2.71,22.47l16.56,2.2l3.2-8.73l9.36,3.44l9-17.65
		c-1.17-0.84-2.23-1.72-3.13-2.67C64,42.95,62.59,39.65,62.65,36.36z M35.47,167.83l0.69,0.28c-1.22-0.85-2.41-1.75-3.56-2.68
		C33.54,166.24,34.5,167.05,35.47,167.83"/>
	<path clip-path="url(#SVGID_2_)" fill="#ADDFE6" d="M36.16,168.11c8.94,6.25,19.69,10.45,30.69,12.96
		c-1.12-1.319-2.16-2.7-3.12-4.13C53.32,174.47,43.91,171.23,36.16,168.11 M57.22,162.64c-3.77-2.311-6.62-6.061-7.61-10.69
		c-0.11-0.52-0.19-1.05-0.25-1.569l-26.47-9.73l0.06-0.17l-4.77,9.35c4.2,5.71,9.05,10.94,14.43,15.601
		c1.15,0.93,2.34,1.82,3.56,2.68c7.75,3.12,17.16,6.36,27.57,8.83C60.8,172.61,58.59,167.8,57.22,162.64 M86.72,62.96
		c9.22-1.57,17.95,4.53,19.5,13.63c0.36,2.09,0.28,4.16-0.13,6.12l2.33,0.86c4.24-9.9,12.16-13.85,20.75-14.78l-7.46-18.64
		c-5.95,3.53-14.46,5.68-24.18,5.68h-1.29c-10.45-0.2-20.13-2.95-26.34-7.39l-9,17.65l13.92,5.12C77.25,67,81.5,63.85,86.72,62.96
		 M102.55,161.68l-2.66,7.27l-18.8-6.91c3.79,7.11,10.82,11.551,17.98,13.091c3.949,0.83,8.449,0.06,13.029-1.841l1.891-11.31
		L102.55,161.68z"/>
	<path clip-path="url(#SVGID_2_)" fill="#3CBFD1" d="M119.35,29.89h-0.06l-0.71-0.47c-5.29-3.29-13.24-5.29-21.71-5.41h-0.94
		c-9.41,0-18.06,2.29-23.18,6.06l-0.88,0.59c-2.29,2-3.35,3.88-3.35,5.82c-0.06,1.76,0.76,3.53,2.47,5.24
		c1.94,2.02,4.82,3.75,8.28,5.1c4.83,1.89,10.81,3.03,17.07,3.13h1.24c9.47,0,17.16-2.25,21.9-5.33c3.289-2.14,5.17-4.68,5.21-7.14
		C124.76,34.89,122.82,32.24,119.35,29.89z M75.18,37.71c0-6.24,11.35-8.41,21.06-8.41c9.71,0,21.06,2.18,21.06,8.41
		s-11.29,8.41-21.06,8.41C86.53,46.12,75.18,43.95,75.18,37.71 M110.94,37.71c-1.881-1.06-6.94-2.53-14.65-2.53
		s-12.82,1.41-14.65,2.53c1.88,1.06,6.94,2.53,14.65,2.53S109.06,38.77,110.94,37.71"/>
	<path clip-path="url(#SVGID_2_)" fill="#6D6E70" d="M127.65,29.61l-0.061-0.07c-1.41-1.8-3.3-3.47-5.649-4.95L121.23,24h-0.351
		c-6.12-3.59-14.82-5.71-23.939-5.88H95.88c-10.35,0-19.76,2.41-25.94,6.71l-0.88,0.59c-1.38,1.02-2.53,2.14-3.47,3.31l-0.06,0.07
		c-1.84,2.32-2.84,4.88-2.88,7.56c-0.06,3.29,1.35,6.59,4.11,9.41c0.9,0.95,1.96,1.84,3.13,2.67c6.21,4.44,15.89,7.19,26.34,7.39
		h1.289c9.721,0,18.23-2.14,24.181-5.68c5.42-3.22,8.71-7.59,8.819-12.56C130.56,34.79,129.56,32.08,127.65,29.61 M96.35,49.95
		c-6.27-0.1-12.25-1.25-17.07-3.13c-3.46-1.35-6.34-3.09-8.28-5.1c-1.71-1.71-2.53-3.47-2.47-5.24c0-1.94,1.06-3.82,3.35-5.82
		l0.88-0.59c5.12-3.76,13.76-6.06,23.181-6.06h0.939c8.47,0.12,16.41,2.12,21.71,5.41l0.71,0.47h0.061c3.47,2.35,5.409,5,5.35,7.59
		c-0.05,2.46-1.92,5-5.21,7.14c-4.74,3.08-12.43,5.33-21.9,5.33H96.35z"/>
	<path clip-path="url(#SVGID_2_)" fill="#9CDDE6" d="M96.24,29.3c-9.71,0-21.06,2.18-21.06,8.41s11.35,8.41,21.06,8.41
		c9.76,0,21.06-2.18,21.06-8.41S105.94,29.3,96.24,29.3 M96.29,40.24c-7.71,0-12.76-1.47-14.65-2.53c1.82-1.12,6.94-2.53,14.65-2.53
		s12.76,1.47,14.65,2.53C109.06,38.77,104,40.24,96.29,40.24"/>
	<path clip-path="url(#SVGID_2_)" fill="#FFFFFF" d="M47.84,72.7l0.48-1.32l-16.56-2.2l-2.7-22.47l-2.71,22.47L5.06,72.01
		l21.29,2.82l2.71,22.41l2.7-22.41L47.84,72.7z M140.82,45.24l-1.351,11.71l-11.18,1.47l11.18,1.53l1.05,9.13l0.601,0.08l1.11-9.21
		l11.18-1.53l-11.18-1.47L140.82,45.24z"/>
	<path clip-path="url(#SVGID_2_)" fill="#FFFFFF" d="M40.82,53.72c2.369,0,4.29,1.921,4.29,4.29c0,2.369-1.921,4.29-4.29,4.29
		c-2.369,0-4.29-1.921-4.29-4.29C36.53,55.641,38.451,53.72,40.82,53.72"/>
	<path clip-path="url(#SVGID_2_)" fill="#FFFFFF" d="M151.35,43.13c2.369,0,4.29,1.921,4.29,4.29c0,2.369-1.921,4.29-4.29,4.29
		c-2.368,0-4.29-1.921-4.29-4.29C147.06,45.051,148.981,43.13,151.35,43.13"/>
	<path clip-path="url(#SVGID_2_)" fill="#FFFFFF" d="M16.18,82.3c2.369,0,4.29,1.921,4.29,4.29c0,2.369-1.921,4.29-4.29,4.29
		c-2.369,0-4.29-1.921-4.29-4.29C11.89,84.221,13.811,82.3,16.18,82.3"/>
	<path clip-path="url(#SVGID_2_)" fill="#FFFFFF" d="M59.75,108.71l3.62-0.12c-0.72-2.011-1.41-4.03-2.08-6.051L59.75,108.71
		 M55.65,125.12c-0.2,0.66-0.59,1.21-1.08,1.601c4.98-1.09,10.04-1.8,15.13-2.13l-0.16-0.29c-1.4-3.261-2.73-6.57-4.01-9.891
		l-7.26,0.25L55.65,125.12z M103.88,88.18c-2.479,3.94-6.57,6.87-11.56,7.72c-9.22,1.57-17.96-4.53-19.5-13.63
		c-0.32-1.87-0.29-3.73,0.01-5.5l-14.64-5.38l-3.13-1.15L45.5,96.27l-15.03,40.91l19.34,7.109c1.58-5.939,6.4-10.819,12.89-12.21
		c9.15-1.949,18.13,3.79,20.05,12.811c0.82,3.86,0.21,7.689-1.46,10.96l3.42,1.26l10.47-26.8c-0.64,0.92-1.77,1.46-2.939,1.28
		c-14.76-2.471-30.12-1.471-44.35,3c-0.29,0.06-0.59,0.12-0.88,0.12c-1.24,0-2.41-0.82-2.82-2.061c-0.47-1.53,0.35-3.18,1.94-3.71
		c1.99-0.62,4-1.17,6.02-1.67l-0.14-0.04c-1.59-0.41-2.53-2-2.12-3.59l2.51-10c-0.37-0.47-0.61-1.05-0.63-1.7
		c-0.04-1.26,0.7-2.34,1.77-2.81l4.59-18.25c0.35-1.29,1.47-2.18,2.82-2.24c1.41,0.12,2.53,0.82,2.88,2.12
		c3.06,10.59,6.76,21.06,11.12,31.18c0.35,0.8,0.29,1.69-0.07,2.44c6.14-0.091,12.29,0.359,18.36,1.39
		c1.55,0.29,2.649,1.7,2.42,3.31l5.53-14.149l0.229-0.87c0.68-2.24,1.561-4.41,2.57-6.521c0.1-0.43,0.45-1.729,1.229-3.569
		c-0.12-5.77,0.38-10.67,1.37-14.8L103.88,88.18 M95.18,113.83c-0.35,1.351-1.53,2.24-2.88,2.24c-0.24,0-0.47,0-0.71-0.06
		c-1.67-0.42-3.8-0.811-6.02-1.19l-0.74,7.01c-0.18,1.471-1.47,2.591-2.94,2.591H81.6c-1.65-0.181-2.76-1.65-2.59-3.24l0.78-7.351
		c-2.27-0.39-4.41-0.77-6.13-1.18c-1.59-0.35-2.53-1.939-2.18-3.53c0.35-1.59,1.94-2.529,3.53-2.18c1.51,0.38,3.39,0.73,5.39,1.08
		l0.73-6.9c0.18-1.649,1.71-2.82,3.24-2.59c1.65,0.18,2.76,1.65,2.59,3.24L86.2,109c2.53,0.43,4.93,0.85,6.82,1.3
		C94.59,110.65,95.53,112.24,95.18,113.83"/>
	<path clip-path="url(#SVGID_2_)" fill="#808184" d="M127.35,6.18C116.94,2.18,105.64,0,93.82,0c-7.88,0-15.53,1-22.88,2.82
		c-1.82,0.48-3.65,0.95-5.41,1.54v0.02c0,0.64,0.12,1.22,0.35,1.8c-0.12,0.06-0.24,0.12-0.35,0.24V28.8l0.06-0.07
		c0.95-1.18,2.09-2.29,3.47-3.31l0.88-0.59c6.18-4.29,15.59-6.71,25.94-6.71h1.061c9.119,0.18,17.819,2.29,23.939,5.88h0.351
		l0.71,0.59c2.34,1.48,4.239,3.15,5.649,4.95V6.3C127.53,6.24,127.41,6.18,127.35,6.18 M51.53,62.65l-3.2,8.73l-0.48,1.32
		l-24.89,67.78l-0.06,0.17l26.47,9.73c-0.12-1.061-0.13-2.12-0.05-3.15c0.08-1,0.25-1.979,0.51-2.94l-19.34-7.109L45.5,96.27
		l9.56-26.03l3.13,1.15l14.64,5.38c0.16-0.98,0.41-1.93,0.74-2.85c0.34-0.94,0.76-1.85,1.25-2.71L60.9,66.09L51.53,62.65z
		 M105.22,85.57c-0.37,0.91-0.819,1.79-1.34,2.62l2.7,0.99c0.24-0.98,0.5-1.92,0.8-2.82c0.32-0.97,0.66-1.91,1.04-2.79l-2.33-0.86
		C105.89,83.7,105.6,84.65,105.22,85.57 M87.55,161.3l-4.43-0.11l0.52-1.33l1.07-2.74l-3.42-1.26c-0.46,0.891-1,1.74-1.6,2.54
		l-0.11,0.16c0.42,1.22,0.93,2.38,1.51,3.479l18.8,6.91l2.66-7.27l-3.14-0.08L87.55,161.3z"/>
	<path clip-path="url(#SVGID_2_)" fill="#231F20" d="M187.68,90.23c-3.04-4.78-8.51-9.19-17.819-12.28
		c1.87-5.35,5.699-3.62,6.489-6.06c0.761-2.35-4.71-6.35-4.71-6.35c-0.819-0.59-1.88-0.88-2.819-0.59
		c-4.25,1.27-6.931,6.13-8.36,9.66c-4.34-1.77-11.54-4.31-19.34-5.45l-0.601-0.08c-3.75-0.51-7.609-0.68-11.359-0.28
		c-8.59,0.92-16.51,4.88-20.75,14.78c-0.38,0.88-0.72,1.81-1.04,2.79c-0.29,0.9-0.561,1.83-0.8,2.82c-1,4.13-1.49,9.03-1.37,14.8
		c1.33-3.149,3.92-7.82,8.64-12.13c0.8-0.73,1.66-1.45,2.59-2.15c0.94-0.71,1.94-1.4,3.021-2.06c3.96-2.42,8.89-4.43,15.02-5.57
		c1.59-0.29,3.24-0.54,4.99-0.71c0.06,0,32.91-3.35,43.9,20.7c1.26,1.9,2.38,3.91,3.359,6.01c0.5,1.091,0.971,2.2,1.391,3.351
		c0.26,0.64,0.489,1.31,0.699,1.979C190.93,107.71,192.88,98.42,187.68,90.23z"/>
	<path clip-path="url(#SVGID_2_)" fill="#B1B3B3" d="M135.18,150.24l0.011,0.011L135.18,150.24z M156.06,148.3v-0.021l-0.34,0.25
		L156.06,148.3z M155.36,146.29c-1.88-3.909-6.101-4.85-10.95-3.93c-2.66,0.5-4.72,1.55-6.28,3.03l10.98,4.29
		C151.1,149.03,153.2,147.96,155.36,146.29 M149.11,149.67l-10.98-4.29c-0.91,0.859-1.64,1.87-2.2,3.02
		C138.47,149.76,143.32,151.54,149.11,149.67z"/>
	<path clip-path="url(#SVGID_2_)" fill="#E6E7E8" d="M69.66,164.76c-1.95,0.41-3.88,0.46-5.75,0.22c1.37,3.69,3.25,7.13,5.57,10.25
		l9.77-5.74c-1.68-2.04-3.1-4.35-4.2-6.899C73.42,163.59,71.62,164.34,69.66,164.76 M68.48,159.24c0.91-0.189,1.77-0.5,2.57-0.89
		c0.8-0.38,1.54-0.85,2.21-1.39c0.25-0.21,0.5-0.421,0.73-0.65c0.75-0.72,1.39-1.54,1.91-2.43c0.94-1.62,1.48-3.46,1.5-5.391
		c0.01-0.79-0.06-1.6-0.23-2.41c-1.27-5.97-7.22-9.77-13.29-8.479c-4.51,0.96-7.82,4.47-8.69,8.66c-0.21,0.99-0.27,2.02-0.19,3.06
		c0.04,0.48,0.09,0.96,0.2,1.44c0.11,0.52,0.27,1.02,0.45,1.51l0.18,0.48c1.19,2.819,3.5,4.949,6.3,6
		C64.08,159.5,66.27,159.71,68.48,159.24z M183.14,123.37c-0.64-6.189-2.779-11.939-6.029-16.89h-42.65l-2.94-10.88l-6.71,10.88
		l-2.09,0.12l-3.16,0.189l-3.159,0.19l-3.511,0.21c-3.659,5.85-5.779,12.771-5.779,20.18c0,1.44,0.09,2.86,0.239,4.25
		c0.21,1.9,0.561,3.75,1.04,5.551c0.41,1.529,0.91,3.02,1.5,4.47c3.351,8.28,9.521,15.12,17.32,19.32c0.93,0.5,1.89,0.96,2.87,1.39
		c0.77,0.33,1.55,0.64,2.34,0.93c4,1.431,8.311,2.21,12.811,2.21c1.069,0,2.14-0.06,3.189-0.14c1.97-0.16,3.9-0.48,5.78-0.93
		l0.2-0.051l0.22-0.05c1.42-0.359,2.81-0.81,4.17-1.319c14.36-5.471,24.56-19.351,24.56-35.631
		C183.35,126.01,183.28,124.68,183.14,123.37z M124,115.12c-3.76,0.181-5.59,2.82-5.18,6.351l0.47,4.47l-3.82,0.45l-0.71,0.08
		l-0.529-4.29c-0.03-0.25-0.04-0.51-0.051-0.76c-0.12-2.771,0.9-5.36,2.67-7.271c1.101-1.189,2.49-2.12,4.08-2.66
		c0.67-0.229,1.38-0.399,2.12-0.489c5.53-0.65,10.53,3.289,11.181,8.819l0.529,4.29l-3.88,0.53l-0.53-4.29
		C130.12,118.01,128.18,114.89,124,115.12z M159.69,145.06c-0.841,0.93-1.75,1.8-2.75,2.59c-0.921,0.73-1.891,1.39-2.91,1.98
		c-0.62,0.37-1.33,0.76-2.12,1.14c-2.83,1.35-6.641,2.5-10.72,1.85c-1.521-0.239-3.091-0.729-4.65-1.56
		c-0.45-0.24-0.9-0.51-1.35-0.81h-0.011l-0.26-0.181c-1.28-0.689-2.46-1.52-3.54-2.47c-2.89-2.561-5.01-6.01-5.91-9.94l30.7-1.39
		l8.18-0.37C163.74,139.28,162.07,142.42,159.69,145.06z M171.82,121.24L171.23,117c-0.24-2.351-2.181-5.471-6.351-5.24
		c-3.76,0.18-5.59,2.819-5.18,6.35l0.47,4.47l-4.53,0.53l-0.529-4.29c-0.65-5.53,3.29-10.53,8.819-11.18
		c5.53-0.65,10.53,3.29,11.181,8.82l0.59,4.239L171.82,121.24z M87.66,68.53c-3.13,0.53-5.73,2.29-7.4,4.69
		c-0.57,0.82-1.04,1.72-1.37,2.66c-0.32,0.93-0.52,1.9-0.58,2.91c-0.05,0.83-0.02,1.67,0.12,2.53c1.02,6.02,6.81,10.06,12.93,9.02
		c2.9-0.49,5.34-2.04,7.01-4.17c0.61-0.78,1.12-1.64,1.51-2.56c0.38-0.91,0.65-1.88,0.78-2.88c0.13-1.03,0.12-2.1-0.07-3.17
		C99.57,71.53,93.78,67.49,87.66,68.53"/>
	<path clip-path="url(#SVGID_2_)" fill="#A6CE42" d="M73.65,112.65c1.72,0.41,3.86,0.79,6.13,1.18L79,121.18
		c-0.18,1.59,0.94,3.06,2.59,3.24h0.29c1.47,0,2.76-1.12,2.94-2.591l0.74-7.01c2.23,0.38,4.35,0.771,6.02,1.19
		c0.24,0.06,0.47,0.06,0.71,0.06c1.35,0,2.53-0.88,2.88-2.24c0.35-1.59-0.59-3.18-2.18-3.529c-1.89-0.45-4.3-0.87-6.82-1.3
		l0.76-7.23c0.18-1.59-0.94-3.06-2.59-3.24c-1.53-0.24-3.06,0.94-3.24,2.59l-0.73,6.9c-2-0.34-3.88-0.7-5.39-1.08
		c-1.59-0.35-3.18,0.59-3.53,2.18C71.12,110.71,72.06,112.3,73.65,112.65 M93.24,125.77c-6.07-1.02-12.22-1.48-18.36-1.39
		c0.36-0.75,0.42-1.63,0.07-2.44c-4.35-10.12-8.06-20.59-11.12-31.18c-0.35-1.29-1.47-2-2.88-2.12c-1.35,0.06-2.47,0.94-2.82,2.24
		l-4.59,18.25c-1.06,0.47-1.81,1.55-1.77,2.81c0.02,0.65,0.26,1.23,0.63,1.7l-2.51,10c-0.41,1.59,0.53,3.18,2.12,3.59l0.14,0.04
		c-2.02,0.49-4.03,1.05-6.02,1.67c-1.59,0.53-2.41,2.18-1.94,3.71c0.41,1.24,1.59,2.061,2.82,2.061c0.29,0,0.59-0.061,0.88-0.12
		c14.24-4.471,29.59-5.471,44.35-3c1.17,0.17,2.3-0.36,2.939-1.28c0.23-0.33,0.4-0.71,0.471-1.13l0.01-0.101
		C95.89,127.47,94.79,126.06,93.24,125.77z M61.29,102.53c0.66,2.021,1.36,4.04,2.08,6.05l-3.62,0.12L61.29,102.53 M54.56,126.72
		c0.5-0.391,0.88-0.931,1.08-1.601l2.62-10.47l7.26-0.25c1.27,3.33,2.61,6.63,4.01,9.89l0.16,0.29
		C64.6,124.92,59.54,125.63,54.56,126.72"/>
	<path clip-path="url(#SVGID_2_)" fill="#373737" d="M190.93,128.83c0.13-4.079-0.27-8.25-1.279-12.409
		c-0.25-1.021-0.521-2.03-0.83-3.021c-0.21-0.67-0.44-1.34-0.7-1.979c-0.42-1.141-0.88-2.261-1.39-3.351
		c-0.971-2.109-2.101-4.109-3.36-6.01c-10.99-24.05-43.851-20.7-43.9-20.7c-1.75,0.17-3.41,0.41-4.989,0.71
		c-6.12,1.14-11.061,3.15-15.021,5.57c-1.08,0.66-2.08,1.35-3.02,2.06c-0.931,0.7-1.79,1.42-2.591,2.15
		c-4.71,4.31-7.3,8.979-8.64,12.13c-0.78,1.84-1.13,3.14-1.229,3.57c-1.011,2.1-1.891,4.279-2.57,6.52
		c-0.09,0.29-0.15,0.58-0.23,0.87l-5.529,14.15l-0.011,0.1c-0.08,0.42-0.25,0.8-0.47,1.13l-10.47,26.8l-1.07,2.74l-0.52,1.33
		l4.43,0.11l11.86,0.3l3.14,0.08l11.44,0.29l-1.891,11.31c-4.58,1.91-9.08,2.67-13.03,1.84c-7.16-1.54-14.18-5.97-17.979-13.09
		c-0.58-1.1-1.09-2.26-1.51-3.479l0.11-0.16c0.61-0.8,1.15-1.65,1.6-2.54c1.67-3.28,2.28-7.11,1.46-10.96
		c-1.92-9.021-10.9-14.76-20.05-12.811c-6.49,1.381-11.31,6.271-12.89,12.21c-0.25,0.961-0.43,1.94-0.51,2.94
		c-0.08,1.04-0.07,2.09,0.05,3.15c0.06,0.52,0.14,1.05,0.25,1.569c0.99,4.63,3.84,8.391,7.61,10.69c1.37,5.16,3.59,9.97,6.51,14.3
		c0.97,1.43,2,2.811,3.12,4.13c6.75,7.94,16.21,13.72,27.45,16.11c2.65,0.59,5.35,0.939,8.06,1.06c1.84,0.09,3.7,0.08,5.561-0.01
		l-0.091,0.54h77.061l-9.38-35.41l15.5,0.351C191,163.71,192.69,145.84,190.93,128.83z M62.12,158.76c-2.79-1.05-5.1-3.19-6.3-6
		l-0.18-0.48c-0.18-0.49-0.34-0.99-0.45-1.51c-0.1-0.48-0.16-0.96-0.2-1.44c-0.08-1.04-0.02-2.069,0.19-3.06
		c0.88-4.19,4.18-7.7,8.69-8.66c6.07-1.29,12.02,2.5,13.29,8.48c0.17,0.81,0.24,1.609,0.23,2.41c-0.02,1.92-0.56,3.77-1.5,5.39
		c-0.52,0.89-1.16,1.71-1.91,2.43c-0.23,0.23-0.48,0.44-0.73,0.65c-0.67,0.54-1.41,1.01-2.21,1.39c-0.8,0.391-1.66,0.69-2.57,0.891
		C66.27,159.71,64.08,159.5,62.12,158.76z M69.48,175.24c-2.32-3.12-4.2-6.569-5.57-10.25c1.87,0.24,3.8,0.19,5.75-0.22
		c1.97-0.42,3.77-1.17,5.38-2.16c1.1,2.55,2.53,4.851,4.2,6.9L69.48,175.24z M158.79,162.99c-1.35,0.521-2.74,0.96-4.17,1.32
		l-0.22,0.05l-0.2,0.05c-1.88,0.45-3.811,0.761-5.78,0.931c-1.05,0.09-2.11,0.14-3.189,0.14c-4.49,0-8.801-0.78-12.811-2.21
		c-0.79-0.28-1.58-0.59-2.34-0.93c-0.98-0.42-1.94-0.88-2.87-1.391c-7.81-4.199-13.97-11.029-17.32-19.319
		c-0.59-1.45-1.09-2.94-1.5-4.471c-0.479-1.8-0.83-3.649-1.04-5.55c-0.159-1.399-0.239-2.81-0.239-4.25
		c0-7.41,2.12-14.32,5.779-20.18l3.511-0.21l3.159-0.19l3.16-0.189l2.09-0.12l6.71-10.88l2.94,10.88h42.65
		c3.25,4.95,5.38,10.7,6.029,16.89c0.141,1.311,0.21,2.641,0.21,3.99C183.35,143.63,173.15,157.52,158.79,162.99z M125.47,137.65
		c0.9,3.93,3.021,7.37,5.91,9.94c1.08,0.96,2.271,1.79,3.54,2.47l0.26,0.18l0.011,0.011c0.449,0.3,0.899,0.569,1.35,0.81
		c1.56,0.83,3.12,1.32,4.65,1.56c4.079,0.65,7.899-0.5,10.72-1.85c0.79-0.38,1.5-0.77,2.12-1.14c1.02-0.58,2-1.25,2.91-1.98
		c0.989-0.8,1.909-1.67,2.75-2.59c2.38-2.64,4.05-5.78,4.659-9.17l-8.18,0.37L125.47,137.65z M149.11,149.67
		c-5.79,1.869-10.641,0.09-13.181-1.271c0.57-1.14,1.301-2.149,2.2-3.02c1.561-1.48,3.62-2.53,6.28-3.03
		c4.84-0.92,9.07,0.03,10.95,3.93C153.2,147.96,151.1,149.03,149.11,149.67z M155.71,148.53l0.34-0.25v0.021L155.71,148.53z
		 M163.94,107.65c-5.53,0.65-9.471,5.65-8.82,11.18l0.53,4.29l4.529-0.529l-0.47-4.471c-0.41-3.529,1.41-6.18,5.18-6.35
		c4.181-0.24,6.12,2.88,6.351,5.24l0.59,4.24l3.88-0.53l-0.59-4.24C174.47,110.95,169.47,107.01,163.94,107.65 M130.35,120.36
		l0.53,4.29l3.88-0.53l-0.529-4.29c-0.65-5.529-5.65-9.47-11.181-8.819c-0.74,0.09-1.439,0.26-2.12,0.49
		c-1.59,0.55-2.979,1.47-4.08,2.659c-1.77,1.91-2.79,4.5-2.67,7.271c0.011,0.25,0.021,0.5,0.051,0.76l0.529,4.29l0.71-0.08
		l3.82-0.45l-0.47-4.47c-0.41-3.53,1.41-6.18,5.18-6.35C128.18,114.89,130.12,118.01,130.35,120.36z M92.32,95.9
		c4.99-0.85,9.081-3.78,11.56-7.72c0.521-0.83,0.97-1.71,1.34-2.62c0.37-0.92,0.67-1.87,0.87-2.85c0.41-1.97,0.48-4.03,0.13-6.12
		c-1.55-9.1-10.279-15.2-19.5-13.63c-5.21,0.89-9.47,4.04-11.9,8.25c-0.5,0.86-0.91,1.77-1.25,2.71c-0.33,0.92-0.57,1.87-0.74,2.85
		c-0.3,1.78-0.33,3.63-0.01,5.5C74.36,91.37,83.1,97.47,92.32,95.9 M78.32,78.79c0.06-1,0.26-1.98,0.58-2.91
		c0.33-0.95,0.8-1.84,1.37-2.66c1.66-2.4,4.27-4.16,7.4-4.69c6.12-1.04,11.91,3,12.93,9.02c0.181,1.08,0.19,2.14,0.07,3.17
		c-0.12,1-0.39,1.97-0.78,2.88c-0.39,0.92-0.89,1.78-1.51,2.56c-1.67,2.13-4.11,3.68-7.01,4.17c-6.12,1.04-11.91-3-12.93-9.02
		C78.3,80.46,78.27,79.62,78.32,78.79z"/>
</g>
</svg>
