<?xml version="1.0" encoding="utf-8"?>
<!-- Generator: Adobe Illustrator 16.0.0, SVG Export Plug-In . SVG Version: 6.00 Build 0)  -->
<!DOCTYPE svg PUBLIC "-//W3C//DTD SVG 1.1//EN" "http://www.w3.org/Graphics/SVG/1.1/DTD/svg11.dtd">
<svg version="1.1" id="S_1_" xmlns="http://www.w3.org/2000/svg" xmlns:xlink="http://www.w3.org/1999/xlink" x="0px" y="0px"
	 width="350px" height="275px" viewBox="0 0 350 275" enable-background="new 0 0 350 275" xml:space="preserve">
<g id="Rectangle_1">
	<g>
		<rect x="25" fill="#FCFCFC" width="40" height="25"/>
	</g>
</g>
<g id="Rectangle_1_copy_18">
	<g>
		<rect y="225" fill="#FCFCFC" width="25" height="28.659"/>
	</g>
</g>
<g id="Rectangle_1_copy_5">
	<g>
		<rect x="135" fill="#FCFCFC" width="40" height="25"/>
	</g>
</g>
<g id="Rectangle_1_copy_12">
	<g>
		<rect x="172.5" y="60" fill="#FCFCFC" width="137.5" height="25"/>
	</g>
</g>
<g id="Rectangle_1_copy_13">
	<g>
		<rect x="230" y="82.331" fill="#FCFCFC" width="25" height="27.669"/>
	</g>
</g>
<g id="Rectangle_1_copy_14">
	<g>
		<rect x="190" y="82.331" fill="#FCFCFC" width="25" height="67.669"/>
	</g>
</g>
<g id="Rectangle_1_copy_15">
	<g>
		<rect x="211.333" y="125" fill="#FCFCFC" width="138.667" height="25"/>
	</g>
</g>
<g id="Rectangle_1_copy_16">
	<g>
		<rect x="325" y="141.326" fill="#FCFCFC" width="25" height="133.674"/>
	</g>
</g>
<g id="Rectangle_1_copy_17">
	<g>
		<rect y="250" fill="#FCFCFC" width="331" height="25"/>
	</g>
</g>
<g id="Rectangle_1_copy">
	<g>
		<rect x="40" y="10.5" fill="#FCFCFC" width="25" height="27.167"/>
	</g>
</g>
<g id="Rectangle_1_copy_7">
	<g>
		<rect x="115" y="220" fill="#FCFCFC" width="40" height="25"/>
	</g>
</g>
<g id="Rectangle_1_copy_8">
	<g>
		<rect x="115" y="185" fill="#FCFCFC" width="25" height="38.328"/>
	</g>
</g>
<g id="Rectangle_1_copy_9">
	<g>
		<rect x="138.333" y="185" fill="#FCFCFC" width="66.667" height="25"/>
	</g>
</g>
<g id="Rectangle_1_copy_10">
	<g>
		<rect x="180" y="220" fill="#FCFCFC" width="100" height="25"/>
	</g>
</g>
<g id="Rectangle_1_copy_11">
	<g>
		<rect x="180" y="204.164" fill="#FCFCFC" width="25" height="25.836"/>
	</g>
</g>
<g id="Rectangle_1_copy_3">
	<g>
		<rect x="120" fill="#FCFCFC" width="25" height="37.667"/>
	</g>
</g>
<g id="Rectangle_1_copy_6">
	<g>
		<rect x="150" y="32.998" fill="#FCFCFC" width="25" height="212.002"/>
	</g>
</g>
<g id="Rectangle_1_copy_4">
	<g>
		<rect x="150" fill="#FCFCFC" width="25" height="35"/>
	</g>
</g>
<g id="Rectangle_1_copy_2">
	<g>
		<rect x="40" y="35" fill="#FCFCFC" width="105" height="25"/>
	</g>
</g>
<g id="Rectangle_2">
	<g>
		<rect x="40" y="56.331" fill="#FCFCFC" width="50" height="53.669"/>
	</g>
</g>
<g id="Rectangle_2_copy">
	<g>
		<rect x="95" y="56.331" fill="#FCFCFC" width="50" height="53.669"/>
	</g>
</g>
</svg>
